<?xml version="1.0" encoding="UTF-8"?><svg id="Gráfica" xmlns="http://www.w3.org/2000/svg" viewBox="0 0 723 277"><defs><style>.cls-1{fill:none;stroke:#000;stroke-linecap:round;stroke-linejoin:round;}.cls-2{fill:#fff;}</style></defs><path class="cls-2" d="M290.06,249.6c-6.4,0-11.61-5.21-11.61-11.61,0-4.17,2.2-7.96,5.79-10.03v-14.61c-36.7,0-62.73-.1-65.57-.12-10.2-.07-165.88-53.53-172.5-55.8-.41-.14-.68-.52-.67-.95l.11-15.59c0-.05,0-.11.01-.16.1-.59,1.58-5.84,22.49-11.22L32.87,28.93c-.11-.31-.06-.64.13-.91.19-.26.49-.42.82-.42h33.94c.3,0,.58.13.77.36l76.66,91.55c13.54-.86,28.45-1.53,44.35-1.98,22.61-.65,48.11-1.23,75.81-1.75l-1.44-6.15c-.07-.3,0-.61.19-.85.19-.24.48-.38.78-.38h6.45c.2-.02.89-.09,1.56-.09.52,0,.92.04,1.22.12.33.09.52.14,8.26,7.04,63.95-1.08,134.13-1.7,192.62-1.7s101.13.66,113.55,1.85c16.06,1.54,32.47,5.86,45.03,11.85l.4.19c.64.31,1.28.63,1.9.95l.23.12c.7.36,1.38.73,2.05,1.1l.28.16c.55.31,1.1.63,1.63.95l.46.28c.56.34,1.1.68,1.63,1.03l.19.12c.58.38,1.14.77,1.69,1.16l.4.29c.42.31.83.61,1.22.92l.43.34c.51.41,1,.81,1.46,1.23l3.36,2.98,3.58,3.2c1.58,1.42,3,2.68,4.27,3.8,4.93,4.35,7.83,6.68,11,8.14,1.06.49,2.2.94,3.42,1.42.69.27,1.39.55,2.09.84.11-.04.22-.06.34-.06.13,0,.27.03.39.08,6.17,2.63,11.97,6.43,12.6,16.33,0,.08,0,.17,0,.25.8,12.73-46.5,31.33-65.18,34.1-7.31,1.08-21.96,2.03-43.57,2.83,2.97,5.97,7.55,15.09,10.32,20.6.27-.02.53-.04.78-.04,5.19,0,9.41,4.22,9.41,9.41s-4.22,9.41-9.41,9.41-9.41-4.22-9.41-9.41c0-2.21.76-4.31,2.17-6l-14.32-23.61c-29.86.94-70.96,1.66-122.2,2.14v1.4c.14,15.63,0,16.06-.08,16.31-.08.25-.26.83-9.32,10.4-.18.19-.44.31-.71.31-.05,0-4.82.1-11.49.1-15.42,0-35.34-.5-42.64-2.88-11.3-3.69-21.41-15.57-21.83-16.08-.15-.18-.24-.41-.24-.64v-8.4c-21.24.07-43.27.12-65.51.12v14.34c3.83,1.98,6.28,5.96,6.28,10.3,0,6.4-5.21,11.61-11.61,11.61Z"/><path d="M67.75,28.6l76.98,91.94c13.11-.84,27.97-1.53,44.82-2.01,23.66-.67,49.79-1.27,77.04-1.77l-1.72-7.35h6.51s.77-.09,1.5-.09c.37,0,.72.02.97.09.21.06,3.53,2.97,8.14,7.08,65.5-1.11,135.85-1.71,193-1.71,56.66,0,100.35.59,113.45,1.85,15.59,1.5,32.1,5.75,44.7,11.76.13.06.27.13.4.19.64.31,1.26.62,1.88.93.08.04.15.08.23.12.69.36,1.36.72,2.02,1.09.09.05.18.1.28.16.55.31,1.08.62,1.61.94.15.09.3.18.45.27.55.33,1.08.67,1.6,1.01.06.04.12.08.18.12.57.38,1.12.76,1.66,1.14.13.1.26.19.4.29.41.3.81.6,1.2.9.14.11.28.22.42.33.49.39.97.79,1.43,1.19.55.48,1.08.95,1.6,1.41.1.09.2.18.3.26.45.4.9.8,1.33,1.18.06.05.12.1.18.16.43.38.85.76,1.26,1.12.27.24.53.47.79.71.04.04.08.07.12.11,2.15,1.92,4.01,3.59,5.64,5.03,0,0,0,0,0,0,5.05,4.46,7.97,6.79,11.25,8.3,1.88.86,4.02,1.62,6.17,2.53.03-.08.06-.16.09-.24,5.71,2.44,11.39,5.98,11.99,15.47,0,.08,0,.16,0,.24,0,.01,0,.03,0,.04.72,11.33-44.62,30.1-64.33,33.01-7.9,1.17-23.84,2.11-45.01,2.87,2.93,5.91,8.05,16.11,11.33,22.63.44-.07.89-.12,1.36-.12,4.64,0,8.41,3.76,8.41,8.41s-3.76,8.41-8.41,8.41-8.41-3.76-8.41-8.41c0-2.29.92-4.37,2.41-5.88l-15-24.75c-33.5,1.07-77.86,1.74-123.74,2.16,0,.91-.02,1.72-.02,2.38.04,4.33.14,15.53-.02,16.02-.19.61-9.09,10.01-9.09,10.01,0,0-4.74.1-11.47.1-13.46,0-34.89-.4-42.32-2.83-11.16-3.64-21.38-15.77-21.38-15.77v-9.4c-24.29.09-47.31.12-67.51.13v15.97c3.7,1.66,6.28,5.36,6.28,9.68,0,5.86-4.75,10.61-10.61,10.61s-10.61-4.75-10.61-10.61c0-4.12,2.35-7.68,5.79-9.44v-16.2c-37.81,0-63.89-.1-66.56-.12-10.15-.07-172.18-55.75-172.18-55.75l.11-15.59s.89-5.21,22.81-10.69L33.81,28.6h33.94M67.75,26.6h-33.94c-.65,0-1.26.31-1.63.84-.38.53-.47,1.21-.26,1.82l34.89,99.56c-19.57,5.19-21.92,10.27-22.17,11.75-.02.11-.03.21-.03.32l-.11,15.59c0,.86.54,1.63,1.35,1.91,16.62,5.71,162.63,55.78,172.82,55.86,2.8.02,28.33.11,64.58.12v13.05c-3.6,2.31-5.79,6.26-5.79,10.6,0,6.95,5.66,12.61,12.61,12.61s12.61-5.66,12.61-12.61c0-4.51-2.43-8.66-6.28-10.9v-12.75c21.64,0,42.98-.05,63.51-.12v7.39c0,.47.17.93.47,1.29.43.51,10.72,12.61,22.29,16.38,7.42,2.42,27.45,2.93,42.94,2.93,6.67,0,11.46-.1,11.51-.1.53-.01,1.04-.24,1.41-.62,9.22-9.74,9.38-10.27,9.55-10.79.13-.41.26-.84.11-16.64v-.38c50.45-.47,91.03-1.18,120.66-2.11l13.66,22.53c-1.27,1.76-1.95,3.86-1.95,6.07,0,5.74,4.67,10.41,10.41,10.41s10.41-4.67,10.41-10.41-4.67-10.41-10.41-10.41c-.06,0-.12,0-.18,0-2.58-5.12-6.49-12.92-9.33-18.62,20.8-.79,34.97-1.72,42.13-2.78,10.07-1.49,26.68-7.05,40.39-13.52,11.95-5.64,26.08-13.96,25.65-21.56,0-.11,0-.22,0-.32-.66-10.46-7.05-14.55-13.2-17.18-.25-.11-.52-.16-.78-.16-.08,0-.16,0-.24.01-.61-.25-1.22-.49-1.82-.73-1.2-.47-2.33-.92-3.37-1.39-3.05-1.4-5.9-3.69-10.76-7.98-1.22-1.07-2.56-2.28-4.06-3.62l-1.56-1.4-.12-.1-.79-.71-1.26-1.13-.05-.04-.12-.11-1.34-1.19-.12-.1-.18-.16-1.6-1.42c-.43-.38-.91-.78-1.5-1.25-.12-.1-.24-.19-.36-.29l-.08-.06c-.41-.32-.82-.63-1.25-.94l-.13-.1-.28-.21c-.59-.42-1.16-.81-1.73-1.19l-.13-.08-.06-.04c-.54-.35-1.09-.7-1.65-1.04l-.47-.28c-.54-.32-1.09-.65-1.66-.96l-.11-.06-.18-.1c-.67-.37-1.37-.75-2.08-1.11l-.15-.08-.09-.04c-.63-.32-1.27-.64-1.92-.96l-.41-.2c-12.66-6.03-29.2-10.39-45.37-11.94-12.45-1.2-52.81-1.86-113.64-1.86-58.37,0-128.4.62-192.25,1.69-7.64-6.81-7.77-6.84-8.38-7-.4-.1-.87-.15-1.48-.15-.66,0-1.34.06-1.61.09h-6.4c-.61,0-1.19.28-1.57.76s-.52,1.1-.38,1.7l1.16,4.95c-27.24.51-52.32,1.09-74.59,1.72-15.71.45-30.46,1.1-43.88,1.95L69.28,27.31c-.38-.45-.94-.72-1.53-.72h0Z"/><path class="cls-1" d="M285.24,212.85s8.66,0,9.15,0"/><path class="cls-1" d="M570.23,210.02h9.06"/><polyline class="cls-1" points="147.52 140.68 161.24 140.2 67.71 28.5 33.77 28.5 74.33 144.25 84.17 144.01"/><path class="cls-1" d="M612.6,131.39c-2.87.31-5.75.5-8.64.51-1.48,0-3.28.08-4.03,1.57-1.11,2.18-.66,10.08-.6,13.75.03,1.97.1,4.36,1.54,5.43,2.11,1.56,10.43,2.52,14.71,2.47-.46-2.35-2.35-16.98-2.89-22.06"/><path class="cls-1" d="M630.95,127.29c-.86.29-1.72.56-2.59.83.16.1,20.02,21.21,20.55,22.04,3.09-.91,6.14-1.97,9.14-3.23"/><path class="cls-1" d="M618.12,155.19c1.26-.06,24.52-3.25,27.85-4.14-.99-1.91-19.42-22.03-19.7-22.26-3.87,1.11-7.8,1.94-11.76,2.49.55,5.87,1.75,14.55,3.17,21.47"/><path class="cls-1" d="M677.22,184.89c-.21-.42-.41-.84-.59-1.27-1.49-3.5-2.04-7.33-2.38-11.11-.34-3.72-.49-7.49.2-11.16.23-1.21.61-2.52,1.13-3.82"/><path class="cls-1" d="M143.77,147.63c-21.15,1.71-42.31,3.43-63.46,5.14-2.01.16-4.1.31-5.97-.42-1.87-.73-3.46-2.64-3.13-4.62,11.58-2.77,23.17-5.53,34.75-8.3,6.08-1.45,12.2-2.91,18.44-3.33,3.74-.25,26.4,1.5,24.2,9.03"/><path class="cls-1" d="M72.11,147.52c.58.72,1.37,1.3,2.23,1.63,1.87.73,3.96.58,5.97.42,21.15-1.71,42.31-3.43,63.46-5.14,1.7-.14,3.73-.53,4.56-1.89"/><path class="cls-1" d="M557.54,149.69v-5.95c0-2.96-2.4-5.36-5.36-5.36h0c-2.96,0-5.36,2.4-5.36,5.36v5.95c0,2.96,2.4,5.36,5.36,5.36h0"/><path class="cls-1" d="M525.96,138.38h0c-2.96,0-5.36,2.4-5.36,5.36v5.95c0,2.96,2.4,5.36,5.36,5.36h0c2.96,0,5.36-2.4,5.36-5.36v-5.95"/><path class="cls-1" d="M494.38,143.74v5.95c0,2.96,2.4,5.36,5.36,5.36h0c2.96,0,5.36-2.4,5.36-5.36v-5.95c0-2.96-2.4-5.36-5.36-5.36h0"/><path class="cls-1" d="M473.53,155.05h0c2.96,0,5.36-2.4,5.36-5.36v-5.95c0-2.96-2.4-5.36-5.36-5.36h0c-2.96,0-5.36,2.4-5.36,5.36v5.95"/><path class="cls-1" d="M452.68,149.69v-5.95c0-2.96-2.4-5.36-5.36-5.36h0c-2.96,0-5.36,2.4-5.36,5.36v5.95c0,2.96,2.4,5.36,5.36,5.36h0"/><path class="cls-1" d="M421.1,138.38h0c-2.96,0-5.36,2.4-5.36,5.36v5.95c0,2.96,2.4,5.36,5.36,5.36h0c2.96,0,5.36-2.4,5.36-5.36v-5.95"/><path class="cls-1" d="M389.52,143.74v5.95c0,2.96,2.4,5.36,5.36,5.36h0c2.96,0,5.36-2.4,5.36-5.36v-5.95c0-2.96-2.4-5.36-5.36-5.36h0"/><path class="cls-1" d="M368.67,155.05h0c2.96,0,5.36-2.4,5.36-5.36v-5.95c0-2.96-2.4-5.36-5.36-5.36h0c-2.96,0-5.36,2.4-5.36,5.36v5.95"/><path class="cls-1" d="M347.82,151.35v-7.61c0-2.96-2.4-5.36-5.36-5.36h0c-2.96,0-5.36,2.4-5.36,5.36v5.4"/><path class="cls-1" d="M310.96,142.48c.04-1.64,2.31-4.1,5.27-4.1h0c2.96,0,5.36,2.4,5.36,5.36v2.33"/><path class="cls-1" d="M269.17,149.69v-5.95c0-2.96-2.4-5.36-5.36-5.36h0c-2.96,0-5.36,2.4-5.36,5.36v5.95c0,2.96,2.4,5.36,5.36,5.36h0"/><path class="cls-1" d="M237.59,138.38h0c-2.96,0-5.36,2.4-5.36,5.36v5.95c0,2.96,2.4,5.36,5.36,5.36h0c2.96,0,5.36-2.4,5.36-5.36v-5.95"/><path class="cls-1" d="M206.01,143.74v5.95c0,2.96,2.4,5.36,5.36,5.36h0c2.96,0,5.36-2.4,5.36-5.36v-5.95c0-2.96-2.4-5.36-5.36-5.36h0"/><path class="cls-1" d="M377.97,192.36l-16.97.19c-15.6.17-30.85-4.62-43.55-13.68l-43.64-31.15,36.57-1.29,148.14,44.79-17.71.16"/><polyline class="cls-1" points="310.68 146.17 271.34 109.3 264.83 109.3 273.81 147.72"/><path class="cls-1" d="M458.53,191.22s2.37-.45,3.44-3.29c1.2-3.18,5.13-9.1-6.3-13.06-11.43-3.96-142.72-30.55-142.72-30.55,0,0-38.4-34.82-39.14-35.02-.74-.19-2.47,0-2.47,0"/><path class="cls-1" d="M361.86,211.21v-4.66s10.22-12.13,21.38-15.77c11.16-3.64,53.79-2.73,53.79-2.73v23.16s0,5.65,0,5.65v23.16"/><path class="cls-1" d="M437.03,187.95s8.9,9.4,9.09,10.01c.15.49.06,11.69.02,16.02.04,4.33.14,15.53-.02,16.02-.19.61-8.29,10.22-8.29,10.22"/><path class="cls-1" d="M590.9,231.67c-4.64,0-8.41,3.76-8.41,8.41,0,4.64,3.76,8.41,8.41,8.41s8.41-3.76,8.41-8.41"/><path class="cls-1" d="M595.78,239.89c0-2.61-2.12-4.73-4.73-4.73-2.61,0-4.73,2.12-4.73,4.73s2.12,4.73,4.73,4.73"/><path class="cls-1" d="M290.02,227.29c-5.86,0-10.61,4.75-10.61,10.61,0,5.86,4.75,10.61,10.61,10.61"/><path class="cls-1" d="M284.22,237.66c0,3.3,2.67,5.97,5.97,5.97,3.3,0,5.97-2.67,5.97-5.97s-2.67-5.97-5.97-5.97"/></svg>