<?xml version="1.0" encoding="UTF-8"?>
<svg xmlns="http://www.w3.org/2000/svg" xmlns:xlink="http://www.w3.org/1999/xlink" width="723px" height="239px" viewBox="0 0 725 239" version="1.1">
<g id="surface1">
<path style="fill-rule:nonzero;fill:rgb(100%,100%,100%);fill-opacity:1;stroke-width:0.86;stroke-linecap:butt;stroke-linejoin:miter;stroke:rgb(13.725491%,12.156863%,12.54902%);stroke-opacity:1;stroke-miterlimit:4;" d="M 63.18049 10.467544 C 63.18049 10.467544 64.708884 9.893693 66.142277 9.60607 C 67.57567 9.318446 67.577067 9.417579 68.053468 9.988637 C 68.531266 10.562488 87.356776 31.584143 90.318563 34.929513 C 93.28035 38.273486 95.479337 40.471154 97.007731 40.281266 C 98.537522 40.089983 98.854656 39.749302 100.255917 39.516132 C 101.404308 39.324848 103.219101 38.752393 103.219101 38.752393 C 103.219101 38.752393 106.085888 36.45699 107.327882 36.074422 C 108.571274 35.693251 111.72446 34.450605 110.863865 35.310684 C 110.004667 36.170762 108.283478 37.699635 108.283478 37.699635 L 116.788836 35.979479 L 195.432665 21.454487 C 195.432665 21.454487 202.694632 16.295413 209.386594 11.612454 C 216.074366 6.929495 219.51395 4.4456 220.279544 3.966692 C 221.046535 3.487785 222.858534 1.005286 223.625526 0.717663 C 224.39112 0.431435 224.581121 0.336492 225.633114 0.526379 C 226.682313 0.717663 227.544305 0.622719 226.777314 1.386457 C 226.014514 2.150196 210.055791 18.777912 210.055791 18.777912 C 210.055791 18.777912 218.273353 16.771528 223.147728 16.58164 C 228.022103 16.390357 241.235585 16.65564 248.757407 21.168259 C 249.714399 21.739318 251.721988 23.938382 251.721988 23.938382 C 251.721988 23.938382 256.688569 26.232389 257.261368 30.341497 C 257.835563 34.450605 252.486185 38.750997 247.705413 41.234892 C 242.927436 43.72158 235.570469 46.586646 230.121898 47.448121 C 224.676122 48.309595 220.47234 48.88205 220.47234 48.88205 L 188.936293 52.609987 L 182.055726 53.563613 C 182.055726 53.563613 171.257777 56.720491 166.862597 57.481437 C 162.467416 58.246572 152.911462 59.490614 152.911462 59.490614 C 152.911462 59.490614 155.68185 62.928134 154.439856 67.61249 C 153.200655 72.295449 149.854674 74.779344 145.171698 75.448138 C 140.488721 76.115537 131.505565 74.969231 129.404373 72.3876 C 127.300386 69.807365 127.300386 66.368448 127.396784 65.603313 C 127.493182 64.839575 124.434997 65.319878 124.434997 65.319878 L 121.47321 63.408438 C 121.47321 63.408438 120.517614 63.503382 119.75202 63.312098 C 118.986426 63.122211 115.929638 61.974509 115.929638 61.974509 L 99.589515 65.124406 C 99.589515 65.124406 98.346123 67.707433 95.001539 67.228526 C 91.658352 66.749619 91.370556 66.558335 91.370556 66.558335 L 72.163646 70.5725 C 72.163646 70.5725 71.208051 72.581676 68.914063 72.866507 C 66.621472 73.151338 65.284476 71.816541 65.284476 71.816541 C 65.284476 71.816541 37.189411 77.739354 28.016254 79.65219 C 18.843096 81.560838 6.993154 83.951186 4.411369 84.332357 C 1.832379 84.714924 0.112587 85.002548 0.112587 85.002548 C 0.112587 85.002548 10.814138 82.134689 14.827919 81.277403 C 18.841699 80.414532 48.177362 73.250471 64.900282 69.332646 C 81.6246 65.413426 100.735112 60.82541 100.735112 60.82541 C 100.735112 60.82541 93.568146 59.01031 88.503769 57.38789 C 83.439393 55.762677 80.286207 54.232407 79.615614 54.04252 C 78.947815 53.852632 78.756416 53.563613 78.756416 53.563613 C 78.756416 53.563613 44.641379 60.251559 43.877182 60.442843 C 43.112985 60.634127 40.818997 60.730467 40.818997 60.730467 C 40.818997 60.730467 43.494385 59.677709 44.546379 59.489217 C 45.596975 59.296537 77.514422 51.939796 77.514422 51.939796 L 76.272427 48.976994 C 76.272427 48.976994 76.081029 48.594426 77.609422 48.020575 C 79.136419 47.448121 81.909602 46.110531 81.909602 46.110531 L 63.174902 10.467544 Z M 63.18049 10.467544 " transform="matrix(2.796032,0,0,2.79771,2.185203,0)"/>
<path style="fill:none;stroke-width:0.2867;stroke-linecap:butt;stroke-linejoin:miter;stroke:rgb(13.725491%,12.156863%,12.54902%);stroke-opacity:1;stroke-miterlimit:4;" d="M 82.004603 46.113324 C 82.004603 46.113324 90.223562 42.573878 92.708948 41.715196 C 95.192938 40.855117 96.434932 40.37621 96.434932 40.37621 " transform="matrix(2.796032,0,0,2.79771,2.185203,0)"/>
<path style="fill:none;stroke-width:0.2867;stroke-linecap:butt;stroke-linejoin:miter;stroke:rgb(13.725491%,12.156863%,12.54902%);stroke-opacity:1;stroke-miterlimit:4;" d="M 65.091681 10.083581 L 65.186682 10.657432 L 64.708884 10.753772 L 85.157788 43.91426 L 84.679991 45.061962 " transform="matrix(2.796032,0,0,2.79771,2.185203,0)"/>
<path style="fill:none;stroke-width:0.2867;stroke-linecap:butt;stroke-linejoin:miter;stroke:rgb(13.725491%,12.156863%,12.54902%);stroke-opacity:1;stroke-miterlimit:4;" d="M 76.367428 35.31208 L 77.418024 35.21574 L 83.439393 45.348189 " transform="matrix(2.796032,0,0,2.79771,2.185203,0)"/>
<path style="fill:none;stroke-width:0.2867;stroke-linecap:butt;stroke-linejoin:miter;stroke:rgb(13.725491%,12.156863%,12.54902%);stroke-opacity:1;stroke-miterlimit:4;" d="M 103.31969 38.750997 L 108.280684 37.604691 " transform="matrix(2.796032,0,0,2.79771,2.185203,0)"/>
<path style="fill:none;stroke-width:0.2867;stroke-linecap:butt;stroke-linejoin:miter;stroke:rgb(13.725491%,12.156863%,12.54902%);stroke-opacity:1;stroke-miterlimit:4;" d="M 78.756416 53.565009 C 78.756416 53.565009 85.064185 52.611383 85.635586 52.322363 C 86.209782 52.036136 86.592579 51.558625 86.496181 50.984774 C 86.40118 50.412319 84.586387 50.221035 84.586387 50.221035 L 77.514422 51.942588 " transform="matrix(2.796032,0,0,2.79771,2.185203,0)"/>
<path style="fill:none;stroke-width:0.2867;stroke-linecap:butt;stroke-linejoin:miter;stroke:rgb(13.725491%,12.156863%,12.54902%);stroke-opacity:1;stroke-miterlimit:4;" d="M 65.283079 71.817938 L 72.353647 70.575292 " transform="matrix(2.796032,0,0,2.79771,2.185203,0)"/>
<path style="fill:none;stroke-width:0.2867;stroke-linecap:butt;stroke-linejoin:miter;stroke:rgb(13.725491%,12.156863%,12.54902%);stroke-opacity:1;stroke-miterlimit:4;" d="M 91.272761 66.561128 L 99.586721 65.032255 " transform="matrix(2.796032,0,0,2.79771,2.185203,0)"/>
<path style="fill:none;stroke-width:0.2867;stroke-linecap:butt;stroke-linejoin:miter;stroke:rgb(13.725491%,12.156863%,12.54902%);stroke-opacity:1;stroke-miterlimit:4;" d="M 181.290132 53.661349 C 181.290132 53.661349 179.473942 50.79349 169.917987 48.787106 C 160.36343 46.782118 155.585453 47.6408 155.202656 47.735744 C 154.819859 47.83348 100.638714 60.924543 100.638714 60.924543 " transform="matrix(2.796032,0,0,2.79771,2.185203,0)"/>
<path style="fill:none;stroke-width:0.2867;stroke-linecap:butt;stroke-linejoin:miter;stroke:rgb(13.725491%,12.156863%,12.54902%);stroke-opacity:1;stroke-miterlimit:4;" d="M 141.349316 55.955356 C 141.349316 55.955356 139.343124 54.521427 135.900745 55.764073 C 132.462557 57.005322 129.212974 58.153024 128.831574 58.440648 C 128.451571 58.725479 128.067377 58.916763 127.016781 60.064465 C 125.964788 61.21077 123.2894 64.55614 123.2894 64.55614 " transform="matrix(2.796032,0,0,2.79771,2.185203,0)"/>
<path style="fill:none;stroke-width:0.2867;stroke-linecap:butt;stroke-linejoin:miter;stroke:rgb(13.725491%,12.156863%,12.54902%);stroke-opacity:1;stroke-miterlimit:4;" d="M 2.691577 84.431489 L 128.640176 58.536988 " transform="matrix(2.796032,0,0,2.79771,2.185203,0)"/>
<path style="fill:none;stroke-width:0.2867;stroke-linecap:butt;stroke-linejoin:miter;stroke:rgb(13.725491%,12.156863%,12.54902%);stroke-opacity:1;stroke-miterlimit:4;" d="M 150.899682 57.389286 C 150.899682 57.389286 158.544446 56.624151 162.27043 55.860413 C 165.999208 55.095278 169.247394 53.661349 171.064981 52.80127 C 172.878377 51.942588 172.49558 49.742128 172.49558 49.742128 L 141.343727 55.859017 C 141.343727 55.859017 133.405579 57.491211 130.738574 59.775445 C 127.392593 62.641907 127.392593 65.319878 127.392593 65.319878 " transform="matrix(2.796032,0,0,2.79771,2.185203,0)"/>
<path style="fill:none;stroke-width:0.2867;stroke-linecap:butt;stroke-linejoin:miter;stroke:rgb(13.725491%,12.156863%,12.54902%);stroke-opacity:1;stroke-miterlimit:4;" d="M 154.340664 65.223538 C 154.340664 60.893826 151.3677 57.385097 147.700393 57.385097 C 144.031689 57.385097 141.058725 60.893826 141.058725 65.223538 C 141.058725 69.551855 144.031689 73.060583 147.700393 73.060583 C 151.3677 73.060583 154.340664 69.551855 154.340664 65.223538 Z M 154.340664 65.223538 " transform="matrix(2.796032,0,0,2.79771,2.185203,0)"/>
<path style="fill:none;stroke-width:0.2896;stroke-linecap:butt;stroke-linejoin:miter;stroke:rgb(13.725491%,12.156863%,12.54902%);stroke-opacity:1;stroke-miterlimit:4;" d="M 153.291465 65.321275 C 153.291465 61.362959 150.5099 58.15442 147.080094 58.15442 C 143.650289 58.15442 140.868724 61.362959 140.868724 65.321275 C 140.868724 69.278193 143.650289 72.486732 147.080094 72.486732 C 150.5099 72.486732 153.291465 69.278193 153.291465 65.321275 Z M 153.291465 65.321275 " transform="matrix(2.796032,0,0,2.79771,2.185203,0)"/>
<path style="fill:none;stroke-width:0.2896;stroke-linecap:butt;stroke-linejoin:miter;stroke:rgb(13.725491%,12.156863%,12.54902%);stroke-opacity:1;stroke-miterlimit:4;" d="M 146.919431 58.162798 C 149.165919 59.070348 150.807475 61.953565 150.807475 65.365954 C 150.807475 68.740644 149.206434 71.590352 147.004653 72.5356 " transform="matrix(2.796032,0,0,2.79771,2.185203,0)"/>
<path style="fill:none;stroke-width:0.2867;stroke-linecap:butt;stroke-linejoin:miter;stroke:rgb(13.725491%,12.156863%,12.54902%);stroke-opacity:1;stroke-miterlimit:4;" d="M 141.349316 55.860413 C 141.349316 55.860413 135.234343 59.776841 136.477735 67.134979 C 137.599582 73.78802 143.453302 75.543082 143.453302 75.543082 " transform="matrix(2.796032,0,0,2.79771,2.185203,0)"/>
<path style="fill:none;stroke-width:0.2867;stroke-linecap:butt;stroke-linejoin:miter;stroke:rgb(13.725491%,12.156863%,12.54902%);stroke-opacity:1;stroke-miterlimit:4;" d="M 134.74956 57.771853 C 134.74956 57.771853 130.066583 61.974509 131.501374 67.802377 C 132.823001 73.183452 135.895157 75.065571 135.895157 75.065571 " transform="matrix(2.796032,0,0,2.79771,2.185203,0)"/>
<path style="fill:none;stroke-width:0.2867;stroke-linecap:butt;stroke-linejoin:miter;stroke:rgb(13.725491%,12.156863%,12.54902%);stroke-opacity:1;stroke-miterlimit:4;" d="M 195.53046 21.457279 L 210.439985 18.687157 " transform="matrix(2.796032,0,0,2.79771,2.185203,0)"/>
<path style="fill:none;stroke-width:0.2867;stroke-linecap:butt;stroke-linejoin:miter;stroke:rgb(13.725491%,12.156863%,12.54902%);stroke-opacity:1;stroke-miterlimit:4;" d="M 237.290261 26.331522 L 237.290261 29.482815 L 240.630654 29.387872 L 243.880237 27.188808 L 249.520206 25.468651 L 251.530589 24.037514 L 249.419617 22.029734 L 247.990415 23.367323 L 243.690236 24.418685 L 240.159842 25.28016 Z M 237.290261 26.331522 " transform="matrix(2.796032,0,0,2.79771,2.185203,0)"/>
<path style="fill:none;stroke-width:0.2867;stroke-linecap:butt;stroke-linejoin:miter;stroke:rgb(13.725491%,12.156863%,12.54902%);stroke-opacity:1;stroke-miterlimit:4;" d="M 239.870648 25.375104 L 240.630654 29.387872 " transform="matrix(2.796032,0,0,2.79771,2.185203,0)"/>
<path style="fill:none;stroke-width:0.2867;stroke-linecap:butt;stroke-linejoin:miter;stroke:rgb(13.725491%,12.156863%,12.54902%);stroke-opacity:1;stroke-miterlimit:4;" d="M 243.120232 24.609969 L 244.169431 26.903977 " transform="matrix(2.796032,0,0,2.79771,2.185203,0)"/>
<path style="fill:none;stroke-width:0.2867;stroke-linecap:butt;stroke-linejoin:miter;stroke:rgb(13.725491%,12.156863%,12.54902%);stroke-opacity:1;stroke-miterlimit:4;" d="M 247.990415 23.367323 L 249.8094 25.08748 " transform="matrix(2.796032,0,0,2.79771,2.185203,0)"/>
<path style="fill:none;stroke-width:0.2729;stroke-linecap:butt;stroke-linejoin:miter;stroke:rgb(13.725491%,12.156863%,12.54902%);stroke-opacity:1;stroke-miterlimit:4;" d="M 254.820688 26.013181 C 254.482597 25.933596 254.131932 25.891709 253.771489 25.891709 C 251.150586 25.891709 249.025644 28.106131 249.025644 30.838556 C 249.025644 33.569584 251.150586 35.785402 253.771489 35.785402 C 254.352669 35.785402 254.908703 35.676496 255.422825 35.478232 " transform="matrix(2.796032,0,0,2.79771,2.185203,0)"/>
<path style="fill:none;stroke-width:0.2729;stroke-linecap:butt;stroke-linejoin:miter;stroke:rgb(13.725491%,12.156863%,12.54902%);stroke-opacity:1;stroke-miterlimit:4;" d="M 219.230345 27.58813 C 219.230345 27.58813 218.726003 27.58813 218.709238 28.273679 C 218.682694 29.206362 218.480119 31.801955 219.146521 34.52321 C 219.548877 36.183328 220.631606 38.555525 220.871902 38.640695 C 221.112198 38.724469 225.275464 37.762466 225.455686 37.709409 C 225.631717 37.657748 225.613555 37.477634 225.254508 36.713896 C 225.003036 36.176347 223.994352 33.064148 223.860233 30.939084 C 223.728909 28.814021 223.860233 27.600696 223.860233 27.335412 C 223.860233 27.070128 223.840674 26.846731 223.529128 26.888618 C 222.608459 27.008694 219.219169 27.58813 219.219169 27.58813 Z M 219.230345 27.58813 " transform="matrix(2.796032,0,0,2.79771,2.185203,0)"/>
<path style="fill:none;stroke-width:0.2729;stroke-linecap:butt;stroke-linejoin:miter;stroke:rgb(13.725491%,12.156863%,12.54902%);stroke-opacity:1;stroke-miterlimit:4;" d="M 189.720049 32.875657 C 189.330266 32.904978 187.543415 33.20796 187.329663 33.256828 C 187.113117 33.305696 186.924513 33.686867 186.946866 33.925623 C 186.970616 34.164378 186.946866 37.582352 187.473561 39.396056 C 187.998859 41.212553 188.785409 42.935502 188.954455 43.149125 C 189.120706 43.364145 189.096956 43.364145 189.789902 43.292937 C 190.482849 43.220333 191.844991 43.052785 191.987492 42.981577 C 192.131391 42.908973 192.318598 42.48033 192.104846 42.096367 C 191.891095 41.7138 190.862852 38.918545 190.6016 36.983369 C 190.340348 35.048192 190.456304 33.375508 190.456304 33.206564 C 190.436745 33.043205 190.326377 32.828185 189.697696 32.875657 Z M 189.720049 32.875657 " transform="matrix(2.796032,0,0,2.79771,2.185203,0)"/>
<path style="fill:none;stroke-width:0.2729;stroke-linecap:butt;stroke-linejoin:miter;stroke:rgb(13.725491%,12.156863%,12.54902%);stroke-opacity:1;stroke-miterlimit:4;" d="M 148.309515 39.834473 C 148.042675 39.845642 146.359207 40.060662 146.151043 40.136058 C 145.941483 40.211455 145.77104 40.250549 145.751481 40.573079 C 145.733319 40.897004 145.790599 44.28845 146.280971 45.804757 C 146.775533 47.32246 147.383258 49.066352 147.609584 49.122202 C 147.835909 49.180843 148.520473 49.048201 148.973123 48.93371 C 149.428568 48.820616 149.977616 48.686578 150.110338 48.612577 C 150.244456 48.537181 150.339457 48.32635 150.167618 48.044311 C 149.997175 47.75948 149.069521 44.954452 148.880917 43.646183 C 148.690915 42.337915 148.690915 40.934703 148.728636 40.479531 C 148.759372 40.022964 148.689518 39.813529 148.309515 39.834473 Z M 148.309515 39.834473 " transform="matrix(2.796032,0,0,2.79771,2.185203,0)"/>
<path style="fill:none;stroke-width:0.2729;stroke-linecap:butt;stroke-linejoin:miter;stroke:rgb(13.725491%,12.156863%,12.54902%);stroke-opacity:1;stroke-miterlimit:4;" d="M 117.819873 44.870678 C 117.819873 44.870678 116.313832 45.084301 116.074934 45.155509 C 115.837432 45.228113 115.64743 45.468265 115.669784 45.705624 C 115.693534 45.94438 115.766181 49.098466 116.147581 50.364847 C 116.530378 51.629833 117.247075 53.541273 117.438473 53.708821 C 117.629872 53.876368 118.370319 53.732557 118.990617 53.661349 C 119.612313 53.590141 119.94761 53.470065 119.827462 53.040026 C 119.707314 52.611383 118.561717 50.006016 118.490467 48.954654 C 118.417819 47.904688 118.204067 45.538076 118.251568 45.155509 C 118.282303 44.774338 118.092302 44.84415 117.811491 44.870678 Z M 117.819873 44.870678 " transform="matrix(2.796032,0,0,2.79771,2.185203,0)"/>
<path style="fill:none;stroke-width:0.2729;stroke-linecap:butt;stroke-linejoin:miter;stroke:rgb(13.725491%,12.156863%,12.54902%);stroke-opacity:1;stroke-miterlimit:4;" d="M 92.253504 48.97839 C 91.775706 49.000729 91.274158 49.000729 91.10651 49.07473 C 90.940258 49.147334 90.79636 49.408429 90.82011 49.623449 C 90.832684 49.735147 91.520042 54.250558 91.918207 55.237694 C 92.324754 56.24298 92.852846 56.811246 93.065201 56.981586 C 93.305497 57.171474 94.117194 56.910379 94.283445 56.885246 C 94.451094 56.86151 94.713743 56.741435 94.522344 56.551547 C 94.332343 56.360263 93.32785 54.521427 93.019098 52.967422 C 92.707551 51.414813 92.563653 49.700241 92.563653 49.454505 C 92.563653 49.288353 92.42674 48.970012 92.253504 48.97839 Z M 92.253504 48.97839 " transform="matrix(2.796032,0,0,2.79771,2.185203,0)"/>
<path style="fill:none;stroke-width:0.1433;stroke-linecap:butt;stroke-linejoin:miter;stroke:rgb(13.725491%,12.156863%,12.54902%);stroke-opacity:1;stroke-miterlimit:4;" d="M 216.290192 33.879115 C 216.289784 33.312792 216.070832 32.852483 215.800154 32.852924 C 215.529476 32.853366 215.310193 33.312846 215.310601 33.879169 C 215.309624 34.445306 215.530146 34.904416 215.800639 34.905359 C 216.071317 34.904918 216.290599 34.445437 216.290192 33.879115 Z M 216.290192 33.879115 " transform="matrix(2.771426,-0.370697,0.370474,2.77309,-5.046173,80.825848)"/>
<path style="fill:none;stroke-width:0.1433;stroke-linecap:butt;stroke-linejoin:miter;stroke:rgb(13.725491%,12.156863%,12.54902%);stroke-opacity:1;stroke-miterlimit:4;" d="M 212.659129 34.453621 C 212.659139 33.885888 212.440365 33.425469 212.169674 33.425799 C 211.900369 33.426315 211.680888 33.885727 211.680878 34.453459 C 211.681053 35.019808 211.899827 35.480227 212.170518 35.479897 C 212.439823 35.479381 212.659304 35.019969 212.659129 34.453621 Z M 212.659129 34.453621 " transform="matrix(2.771147,-0.371816,0.371593,2.772811,-5.354575,79.731946)"/>
<path style="fill:none;stroke-width:0.1433;stroke-linecap:butt;stroke-linejoin:miter;stroke:rgb(13.725491%,12.156863%,12.54902%);stroke-opacity:1;stroke-miterlimit:4;" d="M 210.988583 34.69164 C 210.987321 34.123737 210.770029 33.663472 210.499531 33.662365 C 210.230233 33.662827 210.011865 34.123753 210.011743 34.69147 C 210.01162 35.259188 210.230297 35.719639 210.499596 35.719176 C 210.768894 35.718714 210.98846 35.259357 210.988583 34.69164 Z M 210.988583 34.69164 " transform="matrix(2.771147,-0.372375,0.372152,2.772811,-5.489344,79.275919)"/>
<path style="fill:none;stroke-width:0.1419;stroke-linecap:butt;stroke-linejoin:miter;stroke:rgb(13.725491%,12.156863%,12.54902%);stroke-opacity:1;stroke-miterlimit:4;" d="M 209.319535 34.928117 C 209.39358 35.483816 209.242696 35.965516 208.974459 35.999026 C 208.71181 36.035328 208.436587 35.61227 208.359748 35.055174 C 208.288498 34.498077 208.440778 34.017774 208.707619 33.984264 C 208.967474 33.947962 209.246888 34.37102 209.316741 34.928117 Z M 209.319535 34.928117 " transform="matrix(2.796032,0,0,2.79771,2.185203,0)"/>
<path style="fill:none;stroke-width:0.1419;stroke-linecap:butt;stroke-linejoin:miter;stroke:rgb(13.725491%,12.156863%,12.54902%);stroke-opacity:1;stroke-miterlimit:4;" d="M 207.656231 35.255617 C 207.656486 34.693609 207.438219 34.237684 207.170301 34.238575 C 206.901182 34.237897 206.683966 34.693494 206.683711 35.255502 C 206.68364 35.816127 206.901907 36.272052 207.169641 36.272545 C 207.438945 36.271838 207.656161 35.816242 207.656231 35.255617 Z M 207.656231 35.255617 " transform="matrix(2.771426,-0.369857,0.369635,2.77309,-5.762237,77.485381)"/>
<path style="fill:none;stroke-width:0.1419;stroke-linecap:butt;stroke-linejoin:miter;stroke:rgb(13.725491%,12.156863%,12.54902%);stroke-opacity:1;stroke-miterlimit:4;" d="M 206.050393 35.478232 C 206.127232 36.033932 205.973554 36.514235 205.702522 36.550537 C 205.438476 36.584047 205.166048 36.162385 205.092003 35.603892 C 205.016561 35.048192 205.171636 34.567889 205.437079 34.532983 C 205.696934 34.498077 205.966569 34.918343 206.047599 35.478232 Z M 206.050393 35.478232 " transform="matrix(2.796032,0,0,2.79771,2.185203,0)"/>
<path style="fill:none;stroke-width:0.1367;stroke-linecap:butt;stroke-linejoin:miter;stroke:rgb(13.725491%,12.156863%,12.54902%);stroke-opacity:1;stroke-miterlimit:4;" d="M 204.408071 35.79257 C 204.407378 35.25151 204.198329 34.813505 203.940476 34.812713 C 203.681053 34.813119 203.471424 35.25129 203.472116 35.79235 C 203.472623 36.334795 203.681672 36.7728 203.939526 36.773592 C 204.198949 36.773186 204.408578 36.335014 204.408071 35.79257 Z M 204.408071 35.79257 " transform="matrix(2.771147,-0.372095,0.371872,2.772811,-6.059735,76.785953)"/>
<path style="fill:none;stroke-width:0.1367;stroke-linecap:butt;stroke-linejoin:miter;stroke:rgb(13.725491%,12.156863%,12.54902%);stroke-opacity:1;stroke-miterlimit:4;" d="M 202.836344 36.03248 C 202.837383 35.490244 202.628473 35.052194 202.370444 35.052709 C 202.112601 35.05184 201.902664 35.491316 201.903196 36.032355 C 201.902343 36.573207 202.112638 37.011443 202.370481 37.012312 C 202.62851 37.011797 202.836876 36.573519 202.836344 36.03248 Z M 202.836344 36.03248 " transform="matrix(2.771147,-0.372935,0.372711,2.772811,-6.194783,76.366298)"/>
<path style="fill:none;stroke-width:0.1367;stroke-linecap:butt;stroke-linejoin:miter;stroke:rgb(13.725491%,12.156863%,12.54902%);stroke-opacity:1;stroke-miterlimit:4;" d="M 201.286642 36.342968 C 201.287465 35.802273 201.077581 35.363367 200.819725 35.363173 C 200.561869 35.36298 200.353256 35.801639 200.352434 36.342334 C 200.352814 36.884596 200.562697 37.323502 200.820553 37.323696 C 201.078591 37.322505 201.287205 36.883846 201.286642 36.342968 Z M 201.286642 36.342968 " transform="matrix(2.771986,-0.365661,0.365441,2.77365,-6.280062,74.315577)"/>
<path style="fill:none;stroke-width:0.1367;stroke-linecap:butt;stroke-linejoin:miter;stroke:rgb(13.725491%,12.156863%,12.54902%);stroke-opacity:1;stroke-miterlimit:4;" d="M 199.706553 36.511366 C 199.705501 35.968905 199.497575 35.529896 199.239712 35.529363 C 198.98305 35.530398 198.773854 35.968795 198.773521 36.511072 C 198.774573 37.053533 198.9825 37.492542 199.240547 37.491691 C 199.497025 37.49204 199.706405 37.052259 199.706553 36.511366 Z M 199.706553 36.511366 " transform="matrix(2.771426,-0.369298,0.369076,2.77309,-6.416228,74.48624)"/>
<path style="fill:none;stroke-width:0.1367;stroke-linecap:butt;stroke-linejoin:miter;stroke:rgb(13.725491%,12.156863%,12.54902%);stroke-opacity:1;stroke-miterlimit:4;" d="M 198.080112 36.7125 C 198.151363 37.248653 198.001876 37.710805 197.744815 37.744315 C 197.490549 37.780617 197.225106 37.371521 197.153855 36.835368 C 197.085399 36.300612 197.230694 35.837063 197.486357 35.803553 C 197.746212 35.768648 198.015847 36.174951 198.0857 36.7125 Z M 198.080112 36.7125 " transform="matrix(2.796032,0,0,2.79771,2.185203,0)"/>
<path style="fill:none;stroke-width:0.1367;stroke-linecap:butt;stroke-linejoin:miter;stroke:rgb(13.725491%,12.156863%,12.54902%);stroke-opacity:1;stroke-miterlimit:4;" d="M 196.519585 36.998727 C 196.59363 37.53488 196.44135 37.998429 196.185686 38.031938 C 195.930022 38.065448 195.664579 37.659144 195.594726 37.122992 C 195.523475 36.585443 195.671564 36.124687 195.927228 36.088385 C 196.196862 36.056271 196.456717 36.462574 196.526571 36.998727 Z M 196.519585 36.998727 " transform="matrix(2.796032,0,0,2.79771,2.185203,0)"/>
<path style="fill:none;stroke-width:0.1367;stroke-linecap:butt;stroke-linejoin:miter;stroke:rgb(13.725491%,12.156863%,12.54902%);stroke-opacity:1;stroke-miterlimit:4;" d="M 193.447685 37.466041 C 193.447123 36.925163 193.237239 36.486257 192.979383 36.486063 C 192.721528 36.48587 192.512914 36.924529 192.513477 37.465407 C 192.512472 38.007486 192.722355 38.446392 192.980211 38.446586 C 193.238249 38.445395 193.446863 38.006736 193.447685 37.466041 Z M 193.447685 37.466041 " transform="matrix(2.771986,-0.365661,0.365441,2.77365,-6.878972,71.478699)"/>
<path style="fill:none;stroke-width:0.1334;stroke-linecap:butt;stroke-linejoin:miter;stroke:rgb(13.725491%,12.156863%,12.54902%);stroke-opacity:1;stroke-miterlimit:4;" d="M 185.665583 38.567698 C 185.665478 38.038827 185.46091 37.611511 185.21056 37.610969 C 184.95861 37.611583 184.755732 38.038623 184.754457 38.567273 C 184.754784 39.094765 184.959131 39.52346 185.209701 39.522624 C 185.461431 39.523388 185.66453 39.094969 185.665583 38.567698 Z M 185.665583 38.567698 " transform="matrix(2.760801,-0.442878,0.442612,2.762459,-8.355556,83.388551)"/>
<path style="fill:none;stroke-width:0.1334;stroke-linecap:butt;stroke-linejoin:miter;stroke:rgb(13.725491%,12.156863%,12.54902%);stroke-opacity:1;stroke-miterlimit:4;" d="M 182.74029 39.091678 C 182.82132 39.613868 182.688599 40.069039 182.438523 40.108134 C 182.192639 40.148624 181.921608 39.75768 181.837783 39.235489 C 181.753959 38.714695 181.889475 38.259524 182.135359 38.219033 C 182.385435 38.179939 182.656466 38.570883 182.736099 39.091678 Z M 182.74029 39.091678 " transform="matrix(2.796032,0,0,2.79771,2.185203,0)"/>
<path style="fill:none;stroke-width:0.1296;stroke-linecap:butt;stroke-linejoin:miter;stroke:rgb(13.725491%,12.156863%,12.54902%);stroke-opacity:1;stroke-miterlimit:4;" d="M 181.219636 39.383341 C 181.220319 38.854702 181.028135 38.426845 180.790427 38.427179 C 180.552719 38.427514 180.3602 38.854929 180.359517 39.383567 C 180.360433 39.911046 180.552617 40.338904 180.790325 40.338569 C 181.027814 40.339613 181.220552 39.910819 181.219636 39.383341 Z M 181.219636 39.383341 " transform="matrix(2.761361,-0.4398,0.439536,2.763019,-8.840388,80.887401)"/>
<path style="fill:none;stroke-width:0.1311;stroke-linecap:butt;stroke-linejoin:miter;stroke:rgb(13.725491%,12.156863%,12.54902%);stroke-opacity:1;stroke-miterlimit:4;" d="M 179.850537 39.571389 C 179.85048 39.043886 179.653466 38.61481 179.410008 38.615249 C 179.166772 38.61431 178.970348 39.043742 178.970183 39.572624 C 178.970241 40.100126 179.167255 40.529202 179.410712 40.528763 C 179.652569 40.529481 179.850373 40.10027 179.850537 39.571389 Z M 179.850537 39.571389 " transform="matrix(2.760522,-0.444276,0.44401,2.762179,-9.020172,81.119611)"/>
<path style="fill:none;stroke-width:0.1295;stroke-linecap:butt;stroke-linejoin:miter;stroke:rgb(13.725491%,12.156863%,12.54902%);stroke-opacity:1;stroke-miterlimit:4;" d="M 178.402473 39.766444 C 178.402434 39.25319 178.204167 38.83834 177.959561 38.837427 C 177.714734 38.837894 177.516599 39.25444 177.516858 39.766315 C 177.516897 40.279569 177.714944 40.695799 177.959771 40.695332 C 178.204377 40.696244 178.402512 40.279698 178.402473 39.766444 Z M 178.402473 39.766444 " transform="matrix(2.761081,-0.441479,0.441214,2.762739,-9.125303,79.947369)"/>
<path style="fill:none;stroke-width:0.1278;stroke-linecap:butt;stroke-linejoin:miter;stroke:rgb(13.725491%,12.156863%,12.54902%);stroke-opacity:1;stroke-miterlimit:4;" d="M 176.91032 39.964322 C 176.992747 40.485116 176.87679 40.937495 176.647671 40.973797 C 176.419948 41.010099 176.165682 40.616362 176.083255 40.095568 C 176.002225 39.574774 176.119578 39.120998 176.347301 39.086093 C 176.575023 39.051187 176.837672 39.440735 176.917305 39.964322 Z M 176.91032 39.964322 " transform="matrix(2.796032,0,0,2.79771,2.185203,0)"/>
<path style="fill:none;stroke-width:0.1278;stroke-linecap:butt;stroke-linejoin:miter;stroke:rgb(13.725491%,12.156863%,12.54902%);stroke-opacity:1;stroke-miterlimit:4;" d="M 175.557779 40.317634 C 175.55868 39.788977 175.370803 39.361685 175.140205 39.361645 C 174.909606 39.361604 174.722643 39.788457 174.721743 40.317114 C 174.722442 40.844612 174.908719 41.273062 175.139318 41.273103 C 175.371296 41.273363 175.558478 40.845132 175.557779 40.317634 Z M 175.557779 40.317634 " transform="matrix(2.761081,-0.440919,0.440655,2.762739,-9.460268,78.621252)"/>
<path style="fill:none;stroke-width:0.1278;stroke-linecap:butt;stroke-linejoin:miter;stroke:rgb(13.725491%,12.156863%,12.54902%);stroke-opacity:1;stroke-miterlimit:4;" d="M 174.098326 40.53075 C 174.098425 40.003273 173.911424 39.574336 173.680614 39.575325 C 173.448645 39.574713 173.260822 40.002644 173.260502 40.5315 C 173.260403 41.058977 173.449005 41.486758 173.679594 41.487147 C 173.911784 41.486381 174.099607 41.05845 174.098326 40.53075 Z M 174.098326 40.53075 " transform="matrix(2.760522,-0.445116,0.444849,2.762179,-9.659625,78.755543)"/>
<path style="fill:none;stroke-width:0.1278;stroke-linecap:butt;stroke-linejoin:miter;stroke:rgb(13.725491%,12.156863%,12.54902%);stroke-opacity:1;stroke-miterlimit:4;" d="M 172.639479 40.680589 C 172.723303 41.201383 172.605949 41.655158 172.375432 41.690064 C 172.149107 41.727762 171.896238 41.334025 171.812414 40.81323 C 171.728589 40.292436 171.84734 39.838661 172.075063 39.802359 C 172.294402 39.766057 172.544478 40.159794 172.635287 40.680589 Z M 172.639479 40.680589 " transform="matrix(2.796032,0,0,2.79771,2.185203,0)"/>
<path style="fill:none;stroke-width:0.1278;stroke-linecap:butt;stroke-linejoin:miter;stroke:rgb(13.725491%,12.156863%,12.54902%);stroke-opacity:1;stroke-miterlimit:4;" d="M 171.258152 40.984369 C 171.258147 40.456875 171.071055 40.027962 170.840459 40.027618 C 170.609641 40.028652 170.421896 40.456634 170.42168 40.985507 C 170.421685 41.513001 170.608777 41.941914 170.839373 41.942258 C 171.07157 41.941446 171.257935 41.513242 171.258152 40.984369 Z M 171.258152 40.984369 " transform="matrix(2.760522,-0.444556,0.444289,2.762179,-9.955166,77.404249)"/>
<path style="fill:none;stroke-width:0.1278;stroke-linecap:butt;stroke-linejoin:miter;stroke:rgb(13.725491%,12.156863%,12.54902%);stroke-opacity:1;stroke-miterlimit:4;" d="M 169.817597 41.152534 C 169.816638 40.624832 169.629897 40.195781 169.400687 40.195474 C 169.169875 40.196322 168.98317 40.624363 168.982528 41.15322 C 168.983487 41.680922 169.170228 42.109974 169.399438 42.110281 C 169.63025 42.109432 169.816955 41.681391 169.817597 41.152534 Z M 169.817597 41.152534 " transform="matrix(2.760242,-0.446794,0.446526,2.7619,-10.109507,77.144061)"/>
<path style="fill:none;stroke-width:0.1278;stroke-linecap:butt;stroke-linejoin:miter;stroke:rgb(13.725491%,12.156863%,12.54902%);stroke-opacity:1;stroke-miterlimit:4;" d="M 168.438786 41.366846 C 168.438411 40.837985 168.250845 40.409292 168.020033 40.410584 C 167.788063 40.410277 167.600801 40.838458 167.601176 41.367319 C 167.60155 41.896179 167.789337 42.323494 168.019928 42.32358 C 168.251899 42.323887 168.43916 41.895706 168.438786 41.366846 Z M 168.438786 41.366846 " transform="matrix(2.761081,-0.441479,0.441214,2.762739,-10.180247,75.619309)"/>
<path style="fill:none;stroke-width:0.1278;stroke-linecap:butt;stroke-linejoin:miter;stroke:rgb(13.725491%,12.156863%,12.54902%);stroke-opacity:1;stroke-miterlimit:4;" d="M 167.008885 41.583751 C 167.009141 41.056459 166.820915 40.629307 166.59031 40.629452 C 166.358326 40.629378 166.171702 41.056393 166.171446 41.583686 C 166.171191 42.110978 166.359198 42.539509 166.589803 42.539364 C 166.821787 42.539438 167.00863 42.111044 167.008885 41.583751 Z M 167.008885 41.583751 " transform="matrix(2.761361,-0.438681,0.438418,2.763019,-10.285656,74.531)"/>
<path style="fill:none;stroke-width:0.122;stroke-linecap:butt;stroke-linejoin:miter;stroke:rgb(13.725491%,12.156863%,12.54902%);stroke-opacity:1;stroke-miterlimit:4;" d="M 164.269636 42.007008 C 164.35346 42.527802 164.250077 42.978785 164.041914 43.013691 C 163.836544 43.044408 163.60044 42.649274 163.516616 42.127084 C 163.432791 41.60629 163.537572 41.155307 163.741544 41.123194 C 163.960884 41.089684 164.1914 41.483421 164.271033 42.007008 Z M 164.269636 42.007008 " transform="matrix(2.796032,0,0,2.79771,2.185203,0)"/>
<path style="fill:none;stroke-width:0.122;stroke-linecap:butt;stroke-linejoin:miter;stroke:rgb(13.725491%,12.156863%,12.54902%);stroke-opacity:1;stroke-miterlimit:4;" d="M 162.89144 42.258343 C 162.891604 41.729462 162.720084 41.300244 162.510618 41.300493 C 162.299772 41.300521 162.128841 41.729812 162.128899 42.257314 C 162.128734 42.786195 162.298875 43.215192 162.509721 43.215164 C 162.720566 43.215136 162.891276 42.787224 162.89144 42.258343 Z M 162.89144 42.258343 " transform="matrix(2.760522,-0.444276,0.44401,2.762179,-10.811311,73.694485)"/>
<path style="fill:none;stroke-width:0.122;stroke-linecap:butt;stroke-linejoin:miter;stroke:rgb(13.725491%,12.156863%,12.54902%);stroke-opacity:1;stroke-miterlimit:4;" d="M 161.619395 42.437047 C 161.70322 42.960634 161.601233 43.408824 161.391673 43.442334 C 161.186304 43.475843 160.951596 43.079314 160.866375 42.558519 C 160.782551 42.034933 160.884537 41.58395 161.091303 41.551837 C 161.310643 41.518327 161.550939 41.914857 161.630572 42.437047 Z M 161.619395 42.437047 " transform="matrix(2.796032,0,0,2.79771,2.185203,0)"/>
<path style="fill:none;stroke-width:0.122;stroke-linecap:butt;stroke-linejoin:miter;stroke:rgb(13.725491%,12.156863%,12.54902%);stroke-opacity:1;stroke-miterlimit:4;" d="M 160.190193 42.652067 C 160.274018 43.175653 160.170634 43.62524 159.962471 43.657353 C 159.757102 43.690863 159.5196 43.294333 159.437173 42.773539 C 159.353349 42.251348 159.456732 41.79897 159.660704 41.769649 C 159.871662 41.733347 160.100781 42.12848 160.19159 42.652067 Z M 160.190193 42.652067 " transform="matrix(2.796032,0,0,2.79771,2.185203,0)"/>
<path style="fill:none;stroke-width:0.1205;stroke-linecap:butt;stroke-linejoin:miter;stroke:rgb(13.725491%,12.156863%,12.54902%);stroke-opacity:1;stroke-miterlimit:4;" d="M 157.540569 43.071559 C 157.541497 42.555529 157.370961 42.137782 157.160338 42.136432 C 156.949492 42.136459 156.778955 42.5545 156.779407 43.070752 C 156.77848 43.586783 156.949015 44.004529 157.159861 44.004502 C 157.370706 44.004474 157.541243 43.586433 157.540569 43.071559 Z M 157.540569 43.071559 " transform="matrix(2.760522,-0.444276,0.44401,2.762179,-11.362129,71.344408)"/>
<path style="fill:none;stroke-width:0.1205;stroke-linecap:butt;stroke-linejoin:miter;stroke:rgb(13.725491%,12.156863%,12.54902%);stroke-opacity:1;stroke-miterlimit:4;" d="M 156.202147 43.335711 C 156.201998 42.820817 156.030503 42.402658 155.81965 42.402471 C 155.608796 42.402283 155.437827 42.820166 155.437976 43.33506 C 155.438125 43.849954 155.608464 44.266511 155.820697 44.266922 C 156.03155 44.267109 156.202519 43.849227 156.202147 43.335711 Z M 156.202147 43.335711 " transform="matrix(2.759963,-0.447074,0.446806,2.76162,-11.580219,71.235298)"/>
<path style="fill:none;stroke-width:0.1205;stroke-linecap:butt;stroke-linejoin:miter;stroke:rgb(13.725491%,12.156863%,12.54902%);stroke-opacity:1;stroke-miterlimit:4;" d="M 154.891254 43.501664 C 154.891063 42.988386 154.719977 42.570861 154.510509 42.571386 C 154.299662 42.571691 154.128514 42.98836 154.128706 43.501638 C 154.128677 44.016295 154.299983 44.432441 154.51061 44.433515 C 154.720077 44.43299 154.891225 44.016321 154.891254 43.501664 Z M 154.891254 43.501664 " transform="matrix(2.761081,-0.440639,0.440375,2.762739,-11.582177,69.618224)"/>
<path style="fill:none;stroke-width:0.1205;stroke-linecap:butt;stroke-linejoin:miter;stroke:rgb(13.725491%,12.156863%,12.54902%);stroke-opacity:1;stroke-miterlimit:4;" d="M 153.520584 43.679693 C 153.601614 44.187921 153.498231 44.627734 153.290068 44.659847 C 153.084699 44.693357 152.848594 44.309393 152.768961 43.801165 C 152.685137 43.292937 152.789917 42.850332 152.996683 42.819615 C 153.196464 42.787501 153.43676 43.171465 153.516393 43.679693 Z M 153.520584 43.679693 " transform="matrix(2.796032,0,0,2.79771,2.185203,0)"/>
<path style="fill:none;stroke-width:0.1205;stroke-linecap:butt;stroke-linejoin:miter;stroke:rgb(13.725491%,12.156863%,12.54902%);stroke-opacity:1;stroke-miterlimit:4;" d="M 152.230474 43.906802 C 152.230604 43.392162 152.060986 42.974836 151.850145 42.9751 C 151.639305 42.975363 151.46946 43.392205 151.46933 43.906846 C 151.469199 44.421487 151.640197 44.839032 151.849658 44.838548 C 152.060278 44.839664 152.231723 44.421663 152.230474 43.906802 Z M 152.230474 43.906802 " transform="matrix(2.761081,-0.441199,0.440934,2.762739,-11.864295,68.552295)"/>
<path style="fill:none;stroke-width:0.1205;stroke-linecap:butt;stroke-linejoin:miter;stroke:rgb(13.725491%,12.156863%,12.54902%);stroke-opacity:1;stroke-miterlimit:4;" d="M 150.940197 44.060864 C 151.021227 44.570488 150.919241 45.011697 150.709681 45.042414 C 150.504311 45.07732 150.269604 44.690564 150.188574 44.182336 C 150.107544 43.674108 150.20953 43.234295 150.416296 43.202182 C 150.616077 43.168672 150.856373 43.554032 150.936006 44.060864 Z M 150.940197 44.060864 " transform="matrix(2.796032,0,0,2.79771,2.185203,0)"/>
<path style="fill:none;stroke-width:0.1157;stroke-linecap:butt;stroke-linejoin:miter;stroke:rgb(13.725491%,12.156863%,12.54902%);stroke-opacity:1;stroke-miterlimit:4;" d="M 143.326659 45.285433 C 143.327197 44.776308 143.167395 44.365635 142.969413 44.364622 C 142.772587 44.365212 142.612459 44.776298 142.613299 45.285646 C 142.612984 45.793393 142.772563 46.205444 142.969389 46.204854 C 143.167595 46.204489 143.326344 45.793179 143.326659 45.285433 Z M 143.326659 45.285433 " transform="matrix(2.759963,-0.448193,0.447924,2.76162,-12.934897,65.704227)"/>
<path style="fill:none;stroke-width:0.1157;stroke-linecap:butt;stroke-linejoin:miter;stroke:rgb(13.725491%,12.156863%,12.54902%);stroke-opacity:1;stroke-miterlimit:4;" d="M 142.126236 45.500537 C 142.127367 44.991864 141.967419 44.580726 141.769441 44.580556 C 141.572842 44.580604 141.41309 44.992139 141.413557 45.49965 C 141.412644 46.006944 141.572374 46.419462 141.770352 46.419631 C 141.966951 46.419583 142.126703 46.008048 142.126236 45.500537 Z M 142.126236 45.500537 " transform="matrix(2.76192,-0.436443,0.436181,2.763578,-12.805719,63.418494)"/>
<path style="fill:none;stroke-width:0.1157;stroke-linecap:butt;stroke-linejoin:miter;stroke:rgb(13.725491%,12.156863%,12.54902%);stroke-opacity:1;stroke-miterlimit:4;" d="M 140.866512 45.714775 C 140.86565 45.206994 140.706484 44.795506 140.509646 44.796551 C 140.313029 44.796218 140.153843 45.207703 140.153326 45.715264 C 140.154188 46.223045 140.313353 46.634533 140.510191 46.633487 C 140.706809 46.63382 140.865994 46.222335 140.866512 45.714775 Z M 140.866512 45.714775 " transform="matrix(2.760801,-0.441758,0.441493,2.762459,-13.071623,63.689872)"/>
<path style="fill:none;stroke-width:0.1157;stroke-linecap:butt;stroke-linejoin:miter;stroke:rgb(13.725491%,12.156863%,12.54902%);stroke-opacity:1;stroke-miterlimit:4;" d="M 139.660259 45.874568 C 139.742686 46.375815 139.649082 46.808647 139.453493 46.837968 C 139.262094 46.870081 139.038563 46.490306 138.957533 45.986267 C 138.876503 45.48502 138.970107 45.053584 139.161505 45.021471 C 139.372463 44.990754 139.591802 45.370529 139.671435 45.874568 Z M 139.660259 45.874568 " transform="matrix(2.796032,0,0,2.79771,2.185203,0)"/>
<path style="fill:none;stroke-width:0.1157;stroke-linecap:butt;stroke-linejoin:miter;stroke:rgb(13.725491%,12.156863%,12.54902%);stroke-opacity:1;stroke-miterlimit:4;" d="M 138.419661 46.088191 C 138.503485 46.589438 138.408485 47.023666 138.212895 47.052987 C 138.021496 47.0851 137.796568 46.702533 137.718332 46.201286 C 137.637302 45.698643 137.732303 45.267208 137.922305 45.236491 C 138.123483 45.204377 138.342822 45.586945 138.422455 46.088191 Z M 138.419661 46.088191 " transform="matrix(2.796032,0,0,2.79771,2.185203,0)"/>
<path style="fill:none;stroke-width:0.1157;stroke-linecap:butt;stroke-linejoin:miter;stroke:rgb(13.725491%,12.156863%,12.54902%);stroke-opacity:1;stroke-miterlimit:4;" d="M 137.157018 46.336305 C 137.157107 45.830142 136.996398 45.418514 136.799788 45.418261 C 136.603177 45.418009 136.442787 45.829324 136.442478 46.336867 C 136.443549 46.84463 136.602877 47.256038 136.799488 47.25629 C 136.997698 47.255383 137.156709 46.843848 137.157018 46.336305 Z M 137.157018 46.336305 " transform="matrix(2.761081,-0.440639,0.440375,2.762739,-13.446849,61.902136)"/>
<path style="fill:none;stroke-width:0.1115;stroke-linecap:butt;stroke-linejoin:miter;stroke:rgb(13.725491%,12.156863%,12.54902%);stroke-opacity:1;stroke-miterlimit:4;" d="M 135.980378 46.430268 C 136.060011 46.931515 135.980378 47.36295 135.795965 47.390875 C 135.618537 47.421592 135.406183 47.037629 135.32655 46.536382 C 135.24552 46.036531 135.327947 45.602303 135.506772 45.574378 C 135.686994 45.545058 135.896554 45.929021 135.977584 46.430268 Z M 135.980378 46.430268 " transform="matrix(2.796032,0,0,2.79771,2.185203,0)"/>
<path style="fill:none;stroke-width:0.1115;stroke-linecap:butt;stroke-linejoin:miter;stroke:rgb(13.725491%,12.156863%,12.54902%);stroke-opacity:1;stroke-miterlimit:4;" d="M 134.769598 46.699467 C 134.770153 46.192167 134.622767 45.780332 134.440401 45.77993 C 134.258035 45.779528 134.109829 46.191536 134.110655 46.699053 C 134.110101 47.206352 134.257486 47.618187 134.439852 47.618589 C 134.622435 47.617612 134.770424 47.206983 134.769598 46.699467 Z M 134.769598 46.699467 " transform="matrix(2.7622,-0.434484,0.434224,2.763858,-13.530731,59.988502)"/>
<path style="fill:none;stroke-width:0.1115;stroke-linecap:butt;stroke-linejoin:miter;stroke:rgb(13.725491%,12.156863%,12.54902%);stroke-opacity:1;stroke-miterlimit:4;" d="M 133.531104 46.865911 C 133.531513 46.358385 133.383307 45.948721 133.199559 45.947655 C 133.016971 45.948188 132.869361 46.358684 132.868951 46.866211 C 132.868763 47.372359 133.016748 47.783401 133.200496 47.784467 C 133.383085 47.783934 133.530695 47.373438 133.531104 46.865911 Z M 133.531104 46.865911 " transform="matrix(2.761081,-0.441199,0.440934,2.762739,-13.81984,60.408157)"/>
<path style="fill:none;stroke-width:0.1115;stroke-linecap:butt;stroke-linejoin:miter;stroke:rgb(13.725491%,12.156863%,12.54902%);stroke-opacity:1;stroke-miterlimit:4;" d="M 132.329836 47.029251 C 132.410866 47.530498 132.328439 47.961934 132.148217 47.988462 C 131.967995 48.017783 131.75564 47.636612 131.67461 47.133969 C 131.594977 46.629929 131.678802 46.19989 131.856229 46.171965 C 132.036451 46.144041 132.246012 46.526608 132.325645 47.029251 Z M 132.329836 47.029251 " transform="matrix(2.796032,0,0,2.79771,2.185203,0)"/>
<path style="fill:none;stroke-width:0.1115;stroke-linecap:butt;stroke-linejoin:miter;stroke:rgb(13.725491%,12.156863%,12.54902%);stroke-opacity:1;stroke-miterlimit:4;" d="M 131.140135 47.176013 C 131.140364 46.666889 130.991791 46.255342 130.810582 46.255747 C 130.628216 46.254551 130.479372 46.667516 130.480745 47.175485 C 130.480516 47.684608 130.627487 48.097311 130.810075 48.097129 C 130.992663 48.096946 131.139906 47.685136 131.140135 47.176013 Z M 131.140135 47.176013 " transform="matrix(2.760242,-0.446515,0.446247,2.7619,-14.179131,60.100413)"/>
<path style="fill:none;stroke-width:0.1098;stroke-linecap:butt;stroke-linejoin:miter;stroke:rgb(13.725491%,12.156863%,12.54902%);stroke-opacity:1;stroke-miterlimit:4;" d="M 129.920832 47.484666 C 129.921047 46.976903 129.776998 46.564573 129.600143 46.564196 C 129.423288 46.563819 129.27863 46.97603 129.27957 47.485395 C 129.279356 47.993157 129.423404 48.405488 129.600259 48.405865 C 129.777114 48.406242 129.920394 47.993807 129.920832 47.484666 Z M 129.920832 47.484666 " transform="matrix(2.759963,-0.447634,0.447365,2.76162,-14.386037,59.705934)"/>
<path style="fill:none;stroke-width:0.1098;stroke-linecap:butt;stroke-linejoin:miter;stroke:rgb(13.725491%,12.156863%,12.54902%);stroke-opacity:1;stroke-miterlimit:4;" d="M 128.750498 47.605419 C 128.751269 47.096741 128.606643 46.685339 128.430014 46.684426 C 128.253168 46.684892 128.109103 47.097551 128.108549 47.60485 C 128.109158 48.113745 128.252403 48.52493 128.430629 48.524681 C 128.607258 48.525594 128.751323 48.112935 128.750498 47.605419 Z M 128.750498 47.605419 " transform="matrix(2.7622,-0.434484,0.434224,2.763858,-14.126285,57.400622)"/>
<path style="fill:none;stroke-width:0.1098;stroke-linecap:butt;stroke-linejoin:miter;stroke:rgb(13.725491%,12.156863%,12.54902%);stroke-opacity:1;stroke-miterlimit:4;" d="M 127.620315 47.699442 C 127.701345 48.199293 127.624506 48.629332 127.448475 48.65586 C 127.275239 48.686578 127.067075 48.301218 126.986045 47.798575 C 126.905015 47.297328 126.984648 46.867288 127.157885 46.84076 C 127.338107 46.811439 127.537888 47.195403 127.617521 47.699442 Z M 127.620315 47.699442 " transform="matrix(2.796032,0,0,2.79771,2.185203,0)"/>
<path style="fill:none;stroke-width:0.106;stroke-linecap:butt;stroke-linejoin:miter;stroke:rgb(13.725491%,12.156863%,12.54902%);stroke-opacity:1;stroke-miterlimit:4;" d="M 126.379831 47.983511 C 126.380027 47.476206 126.244986 47.065035 126.079613 47.064596 C 125.914023 47.065535 125.780342 47.477053 125.780146 47.984357 C 125.779951 48.491662 125.914991 48.902833 126.080365 48.903273 C 126.245738 48.903712 126.379635 48.490815 126.379831 47.983511 Z M 126.379831 47.983511 " transform="matrix(2.762479,-0.432526,0.432266,2.764138,-14.32033,56.158438)"/>
<path style="fill:none;stroke-width:0.106;stroke-linecap:butt;stroke-linejoin:miter;stroke:rgb(13.725491%,12.156863%,12.54902%);stroke-opacity:1;stroke-miterlimit:4;" d="M 125.260368 48.151743 C 125.259826 47.642599 125.126241 47.230932 124.960642 47.231284 C 124.793663 47.231414 124.659895 47.642694 124.660657 48.15046 C 124.659818 48.659383 124.794783 49.07127 124.960383 49.070919 C 125.125982 49.070567 125.25975 48.659287 125.260368 48.151743 Z M 125.260368 48.151743 " transform="matrix(2.760801,-0.442318,0.442053,2.762459,-14.702268,56.950193)"/>
<path style="fill:none;stroke-width:0.1053;stroke-linecap:butt;stroke-linejoin:miter;stroke:rgb(13.725491%,12.156863%,12.54902%);stroke-opacity:1;stroke-miterlimit:4;" d="M 124.090556 48.377796 C 124.091436 47.877163 123.956703 47.470436 123.78973 47.470111 C 123.624136 47.47001 123.488546 47.876551 123.489044 48.377408 C 123.489318 48.879643 123.624052 49.28637 123.789646 49.286471 C 123.956843 49.285418 124.09083 48.880031 124.090556 48.377796 Z M 124.090556 48.377796 " transform="matrix(2.759683,-0.449872,0.449602,2.76134,-15.064634,57.467768)"/>
<path style="fill:none;stroke-width:0.1053;stroke-linecap:butt;stroke-linejoin:miter;stroke:rgb(13.725491%,12.156863%,12.54902%);stroke-opacity:1;stroke-miterlimit:4;" d="M 122.899435 48.520735 C 122.900328 48.020305 122.765859 47.614153 122.60026 47.614505 C 122.434882 47.613477 122.300396 48.020401 122.299503 48.520831 C 122.299989 49.021481 122.434458 49.427633 122.599836 49.42866 C 122.765435 49.428309 122.899921 49.021386 122.899435 48.520735 Z M 122.899435 48.520735 " transform="matrix(2.760801,-0.442318,0.442053,2.762459,-14.948877,55.917834)"/>
<path style="fill:none;stroke-width:0.1053;stroke-linecap:butt;stroke-linejoin:miter;stroke:rgb(13.725491%,12.156863%,12.54902%);stroke-opacity:1;stroke-miterlimit:4;" d="M 121.81963 48.689518 C 121.820124 48.187509 121.686276 47.781171 121.519304 47.781049 C 121.353711 47.78115 121.219995 48.188076 121.219724 48.688706 C 121.220609 49.190938 121.354457 49.597276 121.52005 49.597175 C 121.685643 49.597074 121.819359 49.190149 121.81963 48.689518 Z M 121.81963 48.689518 " transform="matrix(2.760242,-0.446515,0.446247,2.7619,-15.190176,56.024147)"/>
<path style="fill:none;stroke-width:0.1053;stroke-linecap:butt;stroke-linejoin:miter;stroke:rgb(13.725491%,12.156863%,12.54902%);stroke-opacity:1;stroke-miterlimit:4;" d="M 120.649471 48.832158 C 120.649375 48.331316 120.514974 47.924492 120.350764 47.924484 C 120.18495 47.925628 120.05064 48.330895 120.050735 48.831737 C 120.05083 49.332579 120.185232 49.739403 120.349442 49.739411 C 120.51503 49.739645 120.649566 49.333001 120.649471 48.832158 Z M 120.649471 48.832158 " transform="matrix(2.759403,-0.45211,0.451839,2.76106,-15.457475,56.214393)"/>
<path style="fill:none;stroke-width:0.1018;stroke-linecap:butt;stroke-linejoin:miter;stroke:rgb(13.725491%,12.156863%,12.54902%);stroke-opacity:1;stroke-miterlimit:4;" d="M 113.968079 49.907491 C 113.968341 49.421297 113.839646 49.02644 113.679788 49.026686 C 113.521311 49.027148 113.392753 49.421033 113.392273 49.908606 C 113.392011 50.394801 113.520707 50.789657 113.680564 50.789412 C 113.839041 50.788949 113.9676 50.395064 113.968079 49.907491 Z M 113.968079 49.907491 " transform="matrix(2.76192,-0.435603,0.435342,2.763578,-15.669416,51.237263)"/>
<path style="fill:none;stroke-width:0.1018;stroke-linecap:butt;stroke-linejoin:miter;stroke:rgb(13.725491%,12.156863%,12.54902%);stroke-opacity:1;stroke-miterlimit:4;" d="M 112.937973 50.09744 C 112.937838 49.611035 112.808564 49.215706 112.650089 49.215848 C 112.491614 49.21599 112.362041 49.610986 112.362176 50.097391 C 112.36209 50.585174 112.491364 50.980504 112.649839 50.980361 C 112.809694 50.980439 112.937887 50.585223 112.937973 50.09744 Z M 112.937973 50.09744 " transform="matrix(2.761081,-0.441199,0.440934,2.762739,-15.959643,51.441496)"/>
<path style="fill:none;stroke-width:0.1018;stroke-linecap:butt;stroke-linejoin:miter;stroke:rgb(13.725491%,12.156863%,12.54902%);stroke-opacity:1;stroke-miterlimit:4;" d="M 111.790122 50.243375 C 111.868358 50.723679 111.802695 51.135567 111.64343 51.162095 C 111.489752 51.187227 111.298353 50.814434 111.221515 50.335526 C 111.144676 49.853827 111.210338 49.441939 111.365413 49.418203 C 111.526076 49.39307 111.716077 49.763072 111.79571 50.243375 Z M 111.790122 50.243375 " transform="matrix(2.796032,0,0,2.79771,2.185203,0)"/>
<path style="fill:none;stroke-width:0.1018;stroke-linecap:butt;stroke-linejoin:miter;stroke:rgb(13.725491%,12.156863%,12.54902%);stroke-opacity:1;stroke-miterlimit:4;" d="M 110.508588 50.479269 C 110.508673 49.991486 110.379399 49.596156 110.219545 49.596078 C 110.061069 49.596221 109.931497 49.991217 109.931411 50.479 C 109.931325 50.966784 110.060599 51.362113 110.220454 51.362191 C 110.378929 51.362048 110.508502 50.967053 110.508588 50.479269 Z M 110.508588 50.479269 " transform="matrix(2.761081,-0.441199,0.440934,2.762739,-16.213244,50.381165)"/>
<path style="fill:none;stroke-width:0.1018;stroke-linecap:butt;stroke-linejoin:miter;stroke:rgb(13.725491%,12.156863%,12.54902%);stroke-opacity:1;stroke-miterlimit:4;" d="M 109.357599 50.622517 C 109.357554 50.134781 109.22907 49.739179 109.069627 49.739615 C 108.910375 49.738669 108.782012 50.135292 108.782057 50.623027 C 108.782102 51.110763 108.910586 51.506365 109.069837 51.507311 C 109.229281 51.506875 109.357452 51.111635 109.357599 50.622517 Z M 109.357599 50.622517 " transform="matrix(2.769469,-0.384405,0.384175,2.771132,-14.368981,43.263791)"/>
<path style="fill:none;stroke-width:0.1018;stroke-linecap:butt;stroke-linejoin:miter;stroke:rgb(13.725491%,12.156863%,12.54902%);stroke-opacity:1;stroke-miterlimit:4;" d="M 108.329476 50.71861 C 108.329572 50.230697 108.199563 49.834317 108.039928 49.835637 C 107.88049 49.835575 107.751088 50.230399 107.750992 50.718312 C 107.7507 51.207607 107.880905 51.602605 108.040343 51.602667 C 108.199782 51.602729 108.329183 51.207905 108.329476 50.71861 Z M 108.329476 50.71861 " transform="matrix(2.768351,-0.393078,0.392842,2.770013,-14.740294,43.868098)"/>
<path style="fill:none;stroke-width:0.1018;stroke-linecap:butt;stroke-linejoin:miter;stroke:rgb(13.725491%,12.156863%,12.54902%);stroke-opacity:1;stroke-miterlimit:4;" d="M 107.257632 50.88445 C 107.257824 50.396551 107.129281 50.000353 106.969847 50.000259 C 106.810413 50.000165 106.682124 50.396531 106.681931 50.88443 C 106.681541 51.373711 106.811468 51.770106 106.969519 51.770003 C 107.128953 51.770097 107.258625 51.373928 107.257632 50.88445 Z M 107.257632 50.88445 " transform="matrix(2.768351,-0.393638,0.393402,2.770013,-14.858845,43.523979)"/>
<path style="fill:none;stroke-width:0.1018;stroke-linecap:butt;stroke-linejoin:miter;stroke:rgb(13.725491%,12.156863%,12.54902%);stroke-opacity:1;stroke-miterlimit:4;" d="M 106.247665 51.076552 C 106.247765 50.588836 106.117828 50.194403 105.959967 50.193601 C 105.801913 50.194183 105.67363 50.589368 105.67353 51.077084 C 105.67343 51.564799 105.801791 51.960423 105.959844 51.959841 C 106.119281 51.959453 106.247565 51.564267 106.247665 51.076552 Z M 106.247665 51.076552 " transform="matrix(2.769469,-0.385245,0.385014,2.771132,-14.660887,42.192269)"/>
<path style="fill:none;stroke-width:0.1018;stroke-linecap:butt;stroke-linejoin:miter;stroke:rgb(13.725491%,12.156863%,12.54902%);stroke-opacity:1;stroke-miterlimit:4;" d="M 105.149851 51.202586 C 105.215513 51.685682 105.144263 52.098966 104.984997 52.11991 C 104.828525 52.140853 104.646906 51.766663 104.579847 51.283567 C 104.51139 50.801868 104.585435 50.389979 104.743304 50.369036 C 104.90257 50.346696 105.082792 50.722282 105.152645 51.202586 Z M 105.149851 51.202586 " transform="matrix(2.796032,0,0,2.79771,2.185203,0)"/>
<path style="fill:none;stroke-width:0.1018;stroke-linecap:butt;stroke-linejoin:miter;stroke:rgb(13.725491%,12.156863%,12.54902%);stroke-opacity:1;stroke-miterlimit:4;" d="M 104.127246 51.4354 C 104.127249 50.947671 103.998807 50.552062 103.839365 50.552483 C 103.6815 50.551712 103.551907 50.946742 103.551904 51.434471 C 103.5519 51.9222 103.680343 52.317809 103.839785 52.317388 C 103.999034 52.318351 104.127243 51.923129 104.127246 51.4354 Z M 104.127246 51.4354 " transform="matrix(2.769469,-0.384685,0.384454,2.771132,-14.831444,41.310989)"/>
<path style="fill:none;stroke-width:0.1018;stroke-linecap:butt;stroke-linejoin:miter;stroke:rgb(13.725491%,12.156863%,12.54902%);stroke-opacity:1;stroke-miterlimit:4;" d="M 103.040276 51.515342 C 103.107336 51.994249 103.034688 52.407533 102.875422 52.428477 C 102.720347 52.450816 102.537331 52.07523 102.471669 51.593531 C 102.403213 51.110435 102.477257 50.701339 102.633729 50.680395 C 102.794392 50.658056 102.974614 51.032246 103.034688 51.515342 Z M 103.040276 51.515342 " transform="matrix(2.796032,0,0,2.79771,2.185203,0)"/>
<path style="fill:none;stroke-width:0.1018;stroke-linecap:butt;stroke-linejoin:miter;stroke:rgb(13.725491%,12.156863%,12.54902%);stroke-opacity:1;stroke-miterlimit:4;" d="M 101.966534 51.744944 C 101.966844 51.2576 101.839177 50.863022 101.679928 50.862864 C 101.522064 50.86289 101.393085 51.258377 101.392959 51.744336 C 101.392649 52.23168 101.5217 52.626443 101.679565 52.626416 C 101.838814 52.626575 101.967608 52.232472 101.966534 51.744944 Z M 101.966534 51.744944 " transform="matrix(2.771426,-0.370697,0.370474,2.77309,-14.477746,38.969306)"/>
<path style="fill:none;stroke-width:0.0966;stroke-linecap:butt;stroke-linejoin:miter;stroke:rgb(13.725491%,12.156863%,12.54902%);stroke-opacity:1;stroke-miterlimit:4;" d="M 100.950261 51.874173 C 101.015923 52.34191 100.950261 52.73844 100.803568 52.759384 C 100.658273 52.780327 100.486434 52.414514 100.422168 51.948173 C 100.356506 51.483228 100.422168 51.085302 100.567464 51.064359 C 100.71695 51.043416 100.887392 51.407832 100.957246 51.874173 Z M 100.950261 51.874173 " transform="matrix(2.796032,0,0,2.79771,2.185203,0)"/>
<path style="fill:none;stroke-width:0.0966;stroke-linecap:butt;stroke-linejoin:miter;stroke:rgb(13.725491%,12.156863%,12.54902%);stroke-opacity:1;stroke-miterlimit:4;" d="M 99.92312 52.031207 C 99.922447 51.55748 99.80342 51.174491 99.656619 51.175301 C 99.508626 51.174537 99.389173 51.558323 99.388654 52.030475 C 99.389327 52.504201 99.508354 52.88719 99.656539 52.886572 C 99.803149 52.887145 99.922601 52.503358 99.92312 52.031207 Z M 99.92312 52.031207 " transform="matrix(2.769469,-0.383846,0.383616,2.771132,-15.139288,39.626767)"/>
<path style="fill:none;stroke-width:0.0944;stroke-linecap:butt;stroke-linejoin:miter;stroke:rgb(13.725491%,12.156863%,12.54902%);stroke-opacity:1;stroke-miterlimit:4;" d="M 98.963628 52.210665 C 99.030687 52.67561 98.969216 53.073536 98.828112 53.091687 C 98.689802 53.114026 98.523551 52.746817 98.459286 52.280476 C 98.393624 51.811343 98.453698 51.416209 98.592007 51.395266 C 98.734509 51.378511 98.899363 51.740135 98.963628 52.210665 Z M 98.963628 52.210665 " transform="matrix(2.796032,0,0,2.79771,2.185203,0)"/>
<path style="fill:none;stroke-width:0.0944;stroke-linecap:butt;stroke-linejoin:miter;stroke:rgb(13.725491%,12.156863%,12.54902%);stroke-opacity:1;stroke-miterlimit:4;" d="M 97.987049 52.363446 C 97.986518 51.891101 97.873297 51.508798 97.732222 51.508892 C 97.591148 51.508986 97.477152 51.892077 97.476299 52.364229 C 97.47683 52.836574 97.591435 53.21907 97.732509 53.218976 C 97.8722 53.21869 97.98758 52.835791 97.987049 52.363446 Z M 97.987049 52.363446 " transform="matrix(2.76919,-0.385804,0.385573,2.770852,-15.39792,39.114787)"/>
<path style="fill:none;stroke-width:0.0944;stroke-linecap:butt;stroke-linejoin:miter;stroke:rgb(13.725491%,12.156863%,12.54902%);stroke-opacity:1;stroke-miterlimit:4;" d="M 97.07949 52.41129 C 97.080482 51.940754 96.965034 51.558552 96.824163 51.557578 C 96.683103 51.557987 96.568589 51.941105 96.567596 52.411641 C 96.567798 52.883749 96.683247 53.265952 96.824307 53.265542 C 96.965178 53.266516 97.079692 52.883398 97.07949 52.41129 Z M 97.07949 52.41129 " transform="matrix(2.770308,-0.379649,0.379421,2.771971,-15.193252,38.104813)"/>
<path style="fill:none;stroke-width:0.0944;stroke-linecap:butt;stroke-linejoin:miter;stroke:rgb(13.725491%,12.156863%,12.54902%);stroke-opacity:1;stroke-miterlimit:4;" d="M 96.120592 52.544364 C 96.187651 53.012101 96.12618 53.405839 95.985076 53.42399 C 95.845369 53.446329 95.680515 53.07912 95.61625 52.612779 C 95.550587 52.145042 95.610661 51.748512 95.748971 51.728965 C 95.891472 51.71221 96.056327 52.076627 96.120592 52.544364 Z M 96.120592 52.544364 " transform="matrix(2.796032,0,0,2.79771,2.185203,0)"/>
<path style="fill:none;stroke-width:0.0944;stroke-linecap:butt;stroke-linejoin:miter;stroke:rgb(13.725491%,12.156863%,12.54902%);stroke-opacity:1;stroke-miterlimit:4;" d="M 95.286922 52.720508 C 95.286772 52.247977 95.172412 51.863484 95.032527 51.864631 C 94.891457 51.864198 94.777416 52.24705 94.777369 52.720964 C 94.777322 53.194877 94.890495 53.57779 95.031566 53.578223 C 95.172636 53.578656 95.286875 53.194421 95.286922 52.720508 Z M 95.286922 52.720508 " transform="matrix(2.767792,-0.396156,0.395918,2.769453,-16.005778,39.120382)"/>
<path style="fill:none;stroke-width:0.0944;stroke-linecap:butt;stroke-linejoin:miter;stroke:rgb(13.725491%,12.156863%,12.54902%);stroke-opacity:1;stroke-miterlimit:4;" d="M 94.402613 52.840287 C 94.403366 52.368168 94.28888 51.984341 94.147816 51.984465 C 94.006752 51.984589 93.892844 52.367677 93.893283 52.841371 C 93.89253 53.31349 94.007016 53.697317 94.14808 53.697193 C 94.289145 53.697069 94.403052 53.313982 94.402613 52.840287 Z M 94.402613 52.840287 " transform="matrix(2.769469,-0.385245,0.385014,2.771132,-15.648725,37.671169)"/>
<path style="fill:none;stroke-width:0.1433;stroke-linecap:butt;stroke-linejoin:miter;stroke:rgb(13.725491%,12.156863%,12.54902%);stroke-opacity:1;stroke-miterlimit:4;" d="M 214.469853 34.141145 C 214.469871 33.572062 214.250967 33.111737 213.980293 33.112152 C 213.709619 33.112566 213.490108 33.573403 213.490275 34.141102 C 213.490441 34.708801 213.70916 35.170509 213.979834 35.170094 C 214.250508 35.16968 214.470019 34.708843 214.469853 34.141145 Z M 214.469853 34.141145 " transform="matrix(2.771426,-0.370976,0.370754,2.77309,-5.189889,80.238331)"/>
</g>
</svg>
