<?xml version="1.0" encoding="utf-8"?>
<!-- Generator: Adobe Illustrator 27.5.0, SVG Export Plug-In . SVG Version: 6.00 Build 0)  -->
<svg version="1.1" id="Layer_1" xmlns="http://www.w3.org/2000/svg" xmlns:xlink="http://www.w3.org/1999/xlink" x="0px" y="0px"
	 viewBox="0 0 722.557 276.676" style="enable-background:new 0 0 722.557 276.676;" xml:space="preserve">
<g>
	<g>
		<path style="fill:#4B1E09;" d="M660.198,100.63c-0.848-4.882-5.893-4.436-9.692-3.44c-7.665,2.01-15.366,4.318-23.169,5.782
			c0.534-2.278,1.252-4.524,1.849-6.663c2.864-10.25,6.445-20.313,11.077-29.899c1.433-2.964,2.929-5.894,4.433-8.818
			c0.348-0.855,0.702-1.709,1.039-2.568c0.231-0.594,0.701-1.361,1.016-2.103c-0.216-0.083-0.431-0.166-0.642-0.265
			c-0.003,0.005-0.005,0.009-0.007,0.014c-6.033-2.17-12.183-4.061-18.219-6.081c-6.696-2.243-13.216-4.953-19.902-7.225
			c-0.475-0.161-0.959-0.308-1.442-0.459c-1.102-0.204-2.203-0.419-3.282-0.725c-0.588-0.166-1.298-0.349-1.956-0.623
			c-0.503,0.548-1.016,1.088-1.515,1.629c0.003,0.002,0.007,0.004,0.012,0.005c-12.282,16.983-23.743,34.543-36.053,51.509
			c-6.015,8.292-11.813,15.605-21.913,18.928c-6.236,2.051-12.822,2.925-19.361,2.671c-12.349-2.526-24.359-6.236-36.522-9.541
			c-19.342-5.254-38.838-9.908-58.37-14.403c8.125-3.842,15.514-8.973,23.232-13.584c6.622-3.954,14.011-6.873,18.587-13.422
			c2.377-3.404,3.695-8.694-0.663-11.083c-4.608-2.524-10.787-1.782-15.8-1.322c-18.816,1.728-37.493,5.477-56.245,7.823
			c-11.79,1.474-23.63,2.391-35.384,4.182c-11.157,1.7-22.29,3.442-33.517,4.585c-2.444-0.575-4.89-1.139-7.333-1.718
			c-26.619-6.314-53.459-12.149-80.862-13.512c-16.47-0.819-32.346,0.815-48.072,5.897c-14.863,4.802-28.853,12.269-41.42,21.512
			c-2.89,2.127-5.795,4.337-8.676,6.632c-8.104,6.313-16.062,13.172-22.479,21.098c-2.713,3.113-5.253,6.353-7.584,9.713
			c-0.522,1.09-1.008,2.196-1.436,3.328c-1.928,5.112-2.688,10.47-3.191,15.879c1.014,9.823,8.79,17.759,17.675,23.232
			c12.678,7.81,27.326,12.123,41.519,16.264c26.364,7.689,53.692,11.314,80.997,13.62c21.302,1.797,42.682,2.491,64.056,2.986
			c1.017,0.944,2.049,1.879,3.071,2.819c-1.812,0.161-3.722,0.74-5.148,1.108c-2.479,0.639-5.545,1.562-7.05,3.797
			c-0.051,0.076-0.032,0.208,0.042,0.238c-1.497,1.913-1.876,5.333-2.161,7.388c-0.295,2.116-0.393,4.309-0.377,6.517
			c-0.331,7.527,0.218,15.166,1.433,22.538c0.756,4.586,1.953,9.156,3.988,13.353c1.353,2.788,3.255,6.943,6.26,8.379
			c0.532,0.255,1.026,0.419,1.486,0.507c2.518,1.76,5.747,2.355,8.891,2.436c7.46,0.194,15.046-0.936,22.398-2.072
			c6.888-1.065,13.621-3.004,20.205-5.255c3.971-1.358,8.789-3.039,12.466-5.634c2.678,1.88,5.466,3.607,8.415,5.066
			c7.75,3.832,15.833,2.416,21.102-4.086c5.611-6.925,4.586-16.63,3.548-24.306c-1.485-10.983-3.015-21.927-4.355-32.883
			c4.209-0.126,8.418-0.263,12.628-0.414c28.554-1.025,57.229-1.978,85.688-4.63c14.188-1.32,28.391-2.452,42.59-3.631
			c6.818-0.566,13.639-1.131,20.456-1.722c5.563-0.481,12.032,0.252,17.479-1.384c2.64,1.758,5.311,3.526,8.025,5.186
			c7.239,5.64,14.64,11.101,23.046,14.892c4.761,2.146,9.823,3.479,14.992,4.133c2.574,0.326,6.643,0.357,8.359-2.078
			c4.566-6.484-1.497-18.134-4.306-24.214c-1.845-3.994-4.044-7.789-6.267-11.574c3.074-2.534,5.683-5.658,8.434-8.516
			c3.167-3.288,6.321-6.587,9.495-9.869c1.249-1.445,2.556-2.837,3.92-4.175c-0.699-0.818-1.335-1.693-1.949-2.559
			c-0.039-0.055-0.055-0.116-0.06-0.179c-3.027-3.432-6.064-6.852-9.034-10.332c3.842-5.454,9.126-10.152,13.713-14.973
			C655.304,111.29,661.028,105.414,660.198,100.63z"/>
		<path style="fill:#FFFFFF;" d="M384.83,61.481c20.098-1.723,40.063-4.881,60.018-7.764c4.498-0.65,8.99-1.274,13.543-1.34
			c4.494-0.066,11.546,0.227,8.623,6.344c-3.242,6.789-12.202,10.483-18.051,14.618c-7.403,5.234-14.641,10.765-22.837,14.679
			c-7.724-1.773-15.451-3.525-23.178-5.277c-23.915-5.423-47.832-10.811-71.706-16.399C349.16,65.946,367.006,63.009,384.83,61.481z
			"/>
		<path style="fill:#FFFFFF;" d="M142.64,88.856c5.809-4.484,11.838-8.644,18.074-12.408c4.178,3.82,11.086,5.28,16.207,6.922
			c8.385,2.691,17.111,4.956,25.823,6.285c4.313,0.658,8.667,1.004,12.986,1.62c4.307,0.613,10.525,0.839,11.262,6.321
			c0.452,3.362-1.714,7.229-2.872,10.256c-1.687,4.411-3.712,8.769-7.14,12.108c-5.678,5.532-15.345,6.256-22.817,7.319
			c-9.644,1.372-19.465,0.647-29.031-0.941c-8.295-1.375-16.355-3.77-24.396-6.172c-7.652-2.288-15.26-5.209-20.997-10.962
			c-0.004-0.004-0.009-0.004-0.012-0.008C126.729,101.711,134.676,95.005,142.64,88.856z"/>
		<path style="fill:#FFFFFF;" d="M308.716,248.685c-1.988-3.155-3.216-6.888-4.332-10.426c-2.008-6.357-2.999-13.056-3.402-19.693
			c-0.186-3.061-0.181-6.132-0.121-9.197c0.002-0.069,0.003-0.148,0.004-0.231c0.251-2.379,0.648-4.733,1.309-7.033
			c0.354-1.235,0.759-2.072,1.193-2.608c0.736-0.478,1.691-0.564,2.934-0.031c0.748,0.644,1.486,1.646,2.155,2.738
			c-0.727-0.206-1.519,0.095-2.35,1.231c-3.315,4.533-2.119,12.908-1.619,18.004c0.702,7.142,1.73,13.864,4.244,20.62
			c1.183,3.175,3.28,9.069,7.266,9.436c-0.194,0.513-0.409,1.012-0.652,1.492C313.482,256.665,309.57,250.042,308.716,248.685z"/>
		<path style="fill:#FFFFFF;" d="M315.16,242.699c-0.467,2.218-0.49,4.992-1.133,7.205c-1.613-1.426-2.644-3.653-3.413-5.773
			c2.747-3.668,4.631-8.114,6.501-12.352c0.048,0.444,0.086,0.887,0.126,1.331C316.58,236.313,315.835,239.5,315.16,242.699z"/>
		<path style="fill:#FFFFFF;" d="M317.443,235.714c0.093,1.562,0.146,3.119,0.139,4.672c-0.017,3.444-0.27,7.365-1.464,10.741
			c-0.715-0.232-1.348-0.601-1.912-1.066c0.918-1.711,0.959-4.114,1.413-5.941C316.303,241.364,316.951,238.542,317.443,235.714z"/>
		<path style="fill:#FFFFFF;" d="M310.496,243.798c-0.274-0.777-0.517-1.534-0.74-2.222c-0.436-1.338-0.81-2.683-1.149-4.032
			c2.947-2.439,5.729-5.059,8.261-7.915c0.038,0.293,0.066,0.586,0.101,0.879C314.478,234.683,312.632,239.424,310.496,243.798z"/>
		<path style="fill:#FFFFFF;" d="M316.097,229.402c-0.89,1.059-1.734,2.051-2.78,2.971c-1.729,1.52-3.288,3.201-4.764,4.964
			c-0.455-1.824-0.84-3.658-1.163-5.512c1.809-0.2,3.48-1.027,5.152-1.725c1.262-0.523,2.99-0.73,4.191-1.534
			c0.008,0.052,0.013,0.103,0.02,0.154C316.522,228.917,316.317,229.141,316.097,229.402z"/>
		<path style="fill:#FFFFFF;" d="M307.34,231.524c-0.177-1.036-0.339-2.077-0.487-3.125c0.681,0.088,1.525-0.14,2.085-0.276
			c2.429-0.594,5.112-0.434,7.638-0.716c0.013,0.078,0.021,0.157,0.033,0.236C313.452,228.762,310.482,230.384,307.34,231.524z"/>
		<path style="fill:#FFFFFF;" d="M309.079,224.407c2.002,0.855,4.057,1.578,6.138,2.226c-1.396,0.112-2.8,0.392-4.142,0.597
			c-0.939,0.144-3.033,0.956-4.258,0.926c-0.024-0.18-0.052-0.357-0.076-0.537c-0.195-1.455-0.366-2.916-0.527-4.378
			C306.938,223.86,308.358,224.099,309.079,224.407z"/>
		<path style="fill:#FFFFFF;" d="M306.176,222.89c-0.193-1.802-0.358-3.606-0.508-5.413c1.497,1.711,3.244,3.167,5.081,4.521
			c1.4,1.032,2.703,2.183,4.095,3.227c0.306,0.229,0.57,0.479,0.832,0.727c-1.401-0.531-2.886-0.804-4.311-1.309
			c-1.128-0.4-2.186-0.953-3.328-1.321C307.419,223.122,306.749,223.198,306.176,222.89z"/>
		<path style="fill:#FFFFFF;" d="M311.881,221.915c-2.115-1.59-4.345-2.914-6.237-4.743c-0.065-0.812-0.138-1.624-0.194-2.436
			c-0.043-0.611-0.039-1.972,0.069-3.547c3.706,4.48,6.906,9.418,10.655,13.883c0.031,0.17,0.067,0.338,0.097,0.506
			C314.846,224.315,313.426,223.076,311.881,221.915z"/>
		<path style="fill:#FFFFFF;" d="M310.842,217.092c-1.591-2.052-3.306-4.389-5.31-6.084c0.13-1.753,0.392-3.741,0.867-5.272
			c1.495,2.23,2.662,4.851,4.021,7.143c1.66,2.803,3.517,5.716,5.023,8.697c0.128,0.576,0.275,1.146,0.393,1.725
			C314.303,221.138,312.433,219.143,310.842,217.092z"/>
		<path style="fill:#FFFFFF;" d="M311.781,213.604c-1.488-2.567-3.1-5.987-5.306-8.104c0.571-1.699,1.428-2.741,2.699-2.048
			c0.811,1.499,1.46,2.98,1.8,3.81c1.556,3.804,2.857,7.762,3.887,11.799C313.897,217.202,312.818,215.395,311.781,213.604z"/>
		<path style="fill:#FFFFFF;" d="M346.877,254.265c-6.061,1.221-12.256,1.941-18.41,2.479c-4.097,0.358-9.241,1.164-13.563,0.045
			c2.408-1.296,3.256-5.505,3.617-8.306c1.96-15.188-1.395-31.717-7.787-45.584c-1.144-2.483-3.284-6.292-6.069-6.074
			c0.278-0.107,0.532-0.205,0.724-0.286c1.419-0.606,3.001-0.879,4.507-1.178c1.869-0.372,3.939-0.26,5.829-0.546
			c3.179,2.907,6.373,5.803,9.609,8.665c10.942,9.679,22.104,19.182,33.388,28.577c5.176,4.311,10.368,9.1,16.034,13.279
			C365.979,249.565,356.37,252.352,346.877,254.265z"/>
		<path style="fill:#FFFFFF;" d="M636.487,191.488c0.574,1.844,1.007,3.799,1.151,5.725c0.271,3.602-3.655,3.613-5.996,3.524
			c-4.353-0.165-8.799-1.789-12.801-3.404c-8.501-3.433-16.072-9.002-23.285-14.56c-2.589-1.995-5.153-3.987-7.737-5.945
			c-0.453-0.297-0.884-0.616-1.282-0.967c0,0,0,0-0.001,0.001c-3.665-2.75-7.382-5.421-11.282-7.907
			c-3.671-2.34-7.313-4.704-10.789-7.326c-2.415-1.822-5.778-4.112-6.334-7.344c-0.74-4.3,5.446-5.306,8.484-5.751
			c5.253-0.769,10.523-1.436,15.772-2.243c8.724-1.345,18.823-3.268,27.139,0.689c7.278,3.461,10.308,13.067,14.195,19.51
			C628.713,173.769,633.6,182.199,636.487,191.488z"/>
		<path style="fill:#FFFFFF;" d="M646.946,142.864c-1.267,1.158-2.53,2.321-3.762,3.522c-5.425,5.286-11.853,10.562-16.325,16.798
			c-0.548-0.932-1.093-1.865-1.632-2.801c-2.502-4.345-4.347-8.967-7.511-12.906c-6.489-8.082-17.269-7.837-26.656-6.699
			c-6.767,0.819-13.443,2.116-20.073,3.687c-4.721,1.119-11.389,1.977-15.408,4.961c-4.749,3.524,0.588,8.558,3.59,10.706
			c0.404,0.348,0.806,0.687,1.188,1.018c2.301,1.989,4.732,3.817,7.23,5.567c3.913,3.154,7.859,6.201,12.133,9.011
			c0.47,0.311,0.946,0.628,1.419,0.942c-3.152,0.211-6.313,0.292-9.464,0.619c-7.394,0.768-14.795,1.487-22.198,2.167
			c-14.184,1.302-28.376,2.543-42.553,3.933c-29.424,2.887-59.095,4-88.645,4.623c-4.445,0.093-8.894,0.151-13.345,0.192
			c-1.56-13.028-2.819-26.083-3.393-39.257c-0.301,1.152-0.608,2.304-0.919,3.455c0.061,11.983,0.536,23.907,1.255,35.822h-0.009
			c0.45,5.604,0.692,11.225,1.546,16.787c0.035,0.229-0.143,0.48-0.342,0.61c0.323,4.213,0.665,8.43,1.022,12.649
			c0.688,8.141,2.733,16.858-0.541,24.891c-4.821,11.835-17.657,4.835-24.779-0.304c-19.944-14.388-37.891-31.056-56.143-46.923
			c-1.8-1.564-3.591-3.136-5.38-4.708c-1.655-1.392-3.274-2.823-4.816-4.336c-0.034-0.001-0.07-0.002-0.103-0.003
			c-16.509-14.615-32.646-29.541-48.311-44.801c-0.177-0.173-0.491,0.115-0.343,0.281c13.667,15.32,28.164,30.099,43.325,44.37
			c-19.754-0.566-39.502-1.377-59.193-3.05c-25.28-2.148-50.372-6.295-74.888-12.866c-13.916-3.73-28.053-7.982-40.927-14.535
			c-11.575-5.891-24.06-15.866-20.937-30.384c1.005-4.669,3.03-9.113,5.585-13.288c0.813-0.939,1.652-1.859,2.496-2.775
			c0.014,0.021,0.02,0.042,0.037,0.06c5.799,5.845,13.421,8.724,21.143,11.114c8.614,2.668,17.288,5.048,26.187,6.547
			c10.057,1.692,20.378,2.344,30.569,2.082c7.965-0.206,16.013-1.682,21.512-7.88c4.773-5.38,6.923-13.143,8.705-19.965
			c1.727-6.603-1.58-9.856-7.89-11.172c-10.188-2.124-20.456-3.591-30.587-6.029c-5.286-1.273-10.538-2.688-15.735-4.285
			c-3.674-1.129-8.24-2.139-11.564-4.352c15.102-9.007,31.455-15.624,49.078-18.499c13.423-2.19,27.333-1.266,40.806,0.018
			c13.742,1.311,27.362,3.74,40.868,6.548c27.746,5.767,55.2,12.934,82.896,18.952c32.378,7.037,64.931,13.229,97.18,20.863
			c15.088,3.571,29.966,8.023,45.149,11.174c15.832,3.286,31.653,4.691,47.812,4.099c0.813-0.03,1.356-1.467,0.352-1.513
			c-10.774-0.484-21.578-1.642-32.253-3.343c1.732-0.147,3.476-0.375,5.237-0.705c9.975-1.864,17.359-7.265,23.554-15.126
			c7.744-9.827,14.578-20.523,21.581-30.886c6.161-9.116,12.219-18.293,18.245-27.497c0.548,0.211,1.097,0.421,1.637,0.634
			c7.088,2.793,14.014,5.967,21.139,8.67c6.387,2.423,12.805,4.736,19.214,7.075c-2.004,3.608-3.98,7.231-5.838,10.918
			c-5.091,10.106-8.784,21.166-12.216,31.934c-1.27,3.988-2.371,7.997-2.205,12.213c0.168,4.221,2.656,7.688,5.083,10.928
			C634.311,129.727,640.108,136.835,646.946,142.864z"/>
		<path style="fill:#FFFFFF;" d="M637.802,128.26c-1.501-1.774-2.985-3.561-4.425-5.389c-2.879-3.649-6.033-7.197-6.677-11.972
			c-0.325-2.407-0.035-4.873,0.496-7.309c4.958-0.04,9.771-1.219,14.583-2.374c2.589-0.622,5.19-1.156,7.813-1.613
			c3.205-0.561,10.752-3.137,7.678,4.803c-1.982,5.123-6.596,9.281-10.243,13.233C644.065,120.847,639.87,124.249,637.802,128.26z"
			/>
		<path style="fill:#4B1E09;" d="M309.851,108.44c-7.852-0.661-14.753,5.17-15.415,13.024c-0.66,7.85,5.169,14.753,13.021,15.414
			c7.854,0.661,14.756-5.171,15.416-13.022C323.534,116.004,317.703,109.102,309.851,108.44z"/>
		<path style="fill:#FFFFFF;" d="M307.668,134.38c-6.739-0.567-11.741-6.491-11.175-13.229c0.567-6.738,6.491-11.742,13.229-11.176
			c6.738,0.567,11.742,6.491,11.176,13.23C320.329,129.942,314.407,134.947,307.668,134.38z"/>
		<path style="fill:#4B1E09;" d="M261.772,104.395c-7.854-0.661-14.755,5.17-15.416,13.022c-0.66,7.852,5.17,14.755,13.022,15.415
			c7.853,0.661,14.755-5.171,15.415-13.021C275.454,111.957,269.624,105.055,261.772,104.395z"/>
		<path style="fill:#FFFFFF;" d="M259.588,130.333c-6.738-0.567-11.741-6.49-11.174-13.227c0.566-6.739,6.489-11.743,13.228-11.176
			c6.739,0.567,11.742,6.491,11.174,13.229C272.249,125.896,266.327,130.9,259.588,130.333z"/>
		<path style="fill:#4B1E09;" d="M408.747,116.764c-7.852-0.66-14.754,5.171-15.414,13.022c-0.661,7.853,5.169,14.755,13.021,15.416
			c7.853,0.66,14.754-5.171,15.416-13.021C422.431,124.327,416.601,117.425,408.747,116.764z"/>
		<path style="fill:#FFFFFF;" d="M406.565,142.704c-6.737-0.568-11.741-6.491-11.174-13.229c0.567-6.74,6.489-11.743,13.228-11.177
			c6.739,0.568,11.741,6.491,11.175,13.23C419.227,138.267,413.303,143.27,406.565,142.704z"/>
		<path style="fill:#4B1E09;" d="M360.667,112.718c-7.851-0.662-14.754,5.169-15.414,13.023c-0.661,7.851,5.17,14.754,13.021,15.414
			c7.854,0.661,14.756-5.17,15.417-13.021C374.351,120.281,368.521,113.378,360.667,112.718z"/>
		<path style="fill:#FFFFFF;" d="M358.484,138.656c-6.737-0.566-11.741-6.49-11.175-13.228c0.568-6.738,6.49-11.742,13.228-11.177
			c6.739,0.567,11.742,6.491,11.176,13.231C371.146,134.22,365.224,139.224,358.484,138.656z"/>
		<path style="fill:#4B1E09;" d="M509.092,125.21c-7.853-0.662-14.754,5.169-15.415,13.022c-0.661,7.851,5.17,14.754,13.022,15.415
			c7.854,0.66,14.755-5.17,15.416-13.021C522.775,132.773,516.945,125.87,509.092,125.21z"/>
		<path style="fill:#FFFFFF;" d="M506.909,151.148c-6.738-0.567-11.741-6.491-11.175-13.229c0.566-6.738,6.49-11.743,13.228-11.176
			c6.738,0.567,11.741,6.491,11.175,13.229C519.57,146.712,513.648,151.716,506.909,151.148z"/>
		<path style="fill:#4B1E09;" d="M461.012,121.162c-7.852-0.66-14.754,5.172-15.414,13.023c-0.662,7.851,5.169,14.754,13.021,15.415
			c7.852,0.661,14.754-5.17,15.415-13.021C474.695,128.727,468.865,121.823,461.012,121.162z"/>
		<path style="fill:#FFFFFF;" d="M458.828,147.102c-6.737-0.567-11.741-6.491-11.173-13.227c0.566-6.74,6.489-11.743,13.228-11.177
			c6.739,0.567,11.742,6.491,11.175,13.229C471.491,142.665,465.568,147.669,458.828,147.102z"/>
	</g>
	<g>
		<path style="fill:#4B1E09;" d="M123.185,69.551c1.414-0.485,2.69-1.311,3.3-2.714c0.905-2.082,1.096-4.721-0.368-6.629
			c-1.419-1.85-3.756-2.407-5.949-1.979c0.102-0.758,0.045-1.536-0.242-2.301c-0.935-2.491-3.185-3.888-5.81-3.876
			c-2.262,0.012-4.06,1.671-5.035,3.558c-0.019,0.033-0.035,0.072-0.053,0.108c-1.625-1.798-4.16-2.528-6.742-1.404
			c-0.417,0.182-1.18,0.698-1.936,1.362c-2.024-2.041-6.004-2.898-8.335-2.46c-2.485,0.467-4.743,3.175-5.483,5.434
			c-0.214,0.65-0.23,1.27-0.111,1.856c-1.493-0.005-3.002,0.261-4.342,0.723c-4.333,1.491-6.219,6.985-4.998,11.132
			c1.239,4.205,5.535,6.36,9.416,7.482c4.104,1.188,7.656,0.208,10.565-2.225c1.321,0.988,3.062,1.613,4.278,1.638
			c1.701,0.036,3.886-0.543,5.031-1.888c0.422-0.495,0.719-1.046,0.928-1.629c2.63,1.549,6.645,1.926,9.216,1.578
			c2.593-0.35,5.343-2.896,6.278-5.233C123.157,71.171,123.268,70.33,123.185,69.551z"/>
		<path style="fill:#4B1E09;" d="M91.252,173.49c2.108-0.725,4.011-1.954,4.919-4.046c1.348-3.102,1.633-7.034-0.549-9.879
			c-2.115-2.758-5.598-3.586-8.867-2.947c0.152-1.131,0.068-2.29-0.36-3.431c-1.395-3.713-4.748-5.794-8.661-5.776
			c-3.369,0.017-6.049,2.49-7.504,5.302c-0.027,0.051-0.053,0.108-0.079,0.161c-2.423-2.679-6.2-3.767-10.047-2.092
			c-0.622,0.271-1.759,1.04-2.886,2.03c-3.017-3.042-8.949-4.319-12.422-3.668c-3.705,0.698-7.068,4.732-8.174,8.1
			c-0.318,0.969-0.344,1.892-0.164,2.766c-2.227-0.007-4.476,0.39-6.473,1.077c-6.457,2.222-9.269,10.409-7.449,16.59
			c1.847,6.268,8.25,9.48,14.034,11.153c6.116,1.77,11.411,0.31,15.747-3.315c1.97,1.474,4.561,2.402,6.377,2.441
			c2.535,0.052,5.79-0.811,7.498-2.814c0.629-0.738,1.072-1.56,1.383-2.428c3.919,2.309,9.902,2.87,13.734,2.352
			c3.864-0.52,7.963-4.316,9.357-7.8C91.212,175.903,91.376,174.652,91.252,173.49z"/>
		<path style="fill:#4B1E09;" d="M709.158,128.065c1.228-0.422,2.334-1.138,2.864-2.354c0.784-1.808,0.949-4.096-0.319-5.752
			c-1.232-1.605-3.258-2.088-5.163-1.716c0.089-0.658,0.04-1.332-0.209-1.997c-0.812-2.16-2.764-3.372-5.042-3.363
			c-1.961,0.012-3.522,1.45-4.367,3.088c-0.017,0.028-0.03,0.062-0.047,0.094c-1.409-1.56-3.609-2.192-5.848-1.219
			c-0.362,0.158-1.024,0.606-1.679,1.182c-1.758-1.771-5.211-2.514-7.232-2.134c-2.156,0.405-4.114,2.753-4.758,4.714
			c-0.185,0.564-0.199,1.102-0.095,1.61c-1.297-0.004-2.605,0.225-3.768,0.628c-3.76,1.293-5.396,6.059-4.336,9.656
			c1.074,3.648,4.801,5.518,8.168,6.491c3.561,1.03,6.644,0.181,9.167-1.93c1.146,0.858,2.655,1.399,3.711,1.422
			c1.477,0.03,3.372-0.473,4.365-1.639c0.365-0.431,0.625-0.907,0.806-1.414c2.28,1.345,5.764,1.671,7.994,1.37
			c2.249-0.304,4.636-2.513,5.447-4.541C709.135,129.47,709.231,128.742,709.158,128.065z"/>
		<path style="fill:#4B1E09;" d="M565.063,57.046c2.109-0.724,4.011-1.954,4.92-4.045c1.348-3.103,1.633-7.034-0.548-9.879
			c-2.116-2.758-5.599-3.587-8.869-2.947c0.152-1.132,0.068-2.29-0.36-3.432c-1.394-3.713-4.747-5.793-8.661-5.776
			c-3.368,0.017-6.05,2.491-7.504,5.302c-0.026,0.051-0.053,0.108-0.078,0.162c-2.423-2.679-6.2-3.767-10.048-2.093
			c-0.623,0.272-1.758,1.041-2.885,2.03c-3.018-3.042-8.948-4.319-12.422-3.666c-3.706,0.696-7.069,4.731-8.175,8.098
			c-0.319,0.97-0.343,1.893-0.163,2.766c-2.229-0.006-4.476,0.391-6.473,1.077c-6.457,2.222-9.269,10.41-7.448,16.59
			c1.846,6.27,8.249,9.481,14.032,11.153c6.116,1.769,11.412,0.309,15.747-3.316c1.971,1.474,4.563,2.403,6.378,2.441
			c2.534,0.053,5.789-0.811,7.497-2.813c0.63-0.739,1.073-1.56,1.383-2.429c3.92,2.309,9.903,2.87,13.735,2.353
			c3.864-0.521,7.963-4.315,9.357-7.801C565.023,59.459,565.188,58.208,565.063,57.046z"/>
	</g>
</g>
</svg>
