<?xml version="1.0" encoding="UTF-8"?><svg id="Gráfica" xmlns="http://www.w3.org/2000/svg" viewBox="0 0 723 277"><defs><style>.cls-1{fill:none;stroke:#000;stroke-linecap:round;stroke-linejoin:round;}.cls-2{fill:#fff;}</style></defs><path class="cls-2" d="M399.78,249.5c-8.78,0-15.92-6.99-15.92-15.59,0-2.69.7-5.29,2.04-7.62-20.17-2-40.7-5.24-54.52-7.64-.47-.08-.94-.23-1.43-.44-33.92-.25-58.98-.5-70.6-.71-30.12-.55-71.67-9.2-111.19-23.15l-66.21,9.07c-2.51.34-5.08.52-7.62.52-4.58,0-9.17-.56-13.61-1.68l-8.93-2.23c-1.33-.33-2.2-1.48-2.14-2.86.05-1.37,1-2.45,2.35-2.69l67.78-11.57c-10.42-4.89-21.46-11.19-21.28-15.84.04-1.05.64-2.51,3.25-3.45,3.1-1.12,8.29-2.35,15.43-3.65l-32.4-115.19-52.73-5.31c-.95-.07-1.67-.8-1.73-1.77-.06-.98.57-1.79,1.52-1.98l18.53-3.71c.13-.02.25-.04.37-.04l32.51,1.53c7.8-2,18.32-3.71,29.66-4.82,8.02-.78,15.85-1.2,22.62-1.2,13.32,0,20.21,1.45,20.49,4.31.02.18.01.37-.02.55,0,0,25.84-1.01,25.84-1.01,1.21,0,2.1.81,2.2,1.94.1,1.12-.63,2.08-1.74,2.29l-46.92,8.6c12.13,18.52,48.88,72.68,67.74,79.63,21.41,7.89,87.48,18.82,100.77,20.98l41.33-.96c7.09-2.06,21.11-5.95,36.97-9.28l-.69-11.51c-.09-1.51,1.01-2.86,2.51-3.07.14-.02.28-.03.42-.03,1.44,0,2.66,1.04,2.89,2.46l1.74,10.77c15.45-2.96,28.54-4.46,38.92-4.46,1.24,0,2.46.02,3.63.06,2.28.08,4.57.23,6.97.43.28-.27.57-.51.87-.73,9.37-6.58,28.58-11.53,45.68-11.77.48,0,.96,0,1.43,0,.81,0,1.61,0,2.41.02l30.61-8.26-1.62-11.97c-.17-1.25.67-2.44,1.9-2.71.17-.04.35-.06.53-.06,1.13,0,2.11.77,2.38,1.88l2.69,11.28,64.79-17.48c.25-.07.51-.1.77-.1.14,0,.28,0,.42.03l12.22,1.75c1.32.19,2.33,1.2,2.5,2.52.18,1.32-.52,2.57-1.74,3.1l-51.63,22.56c-.07.52-.35,1-.8,1.32l-15.54,10.99c1.64,1.54,2.51,3.31,2.47,5.06-.02,1.01-.35,2-.96,2.91,41.31-.87,65.81-1.3,72.84-1.3,14.3,0,27.22,5.97,37.35,17.27.43.48.84.95,1.23,1.42l.12.14c.39.47.72.87,1.03,1.26l.22.28c.29.37.57.73.85,1.1l.22.29c.27.36.53.71.78,1.06l.19.27c.25.36.5.71.74,1.06l.14.2c.27.4.53.79.78,1.17.52.81.98,1.55,1.39,2.23.57.95,1.02,1.76,1.38,2.39,1.77.31,8.03,1.54,14.93,4.56.37.16.73.32,1.1.49,0,0,1.17.56,1.38.66l.61.31c.29.15.53.27.78.4,0,0,1.15.63,1.38.76l.62.37c.25.15.5.3.75.45l.62.39c.25.16.49.32.74.48.19.12.37.25.55.38.3.21.54.38.78.55.2.15.4.3.6.45.24.18.47.36.7.54.2.16.39.31.58.47.23.19.46.38.68.58.19.16.38.33.56.5.22.2.44.41.66.62l.09.09c.15.14.3.29.44.43.22.22.43.44.64.66l.11.12c.13.14.26.28.39.42.21.24.42.48.62.72l.12.14c.11.13.23.27.33.41.18.23.35.46.53.69l.21.28c.09.12.18.24.27.36.21.3.42.62.62.93,0,0,.24.37.31.47.29.48.57.97.83,1.47.24.47.46.93.65,1.39.05.13.1.25.15.37.16.4.31.8.43,1.2l.06.17c.14.45.24.9.33,1.34.02.1.04.2.06.3.07.41.12.78.16,1.14l.03.26c.03.43.04.86.03,1.28v.24c-.04.41-.07.75-.12,1.09l-.04.3c-.07.41-.16.81-.27,1.21l-.05.18c-.12.4-.24.73-.36,1.05l-.12.31c-.16.38-.34.76-.54,1.13l-.07.13c-.21.37-.4.69-.61,1l-.2.3c-.25.35-.5.7-.79,1.05-.32.38-.61.7-.92,1.02l-.28.28c-.28.28-.58.57-.89.84l-.15.14c-.35.31-.72.61-1.11.91l-.33.25c-.33.24-.66.48-1,.72l-.27.18c-.42.28-.86.56-1.3.83l-.32.19c-.42.24-.79.46-1.18.66l-.37.2c-.48.25-.97.5-1.48.74l-.37.17c-.42.19-.84.39-1.28.57l-.45.19c-.54.23-1.09.45-1.65.67l-.32.12c-.48.18-.97.36-1.47.53l-.51.18c-.59.2-1.19.4-1.81.59-6.95,2.14-15.44,3.59-24.58,4.19v8.45c0,.27-.11.53-.31.72-.19.18-.44.28-.69.28-.01,0-3.31-.12-3.31-.12.9,1.7,1.37,3.57,1.37,5.5,0,6.63-5.51,12.02-12.27,12.02s-12.28-5.39-12.28-12.02c0-2.23.64-4.4,1.82-6.29l-7.49-.27c-.54-.02-.96-.46-.96-1v-6.61c-17.41.14-40.89.21-69.84.21-16.96,0-35.73-.02-55.79-.07-5.73,3.31-17.13,5.99-32.2,7.6-2.97,4.34-7.87,6.91-13.21,6.91-4.64,0-8.99-1.95-12.02-5.37-2.62.06-5.3.08-7.98.08-1.24,0-2.49,0-3.74-.02-1.35-.01-2.67-.03-3.99-.06.75,1.84,1.15,3.82,1.15,5.8,0,8.6-7.14,15.59-15.92,15.59Z"/><path d="M135.55,28.5c11.53,0,19.28,1.2,19.5,3.41.05.49-.29,1-.95,1.53l27.8-1.09s.04,0,.06,0c1.35,0,1.56,1.99.19,2.24l-48.4,8.87c13.39,20.53,49.8,74.19,69.05,81.28,21.61,7.96,88.53,19.01,101.04,21.04,11.98-.28,26.08-.61,41.55-.96,6.95-2.03,21.51-6.07,37.87-9.47l-.74-12.37c-.06-1,.66-1.88,1.65-2.02.09-.01.18-.02.27-.02.93,0,1.75.68,1.9,1.62l1.9,11.79c13.48-2.62,27.75-4.64,39.74-4.64,1.22,0,2.42.02,3.59.06,2.55.09,5.01.26,7.4.47.31-.34.66-.66,1.06-.94,8.56-6.01,27.03-11.34,45.12-11.59.48,0,.95,0,1.42,0,.85,0,1.69,0,2.53.02l31.6-8.53-1.73-12.84c-.1-.74.39-1.44,1.12-1.6.1-.02.21-.03.31-.03.65,0,1.25.45,1.4,1.11l2.93,12.28,65.79-17.75c.17-.04.34-.07.51-.07.09,0,.18,0,.27.02l12.22,1.75c1.94.28,2.3,2.93.5,3.71l-52.28,22.84c.15.41.04.88-.33,1.14l-16.6,11.74c1.9,1.43,3.15,3.23,3.11,5.1-.03,1.52-.91,2.88-2.29,3.99,38.21-.8,67.28-1.35,75.17-1.35,17.41,0,29.24,8.72,36.61,16.94.42.47.82.93,1.21,1.4.06.07.11.13.17.2.33.4.65.79.97,1.18.07.09.14.18.21.27.29.37.57.73.84,1.09.07.1.14.19.21.29.26.35.52.7.77,1.05.06.09.13.17.19.26.25.36.5.71.73,1.05.04.07.09.13.14.2.27.4.53.78.77,1.16,0,0,0,0,0,.01.51.79.96,1.52,1.36,2.18,0,0,0,.01.01.02t0,0c.68,1.14,1.21,2.09,1.58,2.77,0,0,7.21,1.09,15.17,4.57.36.16.72.32,1.08.48.19.09.37.18.56.27.27.13.53.25.8.38.2.1.4.2.6.31.25.13.51.26.76.39.2.11.41.22.61.33.25.14.5.27.75.42.2.12.41.24.61.36.25.15.49.29.73.44.2.13.4.26.61.38.24.15.48.31.72.47.2.13.4.27.6.41.24.16.47.33.7.5.2.14.39.29.58.43.23.17.46.35.68.53.19.15.38.3.57.46.22.18.44.37.66.56.18.16.36.32.54.48.22.2.43.4.64.6.17.17.35.33.52.5.21.21.41.43.62.64.16.17.32.34.48.52.2.23.4.46.6.7.15.17.3.35.44.53.2.25.39.51.58.77.13.17.26.34.38.52.21.29.4.6.59.9.1.15.2.3.3.45.28.46.55.93.8,1.42.23.44.43.88.62,1.32.05.12.1.23.14.34.15.38.29.76.41,1.14.02.05.04.11.05.16.13.42.23.83.31,1.25.02.11.04.21.06.32.06.34.11.68.14,1.02,0,.08.02.16.02.24.03.4.04.79.02,1.18,0,.1-.01.19-.02.28-.02.32-.05.63-.09.94-.01.09-.02.18-.04.28-.06.37-.14.75-.24,1.11-.02.08-.05.16-.07.23-.09.3-.19.6-.31.9-.04.1-.07.19-.11.29-.15.35-.31.7-.5,1.05-.03.05-.06.11-.09.16-.17.3-.35.59-.54.88-.06.09-.13.19-.19.28-.23.33-.47.66-.74.98-.01.02-.03.04-.05.05-.26.31-.53.61-.82.91-.09.09-.17.18-.26.27-.27.27-.55.54-.85.8-.05.04-.09.09-.14.13-.34.3-.7.59-1.07.87-.1.08-.21.16-.32.24-.31.23-.63.46-.96.69-.09.06-.17.12-.26.18-.41.27-.83.54-1.26.8-.12.07-.24.14-.36.21-.36.21-.72.41-1.09.62-.12.06-.24.13-.36.19-.47.25-.95.49-1.45.73-.12.06-.24.11-.36.17-.41.19-.83.38-1.25.56-.15.06-.29.13-.44.19-.53.22-1.07.44-1.62.65-.1.04-.21.08-.31.12-.48.18-.96.35-1.45.53-.17.06-.34.12-.51.17-.58.2-1.18.39-1.78.58h0c-6.99,2.16-15.39,3.57-24.51,4.16-.24.02-.5.03-.77.05v9.4l-5.18-.19c1.4,1.84,2.24,4.11,2.24,6.57,0,6.09-5.05,11.02-11.27,11.02s-11.27-4.94-11.27-11.02c0-2.76,1.05-5.28,2.76-7.22l-9.4-.34v-7.61c-18.51.15-43.11.22-70.81.22-17.69,0-36.65-.03-56.09-.07-5.65,3.37-17.3,6.07-32.5,7.65-2.64,4.11-7.3,6.85-12.64,6.85-4.67,0-8.83-2.1-11.57-5.38-2.75.06-5.56.1-8.42.1-1.24,0-2.49,0-3.74-.02-.03,0-.05,0-.08,0-1.75-.02-3.51-.05-5.29-.09-.08,0-.15,0-.23,0,1.11,2.04,1.74,4.37,1.74,6.84,0,8.06-6.68,14.59-14.92,14.59s-14.92-6.53-14.92-14.59c0-3.16,1.04-6.07,2.78-8.46-20.24-1.94-41.06-5.18-56.09-7.78-.51-.09-.96-.25-1.38-.45-33.04-.24-58.91-.49-70.8-.71-34.14-.62-77.97-11.46-111.1-23.17l-66.45,9.1c-2.48.34-4.98.51-7.48.51-4.5,0-8.99-.55-13.37-1.65l-8.93-2.23c-1.92-.48-1.82-3.25.14-3.58l70.97-12.11c-18.86-8.51-28.66-16.04-21.04-18.79,3.36-1.21,9.05-2.5,16.35-3.8l-32.88-116.91-53.41-5.38c-1.05-.08-1.14-1.58-.11-1.78l18.53-3.71c.06-.01.12-.02.18-.02.01,0,.03,0,.04,0l32.57,1.53c7.42-1.92,17.93-3.69,29.65-4.83,8.27-.81,16-1.19,22.53-1.19M135.55,26.5s0,0,0,0c-6.81,0-14.67.41-22.72,1.2-11.31,1.1-21.83,2.81-29.66,4.81l-32.27-1.52s-.11,0-.14,0c-.19,0-.38.02-.57.06l-18.53,3.71c-1.44.29-2.42,1.56-2.33,3.03.09,1.45,1.2,2.59,2.65,2.71l52.03,5.24,31.92,113.48c-6.64,1.24-11.52,2.41-14.51,3.49-3.14,1.13-3.86,2.99-3.91,4.36-.06,1.55-.23,6,19.01,15.42l-64.68,11.04c-1.81.31-3.12,1.8-3.19,3.63-.07,1.83,1.12,3.42,2.9,3.86l8.93,2.23c4.53,1.13,9.19,1.71,13.85,1.71,2.58,0,5.19-.18,7.75-.53l65.97-9.04c39.54,13.94,81.1,22.58,111.27,23.13,11.58.21,36.58.46,70.42.71.49.2.97.34,1.46.42,13.51,2.34,33.41,5.49,53.13,7.5-.97,2.12-1.48,4.41-1.48,6.77,0,9.15,7.59,16.59,16.92,16.59s16.92-7.44,16.92-16.59c0-1.62-.25-3.23-.72-4.78.82.01,1.64.02,2.47.03h.09c1.26.01,2.51.02,3.76.02,2.53,0,5.06-.03,7.54-.08,3.2,3.42,7.69,5.36,12.45,5.36,5.51,0,10.58-2.58,13.76-6.96,14.78-1.6,26.04-4.26,31.9-7.54,20,.05,38.69.07,55.56.07,28.38,0,51.51-.07,68.81-.2v5.6c0,1.08.85,1.96,1.93,2l5.88.22c-.77,1.67-1.18,3.49-1.18,5.35,0,7.18,5.96,13.02,13.27,13.02s13.27-5.84,13.27-13.02c0-1.54-.27-3.03-.8-4.44l1.67.06s.05,0,.07,0c.52,0,1.01-.2,1.39-.56.39-.38.61-.9.61-1.44v-7.52c8.86-.64,17.09-2.08,23.87-4.17.62-.19,1.23-.39,1.84-.6l.52-.18c.51-.18,1.01-.36,1.5-.54l.12-.04.2-.08c.57-.22,1.13-.45,1.68-.68l.34-.15.12-.05c.44-.19.88-.39,1.3-.59l.13-.06.25-.12c.52-.25,1.02-.5,1.51-.76l.25-.14.12-.07c.4-.21.78-.43,1.16-.65l.1-.06.28-.16c.47-.28.92-.57,1.34-.85.07-.04.13-.09.19-.13l.09-.06c.35-.24.7-.49,1.03-.74l.05-.04c.1-.07.2-.15.29-.22.43-.34.81-.65,1.16-.95l.12-.11c.34-.31.65-.6.96-.91.1-.1.19-.2.29-.29.34-.36.64-.68.89-.99.03-.03.05-.06.07-.09.27-.32.54-.69.83-1.11.07-.1.15-.21.22-.32.23-.34.44-.68.62-1.01.05-.08.08-.13.11-.19.21-.38.4-.78.58-1.22.04-.09.07-.18.11-.27l.03-.07c.14-.35.26-.7.36-1.05l.02-.06c.02-.07.05-.15.07-.22.12-.42.21-.87.29-1.31.01-.08.03-.17.04-.25v-.07c.06-.37.1-.74.12-1.11v-.08c.01-.08.02-.17.02-.25.01-.47,0-.93-.03-1.38,0-.07-.01-.15-.02-.22v-.06c-.04-.38-.1-.78-.17-1.18v-.07c-.03-.1-.05-.2-.07-.3-.1-.5-.22-.97-.35-1.42-.02-.06-.04-.12-.06-.17-.13-.42-.29-.85-.47-1.3-.05-.13-.1-.26-.16-.39-.23-.55-.45-1.01-.68-1.46-.26-.5-.55-1.02-.87-1.53-.07-.11-.14-.23-.22-.34l-.1-.15c-.22-.34-.42-.66-.64-.97-.09-.14-.19-.27-.29-.4l-.12-.16-.05-.06c-.19-.26-.38-.52-.58-.77-.11-.14-.23-.29-.35-.43l-.12-.14c-.23-.27-.43-.51-.64-.75-.14-.15-.28-.31-.42-.46l-.09-.1c-.22-.23-.43-.46-.66-.69-.17-.17-.35-.34-.53-.51-.25-.24-.47-.45-.7-.66-.19-.17-.38-.34-.58-.51-.23-.2-.47-.4-.7-.6-.2-.16-.4-.32-.6-.48-.24-.19-.48-.37-.72-.56-.2-.15-.41-.31-.61-.46-.25-.18-.49-.35-.74-.52-.21-.14-.41-.29-.62-.43-.25-.17-.5-.33-.76-.49l-.09-.06c-.18-.12-.36-.23-.55-.35-.25-.16-.51-.31-.77-.46l-.13-.08c-.17-.1-.34-.2-.5-.3-.24-.14-.48-.27-.72-.4l-.06-.03-.17-.09c-.15-.08-.31-.17-.46-.25-.23-.12-.45-.24-.68-.35l-.11-.06-.2-.1c-.14-.07-.28-.15-.42-.22-.23-.11-.46-.22-.69-.33l-.14-.07-.2-.1c-.13-.06-.25-.12-.38-.18-.38-.17-.75-.34-1.12-.5-6.47-2.83-12.4-4.11-14.68-4.54-.31-.55-.69-1.22-1.15-1.98,0-.01-.01-.02-.02-.03-.45-.75-.92-1.5-1.4-2.24,0,0-.01-.02-.02-.02-.25-.38-.51-.78-.78-1.18l-.08-.11-.06-.09c-.24-.36-.49-.72-.75-1.08l-.13-.19-.06-.08c-.25-.35-.52-.71-.79-1.08l-.22-.3c-.28-.37-.57-.74-.86-1.12l-.07-.09-.15-.19c-.32-.4-.65-.81-1-1.22l-.06-.08-.11-.13c-.4-.48-.82-.96-1.25-1.44-10.33-11.52-23.5-17.61-38.1-17.61-6.93,0-30.88.43-71.21,1.27.21-.6.32-1.22.33-1.86.04-1.71-.64-3.4-1.95-4.93l14.6-10.32c.51-.36.87-.86,1.07-1.42l51.19-22.36c1.63-.71,2.57-2.38,2.33-4.15-.24-1.77-1.59-3.12-3.35-3.38l-12.22-1.75c-.18-.03-.37-.04-.56-.04-.35,0-.69.05-1.03.14l-63.8,17.22-2.45-10.28c-.37-1.56-1.75-2.64-3.35-2.64-.25,0-.5.03-.74.08-1.74.38-2.91,2.06-2.67,3.82l1.5,11.1-29.63,8c-.76-.01-1.52-.02-2.28-.02-.48,0-.96,0-1.45,0-17.28.24-36.73,5.27-46.25,11.95-.22.16-.44.33-.65.51-2.27-.19-4.43-.32-6.58-.4-1.18-.04-2.41-.07-3.66-.07-10.21,0-23.02,1.44-38.1,4.29l-1.57-9.76c-.31-1.91-1.94-3.3-3.87-3.3-.19,0-.37.01-.56.04-2.01.29-3.49,2.1-3.36,4.12l.64,10.65c-15.45,3.27-29.06,7.04-36.07,9.08-15.29.35-29.23.68-41.11.95-13.48-2.19-79.21-13.08-100.49-20.92-18.17-6.69-53.57-58.45-66.42-77.98l45.44-8.33c1.63-.3,2.7-1.71,2.55-3.36-.15-1.65-1.46-2.85-3.11-2.85-.04,0-.09,0-.13,0l-24.84.97c-.57-2.49-4.06-3.4-7.1-3.92-3.5-.59-8.45-.9-14.32-.91h0Z"/><path class="cls-1" d="M525.2,107.79l65.33-17.43c.26-.07.52-.09.78-.05l12.22,1.75c1.94.28,2.3,2.93.5,3.71l-51.84,22.73"/><path class="cls-1" d="M620.96,233c0-6.09,5.05-11.02,11.27-11.02s11.27,4.94,11.27,11.02"/><path class="cls-1" d="M630.23,239.51c-3.18,0-5.76-2.8-5.76-6.26s2.58-6.26,5.76-6.26,5.76,2.8,5.76,6.26"/><path class="cls-1" d="M155.33,33l26.57-.65c1.4-.05,1.63,1.99.25,2.24l-47.76,9.16"/><path class="cls-1" d="M522.33,123.9c-9.13-3.99-22.41-6.4-37.17-6.19-18.09.25-36.56,5.58-45.12,11.59"/><path class="cls-1" d="M516.2,137.93c-.53-7.16,2.15-14.07,5.83-14.34"/><path class="cls-1" d="M523.21,128.15l-4.23-31.79c-.1-.74.39-1.44,1.12-1.6.77-.17,1.53.31,1.71,1.07l7.98,32.68"/><path class="cls-1" d="M530.94,129.23l19.44-11.12c.44-.25,1-.12,1.29.3.3.44.19,1.04-.24,1.34l-15.66,11.47"/><path class="cls-1" d="M512.41,140.84l8.83-6.1"/><path class="cls-1" d="M535.32,140.64c2.01-1.22,2.57-2.15,2.61-4.05.09-4.17-6.15-7.98-11.87-8.1-.98-.02-1.92.06-2.82.23-1.03,2.09-1.65,4.56-1.71,7.23-.03,1.33.38,3.56.61,4.79"/><path class="cls-1" d="M524.98,131.63c.53-1.59,3.08-2.17,5.7-1.29,2.62.87,4.31,2.87,3.78,4.46-.53,1.59-3.08,2.17-5.7,1.29"/><path class="cls-1" d="M482.2,141.7c65.33-1.44,116.96-2.47,128.62-2.47,29.13,0,42.65,24.42,45.77,30.05,0,0,24.97,3.76,33.29,19.72,8.32,15.97-13.52,26.3-42.65,28.18-13.5.87-80.26.99-160.13.78"/><path class="cls-1" d="M123.52,183.75c-20.52-8.97-29.37-16.3-21.42-19.17,20.81-7.51,131.08-17.84,161.25-17.84,0,0,25.78-.71,84.17-2.05"/><path class="cls-1" d="M331.8,217.35c-42.44-.27-58.25-.59-72.44-.84-35.4-.64-78.73-10.91-112.23-23.12"/><path class="cls-1" d="M132.39,40.42s46.53,75.52,70.41,84.32c23.88,8.8,100.94,20.67,100.94,20.67"/><line class="cls-1" x1="118.58" y1="161.2" x2="85.83" y2="44.42"/><path class="cls-1" d="M649.68,157.48c-3.98,1.64-11.02,2.73-16.46,3.16l4.28,12.32c6.39-.45,14.12-2.05,19.08-4.31"/><path class="cls-1" d="M86.5,33.87c10.02-1.83,11.72-2.83,26.53-4.18,22.88-2.09,41.69-1.24,42.02,2.22.34,3.45-17.93,8.06-40.8,10.29-7.15.7-16.31,1.14-22.22,1.23"/><path d="M50.76,32.98s.03,0,.04,0l55.71,2.63c1.43.07,1.69,2.07.33,2.5l-18.8,6.01-55.87-5.63c-1.05-.08-1.14-1.58-.11-1.78l18.53-3.71c.06-.01.12-.02.18-.02M50.76,31.98c-.12,0-.25.01-.37.04l-18.53,3.71c-.96.19-1.59,1.01-1.52,1.98.06.98.78,1.71,1.76,1.78l55.85,5.63s.07,0,.1,0c.1,0,.21-.02.3-.05l18.8-6.01c1.07-.34,1.72-1.36,1.57-2.47-.15-1.11-1.03-1.93-2.16-1.98l-55.71-2.63s-.07,0-.09,0h0Z"/><path class="cls-1" d="M383.16,135.43c-23.21,4.77-42.09,10.68-42.09,10.68"/><path class="cls-1" d="M482.86,142.03s-17.34-11-51.29-12.26c-12.95-.48-27.91,1.57-43.05,4.55"/><path class="cls-1" d="M383.49,139.04l-51.16,8.54"/><path class="cls-1" d="M424.07,155.82l28.8-4.21c4.29-.59,4.39-6.74.13-7.48-17.96-3.11-42.75-6.76-60.24-6.76l-3.9.73"/><path class="cls-1" d="M392.52,160.29l26.89-3.85"/><path class="cls-1" d="M387.47,225.54c-21.14-1.89-40.18-5.14-55.93-7.87-5.4-.94-5.68-8.59-.36-9.91,21.75-5.38,55.87-12.46,82.72-11.84,42.88,1,77.48,8.79,77.28,17.39-.2,8.6-35.13,14.77-78.01,13.76"/><path class="cls-1" d="M392.52,214.68l-1.49-.03c-5.98-.26-11.14,4.1-11.99,9.9"/><path class="cls-1" d="M413.19,227.08c7.17.17,14.11.13,20.71-.08-.33-5.87-5.09-10.68-11.08-10.95l-24.99-1.1"/><path class="cls-1" d="M250.78,180.16c0,2.51-2.05,4.56-4.56,4.56h-.86c-2.51,0-4.57-1.59-4.57-4.1"/><path class="cls-1" d="M278.14,177.15v3c0,2.51-2.05,4.56-4.56,4.56h-.86c-2.51,0-4.56-2.05-4.56-4.56v-3"/><path class="cls-1" d="M414.9,177.15v3c0,2.51-2.05,4.56-4.56,4.56h-.86c-2.51,0-4.56-2.05-4.56-4.56v-3c0-2.51,2.05-4.56,4.56-4.56"/><path class="cls-1" d="M437.69,184.72h-.86c-2.51,0-4.56-2.05-4.56-4.56v-3c0-2.51,2.05-4.56,4.56-4.56h.86c2.51,0,4.56,2.05,4.56,4.56v3"/><path class="cls-1" d="M459.62,180.16v-3c0-2.51,2.05-4.56,4.56-4.56h.86c2.51,0,4.56,2.05,4.56,4.56v3c0,2.51-2.05,4.56-4.56,4.56h-.86"/><path class="cls-1" d="M491.53,172.59h.86c2.51,0,4.56,2.05,4.56,4.56v3c0,2.51-2.05,4.56-4.56,4.56h-.86c-2.51,0-4.56-2.05-4.56-4.56v-3"/><path class="cls-1" d="M524.31,177.15v3c0,2.51-2.05,4.56-4.56,4.56h-.86c-2.51,0-4.56-2.05-4.56-4.56v-3c0-2.51,2.05-4.56,4.56-4.56h.86"/><path class="cls-1" d="M547.1,184.72h-.86c-2.51,0-4.56-2.05-4.56-4.56v-3c0-2.51,2.05-4.56,4.56-4.56h.86c2.51,0,4.56,2.05,4.56,4.56v3"/><path class="cls-1" d="M397.95,219.39c.91-.17.87-.07,1.83-.07,8.24,0,14.92,6.53,14.92,14.59"/><path class="cls-1" d="M384.48,233.96c0-6.18,3.43-11.23,8.98-13.36"/><path class="cls-1" d="M398.53,225.95c4.21.36,6.23,3.71,6.23,8.29s-3.41,8.29-7.63,8.29-7.63-3.71-7.63-8.29c0-3.87,1.6-6.6,4.9-7.82"/><path class="cls-1" d="M348.77,198.84c14.81.58,25.1-.16,35.48-4.59"/><path class="cls-1" d="M277.21,175.63c11.04,8.55,38.41,21.36,62.52,22.82"/><path class="cls-1" d="M384.24,159.98c-11.76-6.21-29.2-10.74-48.86-11.93-24.11-1.46-46.18,1.88-58.17,9.04"/><path class="cls-1" d="M374.68,177.81c0-9.58,5.25-17.58,10.18-17.58"/><path class="cls-1" d="M389.02,191.15c-1.54,2.43-2.99,3.07-5.13,3.07-2.94,0-6-3.58-7.63-7.85"/><path class="cls-1" d="M385.08,165.82l-2.56-42.84c-.06-1,.66-1.88,1.65-2.02,1.04-.15,2.01.56,2.17,1.6l7.05,44.26"/><path class="cls-1" d="M395.56,167.7l26.61-12.66c.61-.29,1.34-.06,1.68.53.35.61.15,1.4-.46,1.77l-22.74,13.75"/><path class="cls-1" d="M396.28,186.3l1.92,39.98c.05,1-.67,1.88-1.67,2.01-1.04.14-2-.58-2.16-1.62l-6.07-39.37"/><path class="cls-1" d="M382.04,183.5l-41.48,18.73c-.9.44-1.98.11-2.49-.76-.53-.91-.22-2.07.68-2.6l42.79-24.8"/><path d="M386.99,166.37c.58,0,1.17.03,1.77.09,7.61.74,15.54,6.42,15,11.97-.49,5.03-7.77,8.21-14.8,8.21-.72,0-1.44-.03-2.15-.1-1.3-.13-2.53-.39-3.7-.75-1.03-2.93-1.47-6.31-1.13-9.85.34-3.54,1.42-6.77,3-9.45.66-.07,1.32-.11,2.01-.11M386.99,165.37c-.7,0-1.41.04-2.11.11-.31.03-.6.21-.76.49-1.7,2.89-2.78,6.3-3.13,9.86-.35,3.56.06,7.12,1.18,10.28.11.3.35.53.65.62,1.28.39,2.59.66,3.9.79.73.07,1.49.11,2.25.11,7.33,0,15.24-3.41,15.79-9.11.28-2.93-1.48-6.09-4.83-8.67-3.13-2.41-7.16-4.01-11.07-4.38-.61-.06-1.24-.09-1.86-.09h0Z"/><path class="cls-1" d="M387.01,170.54c.86-2.06,4.32-2.58,7.72-1.16,3.4,1.42,5.45,4.25,4.58,6.31-.86,2.06-4.32,2.58-7.72,1.16"/><path class="cls-1" d="M622.88,174.52c3.31-.21,6.49-.58,9.52-1.09l-4.44-12.77c-1.86.14-3.8.2-5.8.18l.59,11.17"/><path class="cls-1" d="M616.6,160.62c-2.5-.19-5.1-.5-7.79-.95-2.31-.39-4.65.58-5.99,2.51l-4.05,5.83c-1.46,2.11-.24,5.05,2.3,5.45,5.72.89,11.14,1.28,16.27,1.25,0,0-.4-7.82-.61-11.81"/><path class="cls-1" d="M334.44,161.92c-1.74-1.64-3.68-3.09-5.78-4.36-7.88-4.77-17.3-6.3-26.38-4.75l-250.11,42.68c-1.96.33-2.06,3.1-.14,3.58l8.93,2.23c6.81,1.7,13.89,2.09,20.85,1.14l250.68-34.34"/><path class="cls-1" d="M671.52,173.74c-3.99,4.94-6.48,11.85-6.48,19.51s2.58,14.81,6.7,19.76"/></svg>