<?xml version="1.0" encoding="UTF-8"?><svg id="Gráfica" xmlns="http://www.w3.org/2000/svg" viewBox="0 0 723 277"><defs><style>.cls-1{fill:none;stroke:#000;stroke-linecap:round;stroke-linejoin:round;}.cls-2{fill:#fff;}</style></defs><path class="cls-2" d="M452.46,274.5c-16.48,0-30.79-15.88-32.58-36.14-1.03-11.65,2.17-22.88,8.78-30.93l-6.07-11.65c-17.08,1.26-41.21,2.51-69.85,3.6-33.99,4.87-60.09,7.34-77.6,7.34-2.22,0-4.33-.04-6.28-.12-.62,1.49-1.51,3.05-2.5,4.38-1.08,1.47-2.53,2.94-3.98,4.01-.53.42-1.03.73-1.39.96l-.65.41c-.53.33-1.13.51-1.76.51-.83,0-1.62-.31-2.22-.87-.65-.59-1.02-1.41-1.06-2.28-.04-.88.27-1.72.86-2.37l.62-.67c.19-.21.44-.47.67-.79.73-.91,1.36-2.02,1.76-3.05.14-.37.27-.75.38-1.14-1.5-.48-2.92-1.71-4.26-3.64-24.03.42-46.07.64-65.53.64-26.06,0-59.26-.4-69.41-2.32-12.72-2.41-15.33-7.4-15.28-11.17.11-7.43,11.09-15.69,23.52-17.67,3.48-.56,12.29-.83,26.92-.83s33.64.26,59.82.78l-9.24-102.53c-37.27-3.33-83.48-7.81-94.01-10.45-15.85-3.96-18.16-11.88-18.13-16.25.09-11.91,17.74-28.04,56.96-37.21,7.29-1.7,15.71-2.53,25.75-2.53,32.11,0,74.45,8.66,119.27,17.83,44.64,9.13,90.79,18.57,131.5,20.51,24.43,1.16,47.54,1.76,69.89,2.34,6.85.18,13.54.35,20.03.53-4.78-13.06-11.38-33.64-6.34-35.68.26-.1.54-.16.82-.16,4.02,0,11.18,12.22,21.28,36.33,47.24,1.64,78.98,4.71,91.25,14.78,3.6,2.96,5.09,6.1,4.44,9.35-1.83,9.13-20.62,16.68-36.35,21.45l-7.19,68.16c11.15-.98,17.45-1.42,20.35-1.42.39,0,.72,0,.99.02,6.42.38,10.97,3.43,11.59,7.79.48,3.4-1.65,7.96-9.07,10.58-3.32,1.17-12.34,2.74-26.82,4.67,3.69,12.66,6.98,27.5,2.69,29.02-.23.08-.48.12-.73.12-1.28,0-5.14,0-16.03-27.36-11.34,1.37-24.78,2.88-39.99,4.47l1.76,5.4c2.57-1.18,5.28-1.9,8.05-2.15.71-.06,1.43-.09,2.14-.09,15.37,0,28.71,14.72,30.37,33.52,1.75,19.86-9.98,37.17-26.15,38.6-.71.06-1.43.09-2.14.09-14.6,0-27.37-13.15-30.03-30.74l-29.51,2.46c.88,10.28-1.51,20.22-6.74,28.02-5.29,7.91-12.86,12.67-21.3,13.42-.76.07-1.53.1-2.29.1ZM465.16,201.25c7.64,4.93,13.48,13.38,16.16,23.38l30.5-2.54c.14-3.74.76-7.37,1.83-10.82l-28.96-21.04c-5.71.55-11.42,1.08-17.09,1.61-.77,2.84-1.52,5.63-2.22,8.28l-.22,1.13ZM517.11,203.37c.72-1.22,1.51-2.4,2.37-3.51l-5.68-12.5c-5.43.55-10.93,1.1-16.47,1.64l19.78,14.37ZM432.71,195.03c.45,1.17.83,2.32,1.2,3.45.35,1.06.68,2.08,1.06,3.06,3.95-2.76,8.29-4.36,12.92-4.77.48-.04.98-.07,1.52-.08l.22-3.23c-2.57.23-5.03.47-7.46.69-3.18.3-6.29.59-9.48.87ZM222.84,171.62c7.77.16,15.67.34,23.59.52-1.46-9.19-2.51-19.46-3.04-29.79l-26.32-61.31,5.78,90.57ZM575.54,158.84l3.87-.35,1.26-16.56c-1.3,5.62-3.23,10.74-5.78,15.15.22.58.43,1.17.64,1.76ZM266.95,128.86c.49,1.61.97,3.2,1.44,4.76,2.47,8.17,4.8,15.89,6.81,18.91,2.18,3.27,5.07,5,8.35,5,5.32,0,11.19-4.54,16.1-12.44,11.13-17.92,26.69-27.06,31.43-29.54,1.37-1.34,3.21-2.02,5.49-2.02,1.13,0,2.39.17,3.74.51,6.64,1.66,10.84,7.59,13.33,12.84.95-1.33,2.31-3.16,4.03-5.28.05-8.96,1.26-29.33,11.11-33.64,2.12-.93,4.49-1.4,7.04-1.4,7.68,0,15.33,4.15,19.44,6.81,7.04-2.38,17.01-4.91,29.69-7.54-50.24-3.36-105.63-7.47-156.99-11.65l-1.02,54.67ZM243.21,119.51c.65-14.06,2.83-21.18,6.52-21.18,2.96,0,5.71,2.39,8.51,7.47l-.26-32.43c-11.85-.98-23.32-1.94-34.11-2.88l19.35,49.02ZM577.91,93.17c1,3.19,1.85,6.44,2.53,9.67,1.08,5.14,1.77,10.27,2.06,15.28l1.99-26.03c-1.88.49-3.01.76-3.03.76-.89.15-2.05.25-3.55.33Z"/><path d="M176.71,3.5c63.77,0,168.84,34.44,250.72,38.34,32.67,1.56,63.81,2.12,91.42,2.92-8.32-22.42-10.23-34.66-7.41-35.8.14-.06.29-.08.45-.08,3.27,0,10.48,12.05,20.61,36.31,45.1,1.55,78.87,4.37,91.29,14.58,15.44,12.69-15.15,24.15-32.19,29.27l-7.39,70.03c10.66-.94,18.23-1.52,21.47-1.52.37,0,.68,0,.93.02,12.69.75,14.93,11.95,2.24,16.43-3.54,1.25-13.61,2.91-27.78,4.78,5.38,18.17,6.19,28.01,3.65,28.91-.13.04-.26.07-.39.07-2.79,0-8.14-9.13-15.39-27.45-12.33,1.5-26.67,3.09-41.97,4.69l2.5,7.67c2.69-1.39,5.62-2.28,8.73-2.55.69-.06,1.37-.09,2.05-.09,14.81,0,27.74,14.12,29.37,32.61,1.71,19.34-9.6,36.14-25.25,37.52-.69.06-1.37.09-2.05.09-14.33,0-26.89-13.22-29.17-30.82l-31.47,2.62c.03.28.07.57.09.85,1.84,20.89-10.3,39.02-27.11,40.5-.74.06-1.47.1-2.2.1-15.92,0-29.83-15.26-31.59-35.23-1.06-12.04,2.53-23.17,8.98-30.71l-6.68-12.83c-17.9,1.34-42.71,2.59-70.53,3.64-30.33,4.35-58.31,7.34-77.51,7.34-2.46,0-4.79-.05-6.95-.15-.53,1.45-1.45,3.23-2.63,4.81-1.17,1.6-2.62,2.95-3.77,3.81-.56.45-1.07.76-1.42.98-.35.22-.55.35-.55.35-.37.23-.8.35-1.22.35-.55,0-1.11-.2-1.55-.6-.93-.86-.99-2.31-.14-3.24l.18-.2s.12-.13.34-.37c.21-.23.53-.55.84-.98.66-.83,1.4-2.02,1.88-3.29.3-.77.52-1.55.66-2.27-.08-.01-.17-.02-.26-.03-1.68-.24-3.24-1.61-4.69-3.85-23.45.42-46.1.65-66.06.65-34.33,0-60.67-.69-69.23-2.31-27.62-5.23-10.45-23.89,8.21-26.88,3.64-.58,13.3-.82,26.76-.82,16.12,0,37.7.33,60.92.81l-9.41-104.47c-49.16-4.38-85.77-8.26-94.69-10.49-32.85-8.21-18.67-38.08,38.82-51.52,7.45-1.74,16.03-2.51,25.52-2.51M244.06,124.37c.29-14.46,2.1-25.04,5.68-25.04s6.69,4.45,9.54,10.82l-.31-37.7c-12.66-1.04-24.93-2.08-36.63-3.09l21.71,55.01M283.56,158.53c5.35,0,11.51-4.16,16.95-12.91,11.29-18.17,27.43-27.31,31.18-29.26,1.05-1.08,2.6-1.83,4.89-1.83,1.01,0,2.17.15,3.5.48,6.95,1.74,11.11,8.52,13.38,13.89.9-1.33,2.69-3.83,5.22-6.94.01-8.32,1.03-28.93,10.51-33.08,2.13-.93,4.38-1.31,6.64-1.31,7.87,0,15.86,4.64,19.31,6.92,9.41-3.24,23.25-6.39,37.41-9.14-52.8-3.49-112.23-7.89-165.55-12.23l-1.04,55.89c3.18,10.36,5.93,20.35,8.42,24.09,2.39,3.59,5.61,5.45,9.18,5.45M247.61,173.17c-1.61-9.76-2.71-20.67-3.23-31.04l-28.68-66.8,6.2,97.27c8.45.18,17.08.37,25.71.57M574.87,159.91c1.89-.17,3.73-.34,5.48-.5l5.24-68.66c-2.7.73-4.36,1.12-4.36,1.12-1.03.17-2.61.28-4.67.36,1.13,3.47,2.12,7.08,2.9,10.82,4.46,21.19,1.89,41.18-5.66,53.94.36.97.72,1.94,1.07,2.92M517.43,204.84c.95-1.73,2.02-3.35,3.21-4.83l-6.23-13.71c-6.51.66-13.14,1.32-19.8,1.97l22.82,16.58M480.56,225.69l32.23-2.69c.08-4.28.78-8.37,2.03-12.13l-29.85-21.69c-6.07.58-12.14,1.15-18.16,1.71-.84,3.08-1.65,6.1-2.4,8.96l-.36,1.87c7.77,4.77,13.89,13.4,16.51,23.97M434.53,203.11c3.92-2.99,8.48-4.9,13.45-5.34.71-.06,1.42-.08,2.12-.08.08,0,.17,0,.25,0l.37-5.32c-6.87.62-12.95,1.23-19.45,1.79,1.33,3.08,2.04,6.15,3.26,8.95M176.71,1.5c-10.12,0-18.61.84-25.98,2.56-17.56,4.1-32.3,10.03-42.63,17.13-9.69,6.66-15.06,14.14-15.11,21.05-.04,4.66,2.37,13.1,18.88,17.23,10.51,2.63,56.18,7.07,93.34,10.4l9.06,100.58c-25.63-.51-44.85-.76-58.73-.76-14.68,0-23.54.28-27.08.84-11.42,1.83-24.24,9.93-24.36,18.65-.06,4.15,2.68,9.63,16.09,12.17,10.23,1.94,43.5,2.34,69.6,2.34,19.32,0,41.2-.21,65.02-.63,1.11,1.5,2.29,2.57,3.54,3.2-.02.07-.05.13-.07.2-.37.95-.96,1.98-1.59,2.78-.02.02-.03.04-.05.07-.2.28-.41.5-.6.7l-.1.1-.35.38-.18.19c-.78.85-1.18,1.94-1.13,3.09.05,1.15.54,2.2,1.39,2.98.79.73,1.82,1.13,2.9,1.13.81,0,1.6-.23,2.29-.66l.55-.35.1-.06c.36-.22.89-.56,1.48-1.03,1.51-1.13,3.03-2.66,4.16-4.21.89-1.19,1.7-2.57,2.33-3.94,1.77.06,3.66.1,5.64.1,17.54,0,43.68-2.47,77.69-7.35,28.27-1.08,52.14-2.3,69.18-3.55l5.46,10.49c-6.5,8.21-9.62,19.47-8.59,31.14,1.83,20.78,16.58,37.05,33.58,37.05.79,0,1.59-.04,2.37-.1,8.75-.77,16.57-5.69,22.04-13.86,5.18-7.74,7.64-17.52,6.98-27.67l27.6-2.3c3.04,17.61,16.04,30.67,30.87,30.67.74,0,1.49-.03,2.23-.1,8.18-.72,15.5-5.3,20.61-12.9,5.02-7.46,7.31-16.98,6.45-26.79-1.7-19.31-15.48-34.43-31.36-34.43-.74,0-1.49.03-2.23.1-2.52.22-4.98.82-7.35,1.79l-1.04-3.18c14.37-1.51,27.14-2.94,38.01-4.25,10.93,27.27,14.94,27.28,16.68,27.28.37,0,.72-.06,1.06-.18,3.09-1.1,2.94-5.97,2.47-10.1-.54-4.73-1.99-11.27-4.21-19.03,14.06-1.89,22.53-3.39,25.87-4.57,7.99-2.82,10.27-7.87,9.73-11.66-.68-4.84-5.6-8.24-12.52-8.65-.29-.02-.64-.03-1.05-.03-2.83,0-8.8.41-19.23,1.31l6.99-66.3c15.85-4.87,34.5-12.53,36.4-22.02.73-3.64-.88-7.11-4.79-10.32-12.42-10.21-44.11-13.33-91.21-14.98-15.29-36.36-20.13-36.36-21.96-36.36-.42,0-.82.08-1.2.23-2.59,1.05-3.11,4.8-1.68,12.15,1.14,5.9,3.54,13.95,6.95,23.42-6.03-.17-12.23-.33-18.56-.49-22.35-.58-45.45-1.17-69.87-2.34-40.63-1.93-86.75-11.37-131.35-20.49C251.3,10.17,208.91,1.5,176.71,1.5h0ZM242.49,114.96l-17.1-43.33c10.08.87,20.69,1.76,31.6,2.66l.23,27.98c-2.39-3.34-4.84-4.94-7.48-4.94s-6,2.03-7.24,17.63h0ZM267.96,128.71l1-53.44c48.65,3.95,100.85,7.84,148.83,11.08-9.2,2.05-16.69,4.03-22.37,5.92-4.3-2.73-11.89-6.71-19.58-6.71-2.69,0-5.19.5-7.44,1.48-9.93,4.34-11.62,22.97-11.71,34.2-1.12,1.39-2.09,2.65-2.88,3.72-2.66-5.05-6.87-10.3-13.25-11.89-1.43-.36-2.77-.54-3.98-.54-2.49,0-4.54.74-6.08,2.2-4.94,2.61-20.52,11.86-31.69,29.84-4.72,7.61-10.28,11.97-15.25,11.97-2.93,0-5.53-1.58-7.52-4.56-1.93-2.9-4.24-10.55-6.68-18.64-.46-1.52-.92-3.06-1.4-4.62h0ZM223.78,170.64l-5.35-83.88,23.97,55.82c.51,9.86,1.5,19.66,2.86,28.53-7.21-.17-14.4-.32-21.48-.47h0ZM579.24,94.09c.93-.07,1.7-.15,2.31-.25.05,0,.09-.02.14-.03.04,0,.65-.15,1.7-.42l-1.07,14c-.26-1.59-.56-3.18-.89-4.77-.6-2.85-1.33-5.71-2.18-8.54h0ZM576,157.17c1.12-1.99,2.12-4.11,3-6.36l-.52,6.76c-.74.07-1.49.14-2.26.21-.07-.2-.15-.4-.22-.61h0ZM500.05,189.74c4.47-.44,8.86-.88,13.14-1.31l5.14,11.31c-.53.71-1.03,1.44-1.5,2.19l-16.78-12.19h0ZM468.38,192.76c5.32-.49,10.67-1,16.03-1.51l28.08,20.4c-.89,3.05-1.43,6.24-1.62,9.51l-28.8,2.4c-2.76-9.64-8.43-17.81-15.79-22.78l.09-.48c.61-2.32,1.28-4.85,2.02-7.55h0ZM434.1,195.91c2.73-.24,5.4-.5,8.18-.76,2.05-.19,4.13-.39,6.28-.59l-.08,1.16c-.23.01-.46.03-.68.05-4.39.39-8.53,1.81-12.33,4.23-.21-.6-.41-1.21-.62-1.83-.24-.74-.49-1.49-.76-2.26h0Z"/><path class="cls-1" d="M544.37,260.15c15.65-1.38,26.95-18.18,25.25-37.52-1.71-19.34-15.77-33.9-31.42-32.52-3.24.29-5.62.85-8.41,2.35"/><path class="cls-1" d="M520.61,215.19c-.79,3.1-1.33,7.34-1.02,10.86,1.16,13.12,10.25,23.04,20.31,22.15,10.06-.89,17.28-12.24,16.12-25.37-1.16-13.12-10.25-23.04-20.31-22.15-.85.08-2.32.49-3.13.7"/><path class="cls-1" d="M518.81,44.73c-27.84-.81-58.35-1.32-91.39-2.89C333.35,37.36,208.67-7.43,151.18,6.01c-57.49,13.44-71.67,43.3-38.82,51.52,8.95,2.24,44.72,6.16,94.13,10.56"/><path class="cls-1" d="M592.19,89.06s52.49-12.13,31.59-29.3c-12.51-10.27-45.61-13.11-91.17-14.65"/><path class="cls-1" d="M267,73.24c57.96,4.88,104.7,8.4,166.33,12"/><path class="cls-1" d="M222.56,69.47c13.07,1.14,24.35,2.09,36.29,3.1"/><path class="cls-1" d="M244.07,141.06c.42,11.35,1.46,21.12,3.34,32.01"/><path class="cls-1" d="M258.72,108.78c-2.92-6.68-5.36-9.45-8.99-9.45s-5.6,8.75-5.89,23.66"/><path class="cls-1" d="M486.86,76.48s-76.61,10.16-98.26,20.61c-21.65,10.45-35.84,32.85-35.84,32.85,0,0-27.81,18.87-20.28-13.98,0,0-19.14,8.98-31.98,29.66-9.07,14.6-20.16,16.43-26.13,7.47-2.55-3.82-4.63-11.65-7.89-22.25"/><path class="cls-1" d="M256.05,201.58c1.64,2.93,2.55,3.02,4.5,3.3,20.51,2.93,55.44.15,100.39-6.63"/><path class="cls-1" d="M263.26,32.06c-2.48-.05-4.53,1.93-4.58,4.41,0,.03,0,.09,0,.12l1.16,142.61c.01,1.43,1.18,2.58,2.61,2.56,1.4-.01,2.54-1.14,2.56-2.54l2.66-142.59"/><path class="cls-1" d="M583.73,163.54l9.92-94.09c.19-1.76-1.09-3.34-2.86-3.53-1.76-.19-3.35,1.09-3.53,2.86,0,.03,0,.07,0,.09l-7.21,94.33c-.08,1.02.68,1.91,1.7,1.98"/><path class="cls-1" d="M222.45,181.26l-9.29-145.73c-.16-2.48-2.29-4.36-4.77-4.2-2.48.16-4.36,2.3-4.2,4.77,0,.03,0,.09,0,.12l13.1,145.44c.13,1.42,1.39,2.47,2.81,2.34"/><path class="cls-1" d="M259.1,175.38l-41.86-96.88"/><path class="cls-1" d="M215.25,51.23l43.94,110.68"/><path class="cls-1" d="M257.6,173.39c-12.45-.29-22.54-.52-34.9-.78"/><path class="cls-1" d="M452.26,170.81c-32.98,2.53-66.54,4.53-91.28,4.68-15.4.09-53-.76-95.06-1.77"/><path class="cls-1" d="M504.54,166.39c-10,.9-21.04,1.8-31.49,2.67"/><path class="cls-1" d="M581.49,179.36c13.91-1.86,21.89-3.44,27.36-5.37,12.69-4.48,10.45-15.68-2.24-16.43-2.53-.15-9.58.2-21.65,1.27"/><path class="cls-1" d="M495.62,188c32.57-2.8,55.81-4.9,73.57-6.98"/><path class="cls-1" d="M215.63,172.44c-43.16-.88-78.77-1.24-86.85.05-18.66,2.99-35.84,21.65-8.21,26.88,26.79,5.07,226.5,1.14,301.97-4.55"/><path class="cls-1" d="M538.43,220.1l-11.06-34.86-12.97,1.16,11.07,24.29-42.76-31.07c-1.43-1.05-3.44-.73-4.48.71-1.04,1.43-.72,3.44.71,4.48l51.95,37.74,1.48,1.08,2.63,1.91c.57.42,1.23.61,1.89.61.99,0,1.97-.46,2.6-1.32"/><path class="cls-1" d="M464.03,202c4.2-16.48,10.52-38.52,13.49-48.58.93-3.16-.91-6.51-4.1-7.31-4.74-1.2-12.05-.95-19.99,6.99l-3.03,44.8"/><path class="cls-1" d="M434.71,203.22c-.98-1.68-6.08-13.71-10.3-23.52-1.03-2.39-3.63-3.22-5.6-1.79-1.78,1.3-2.34,3.98-1.26,6.06l12.33,24.16"/><path class="cls-1" d="M481.77,232.9c-1.84-20.89-16.97-36.62-33.78-35.13-16.82,1.48-28.95,19.62-27.11,40.5"/><path class="cls-1" d="M445.32,209.18c-10.81.95-18.56,13.21-17.31,27.39,1.25,14.17,11.03,24.89,21.84,23.93,10.81-.95,18.56-13.21,17.31-27.39"/><path class="cls-1" d="M445.05,240.8c2.66-.23,4.56-3.25,4.25-6.73-.31-3.48-2.71-6.11-5.36-5.88s-4.56,3.25-4.25,6.73"/><path class="cls-1" d="M522.08,53.28l-15.52,5.37c-12.54,4.4-21.53,15.54-23.07,28.74-1.27,10.87-.65,26.26,4.41,47.77,9.9,42.06,37.47,38.48,37.47,38.48l29.12-2.57"/><path class="cls-1" d="M574.15,156.87c7.86-12.73,9.86-32.27,5.31-53.83-6.49-30.82-26.04-53.39-44.46-53.14"/><path class="cls-1" d="M522.47,54.56c-13.29,10.37-19.91,36.08-14.14,63.46,6.99,33.19,28.58,56.74,48.22,52.6,2.96-.62,5.07-1.35,7.57-3.07"/><path class="cls-1" d="M569.98,147.16c5.42-10.77,6.6-26.55,2.89-44.18-5.66-26.86-20.81-46.55-35.55-45.7"/><path class="cls-1" d="M525.8,62.18c-9.87,8.94-13.39,29.62-8.57,52.52,5.96,28.3,23.25,48.61,38.62,45.37,2.01-.42,3.32-.83,5.06-1.98"/><path class="cls-1" d="M543.66,96.24c-5.62-9.04-13.46-23-20.53-40.46-11.91-29.43-14.94-45.5-11.69-46.82,3.25-1.31,11.55,12.62,23.45,42.06,7.1,17.55,11.1,33.33,13.33,43.72"/><path class="cls-1" d="M556.88,120.35c5.19,9.34,12.15,23.11,18.17,40.06,10.63,29.92,12.97,46.1,9.67,47.27-3.3,1.17-11-13.11-21.63-43.02-6.02-16.92-9.47-32.72-11.34-43.24"/><path class="cls-1" d="M549.06,121.09c10.56,1.91,12.79-8.09,10.73-15.41-2.07-7.32-8.05-12.04-13.37-10.54-5.32,1.5-7.95,8.65-5.89,15.97"/><path class="cls-1" d="M550.34,97.81c-3,.85-4.36,5.31-3.05,9.98,1.32,4.66,4.81,7.76,7.81,6.91,3-.85,4.36-5.31,3.05-9.98"/></svg>