<?xml version="1.0" encoding="UTF-8"?><svg id="Gráfica" xmlns="http://www.w3.org/2000/svg" viewBox="0 0 723 277"><defs><style>.cls-1{fill:none;stroke:#000;stroke-linecap:round;stroke-linejoin:round;}.cls-2{fill:#fff;}</style></defs><path class="cls-2" d="M497.19,274.5c-2.67,0-5.36-.23-8-.7l-178.24-31.12c-1.33-.23-2.48-.96-3.26-2.07-.77-1.1-1.07-2.44-.84-3.76.42-2.42,2.51-4.17,4.96-4.17.29,0,.58.03.87.08l23.69,4.14,8.99-40.46c-25.03-12.26-38.72-27.63-39.6-44.48-.33-6.3,1.34-12.53,4.95-18.56l-140.28-6.74c-.4-.02-.75-.28-.89-.66l-23.56-64.34-39.63,20.78c-.14.08-.3.11-.46.11-.11,0-.22-.02-.33-.06-.26-.09-.47-.29-.58-.54l-4.38-9.81c-.12-.26-.12-.57,0-.83s.35-.46.63-.54l44.11-12.78c.12-1.03.5-2.04,1.1-2.9.53-1.6,1.68-2.88,3.17-3.55.09-.04.18-.08.28-.12l-10.01-46.11c-.06-.27,0-.55.15-.78.16-.23.4-.38.67-.42l10.63-1.61c.05,0,.1-.01.15-.01.24,0,.46.08.65.24.22.19.35.46.35.75l.62,47.67c.92.18,1.81.57,2.58,1.15,1.75.3,3.28,1.31,4.22,2.8l3.34,5.26,37.25,18.38c.25.12.43.34.51.61.08.26.05.55-.09.79l-5.35,9.32c-.14.25-.39.43-.67.48-.06.01-.13.02-.19.02-.22,0-.44-.07-.61-.21l-23.98-18.58,23.95,37.72,139.89-8.62-.3-9.82c-.17-5.67,1.89-11.05,5.8-15.15,3.91-4.1,9.19-6.42,14.86-6.52l47.7-.83-3.92-11.32c-4.17.47-8.43.99-12.7,1.56-7.93,1.04-16.01,2.25-24,3.58-2.82.45-5.63.96-8.6,1.49-1.62.29-3.24.59-4.88.87l-3.75.73c-3.31.64-6.73,1.31-10.09,2.02-1.63.37-3.27.72-4.91,1.07-2.92.62-5.94,1.27-8.84,2-1.33.33-2.65.64-3.96.96-3.23.77-6.28,1.5-9.28,2.35-1.22.33-2.43.66-3.62.97-3.04.81-5.91,1.57-8.66,2.44-1.4.43-2.77.84-4.11,1.23-2.4.71-4.67,1.38-6.8,2.12l-9.16,3.09c-1.74.61-3.34,1.23-4.75,1.78-.77.3-1.5.58-2.17.83l-6.04,2.31c-.12.05-.24.07-.36.07-.4,0-.77-.24-.93-.63l-1.99-5.02c-.1-.25-.09-.53.02-.78.11-.25.32-.44.57-.53l6.2-2.23c.69-.24,1.42-.51,2.2-.79,1.47-.53,3.13-1.14,4.96-1.73l9.35-2.94c2.21-.72,4.55-1.35,7.02-2.03,1.35-.37,2.73-.74,4.13-1.15,2.85-.83,5.79-1.55,8.91-2.31,1.2-.29,2.41-.59,3.63-.89,3.09-.8,6.21-1.47,9.51-2.19,1.31-.28,2.64-.57,3.96-.87,2.96-.68,6.03-1.27,9-1.84,1.65-.32,3.31-.64,4.97-.97,3.42-.65,6.87-1.24,10.21-1.82l3.81-.66c1.67-.25,3.3-.51,4.93-.77,3.01-.48,5.86-.93,8.72-1.32,1.4-.2,2.81-.4,4.22-.6-7.83.17-15.66.42-23.4.75-4.01.14-8.01.36-12.25.58-2.3.12-4.61.25-6.94.36l-4.52.3c-4.99.32-10.15.66-15.24,1.05-2.34.21-4.69.4-7.04.59-4.18.34-8.49.69-12.67,1.15-2,.21-3.98.42-5.95.61-4.54.46-8.84.89-13.1,1.47-1.87.24-3.71.47-5.53.69-4.27.53-8.31,1.02-12.22,1.66-2.02.32-4.01.61-5.95.9-3.48.51-6.77,1-9.89,1.58l-13.34,2.42c-2.57.48-4.94,1-7.02,1.47-1.12.25-2.18.48-3.16.69l-8.88,1.92c-.07.02-.14.02-.21.02-.46,0-.87-.31-.97-.78l-1.55-6.82c-.06-.26,0-.54.14-.77s.38-.38.65-.44l9.05-1.78c1.01-.19,2.08-.4,3.21-.63,2.14-.43,4.56-.91,7.21-1.36l13.54-2.18c3.2-.53,6.56-.96,10.12-1.41,1.95-.25,3.93-.5,5.96-.78,4-.57,8.1-1,12.45-1.45,1.83-.19,3.67-.38,5.54-.58,4.32-.5,8.66-.85,13.26-1.23,1.99-.16,3.99-.32,6-.5,4.24-.38,8.61-.65,12.83-.91,2.35-.14,4.71-.29,7.07-.45,5.16-.3,10.36-.53,15.39-.76l4.52-.21c2.34-.07,4.65-.15,6.93-.22,4.28-.15,8.33-.28,12.38-.35,8.71-.2,17.63-.3,26.51-.3,2.66,0,5.23,0,7.7.03,5.77.03,11.55.11,17.2.24,1.9-6.97,7.79-11.77,14.58-11.77s12.72,4.83,14.6,11.84c6.56-.17,13.36-.27,20.21-.31,2.47-.02,5.04-.03,7.69-.03,8.88,0,17.8.1,26.52.3,4.05.06,8.09.2,12.37.35,2.29.08,4.59.16,6.91.22l4.54.21c5.04.23,10.24.46,15.39.76,2.37.17,4.73.31,7.08.46,4.22.26,8.59.53,12.83.91,2.01.18,4.01.34,6,.5,4.59.37,8.93.73,13.26,1.23,1.86.2,3.71.4,5.53.58,4.34.45,8.45.87,12.45,1.45,2.02.28,4.01.53,5.96.78,3.56.45,6.92.88,10.12,1.42l13.53,2.18c2.65.44,5.07.93,7.21,1.36,1.14.23,2.21.44,3.21.63l9.06,1.78c.26.05.5.21.64.44s.2.5.14.77l-1.55,6.82c-.11.46-.52.78-.97.78-.07,0-.14,0-.21-.02l-8.88-1.93c-.98-.2-2.03-.44-3.15-.68-2.09-.46-4.46-.98-7.03-1.47l-13.33-2.41c-3.12-.58-6.42-1.07-9.9-1.58-1.94-.29-3.92-.58-5.94-.9-3.91-.64-7.95-1.14-12.22-1.66-1.82-.22-3.67-.45-5.53-.69-4.26-.58-8.55-1.01-13.1-1.47-1.97-.2-3.96-.4-5.96-.62-4.18-.46-8.5-.81-12.67-1.15-2.35-.19-4.7-.38-7.06-.59-5.08-.39-10.25-.73-15.24-1.05l-4.52-.3c-2.31-.11-4.62-.24-6.92-.36-4.24-.23-8.24-.44-12.24-.58-7.66-.32-15.42-.57-23.17-.74,1.26.19,2.59.39,4,.59,2.85.39,5.7.84,8.71,1.32,1.62.26,3.26.52,4.9.77l3.86.67c3.33.58,6.78,1.17,10.18,1.81,1.67.34,3.33.66,4.98.97,2.97.57,6.03,1.16,9,1.84,1.33.3,2.65.58,3.97.87,3.3.71,6.41,1.39,9.51,2.19,1.22.3,2.43.6,3.63.89,3.11.76,6.05,1.47,8.9,2.31,1.4.4,2.78.78,4.13,1.14,2.48.67,4.81,1.31,7.04,2.03l9.33,2.94c1.84.6,3.5,1.2,4.96,1.73.78.28,1.51.55,2.2.79l6.21,2.23c.25.09.46.28.57.53.11.25.12.53.02.78l-1.99,5.02c-.16.39-.53.63-.93.63-.12,0-.24-.02-.36-.07l-6.04-2.32c-.67-.25-1.39-.53-2.17-.83-1.41-.55-3.01-1.17-4.76-1.78l-9.14-3.09c-2.13-.74-4.4-1.41-6.8-2.12-1.34-.4-2.71-.8-4.1-1.23-2.75-.87-5.62-1.63-8.65-2.44-1.2-.32-2.41-.64-3.63-.98-3-.85-6.05-1.57-9.27-2.34-1.32-.31-2.64-.63-3.97-.96-2.9-.73-5.92-1.38-8.84-2-1.64-.35-3.29-.7-4.93-1.07-3.34-.7-6.75-1.37-10.05-2.01l-3.79-.74c-1.62-.28-3.25-.58-4.86-.87-2.97-.54-5.78-1.04-8.6-1.49-8-1.33-16.08-2.54-24.01-3.58-4.97-.66-9.89-1.26-14.64-1.77l-3.93,11.33,22.02-.38h.37c8.98,0,16.98,5.71,19.89,14.21l2.08,6.08c8.93.7,17.72,2.28,26.15,4.71.06,0,.12.02.17.03.64.18,1.26.38,1.89.58l1.07.33c.25.08.51.15.76.24,1.45.47,2.88.96,4.25,1.46.21.08.42.16.63.24l.42.16c1.05.39,2.1.8,3.12,1.22.38.15.75.31,1.12.47l.39.17c.86.37,1.72.74,2.56,1.12.53.24,1.05.48,1.57.72.82.39,1.63.78,2.44,1.19l.26.13c.41.2.81.4,1.21.61.88.45,1.74.92,2.6,1.39l.44.24c.24.13.49.26.73.4,1.24.7,2.44,1.41,3.57,2.11.16.1.83.53.83.53.9.56,1.79,1.13,2.66,1.72.31.21.61.42.91.63l.34.23c.71.49,1.42.99,2.12,1.49.43.32.86.63,1.29.95.67.5,1.33,1.01,1.98,1.53l.16.13c.35.28.7.55,1.05.83.7.57,1.38,1.15,2.06,1.73l.35.3c.2.17.41.35.61.52,1,.88,1.95,1.75,2.83,2.59.11.1.55.54.55.54.74.71,1.46,1.43,2.16,2.16.21.22.42.44.62.66l.31.33c.56.6,1.11,1.19,1.65,1.8.32.36.64.73.96,1.1.51.59,1.01,1.19,1.5,1.79.3.37.59.73.88,1.09.52.66,1.02,1.32,1.51,1.98l.25.34c.15.2.29.39.44.59.74,1.03,1.4,1.98,2.02,2.93l.26.42c.55.86,1.09,1.71,1.6,2.58.14.23.27.47.4.71l.19.33c.38.67.75,1.34,1.11,2.01.2.39.4.77.6,1.16.33.65.65,1.31.95,1.96l.05.11c.16.35.33.69.48,1.04.31.71.61,1.42.9,2.12,0,0,.32.77.4.98.43,1.11.79,2.12,1.11,3.11l.04.14c.33,1.03.62,2,.88,2.98.06.22.11.45.17.67l.09.36c.17.71.34,1.41.49,2.12.08.39.16.78.23,1.17.12.67.24,1.35.33,2.02.06.39.11.77.16,1.16.09.71.16,1.42.22,2.13l.03.37c.02.21.04.42.05.63.07,1.14.11,2.15.11,3.1,0,.58-.01,1.16-.04,1.73l-.03.52c-.02.44-.04.81-.07,1.18l-.08.84c-.03.28-.05.55-.09.83-.02.13-.11.77-.11.77-.04.29-.08.58-.13.87-.02.13-.15.78-.15.78-.05.28-.1.55-.16.83l-.14.57c-.09.39-.16.7-.24,1l-.16.56c-.11.39-.2.7-.29.99l-.23.68c-.09.28-.19.56-.29.84l-.24.62c-.11.29-.22.58-.34.87l-.2.46c-.14.33-.29.67-.44,1l-.2.42c-.16.34-.33.68-.5,1.01l-.21.4c-.18.33-.36.67-.55,1.01l-.21.36c-.2.34-.4.68-.61,1.01l-.22.34c-.22.33-.44.67-.67,1l-.22.31c-.23.33-.47.67-.72,1l-.21.27c-.26.34-.52.67-.79,1l-.21.25c-.28.34-.56.67-.85,1l-.2.23c-.3.33-.6.67-.91,1l-.19.2c-.32.33-.65.67-.98.99l-.18.17c-.34.33-.69.67-1.05.99l-.09.08c-.43.4-.8.72-1.18,1.05l-.11.09c-.43.37-.82.69-1.22,1.01,0,0-.13.1-.13.1-.41.33-.82.65-1.24.97,0,0-.12.09-.12.09-.43.32-.86.64-1.3.95l-.1.07c-.46.32-.91.63-1.37.94,0,0-.09.06-.09.06-.47.31-.95.62-1.43.92,0,0-.08.05-.09.06-.48.3-.97.6-1.48.9-.56.33-1.08.63-1.61.92-.57.32-1.11.61-1.65.89-.58.3-1.14.59-1.7.87-.58.29-1.16.56-1.74.84-.59.28-1.18.54-1.78.81,0,0-.01,0-.02,0-7.06,3.11-15.26,5.67-24.39,7.6l15.59,36.11,14.61,2.55,5.51-2.51c.66-.3,1.36-.45,2.08-.45,1.97,0,3.77,1.16,4.59,2.95.32.7.46,1.45.44,2.21l7.42,1.3c2.1.37,4.24.55,6.35.55,5.26,0,10.36-1.11,15.17-3.3l21.71-9.87c.59-.27,1.23-.41,1.88-.41,1.77,0,3.39,1.04,4.12,2.66.5,1.1.54,2.33.12,3.47-.43,1.13-1.27,2.03-2.37,2.54l-21.7,9.86c-6,2.73-12.36,4.11-18.91,4.11-2.64,0-5.3-.23-7.92-.69l-15.52-2.71-14.99,6.81c-6.07,2.76-12.5,4.16-19.12,4.16ZM490.92,263.88c2.07.36,4.17.54,6.26.54,5.18,0,10.21-1.09,14.96-3.25l1.57-.71-66.68-11.64-1.2,7.19,45.09,7.87ZM429.93,253.23l1.2-7.19-62.56-10.92c-1.19-.21-2.23-.87-2.93-1.86-.7-.99-.96-2.19-.76-3.39.38-2.18,2.25-3.76,4.44-3.76.27,0,.54.02.81.07l24.46,4.27-10.73-20.12c-8.28-2.17-16.15-4.67-23.42-7.42l-8.17,36.75,77.65,13.56ZM500.65,248.98l-13.75-31.84c-10.82,1.58-22.59,2.39-35,2.4l-3.39,20.33,52.14,9.1ZM432.62,237.1l3.03-18.16c-12.13-.87-25-2.67-37.42-5.24l10.23,19.17,24.17,4.22Z"/><path d="M151.47,3.5l.63,48.55c1.14.03,2.25.46,3.15,1.21,1.54.19,2.94,1.05,3.79,2.39l3.49,5.5,37.5,18.5-5.35,9.32-28.51-22.09,27.33,43.05,141.45-8.71-.33-10.79c-.34-11.16,8.51-20.44,19.67-20.63l49.08-.85-4.63-13.38c-3.7.41-8.28.95-13.51,1.65-7.05.93-15.26,2.12-24.03,3.58-4.39.7-8.9,1.57-13.49,2.37-4.58.9-9.23,1.78-13.87,2.76-4.62,1.04-9.27,1.94-13.79,3.08-4.53,1.11-9,2.11-13.27,3.31-4.28,1.17-8.44,2.2-12.31,3.42-3.88,1.2-7.59,2.2-10.93,3.36-3.35,1.13-6.42,2.17-9.15,3.09-2.71.94-5.03,1.9-6.96,2.62-3.85,1.47-6.04,2.32-6.04,2.32l-1.99-5.02s2.26-.81,6.2-2.23c1.98-.69,4.36-1.61,7.13-2.51,2.78-.87,5.92-1.86,9.34-2.94,3.41-1.11,7.19-2.04,11.13-3.17,3.94-1.15,8.16-2.11,12.5-3.19,4.33-1.12,8.86-2.03,13.45-3.05,4.58-1.05,9.28-1.86,13.95-2.8,4.68-.88,9.38-1.67,14-2.48,4.64-.71,9.18-1.48,13.61-2.09,8-1.16,15.51-2.11,22.13-2.85-2.35.02-4.83.04-7.42.08-9.97.13-21.61.41-34.06.94-6.23.22-12.66.63-19.19.94-6.53.43-13.16.84-19.79,1.35-6.62.59-13.25,1.03-19.75,1.74-6.5.7-12.91,1.25-19.08,2.09-6.17.8-12.15,1.44-17.78,2.36-5.63.89-10.98,1.57-15.86,2.48-4.89.88-9.37,1.7-13.34,2.42-3.96.74-7.38,1.57-10.21,2.16-5.65,1.23-8.89,1.93-8.89,1.93l-1.55-6.82s3.29-.65,9.05-1.78c2.88-.54,6.37-1.31,10.39-1.98,4.03-.65,8.58-1.38,13.53-2.18,4.95-.83,10.36-1.41,16.06-2.19,5.69-.82,11.73-1.34,17.96-2.03,6.23-.72,12.69-1.15,19.24-1.73,6.55-.59,13.22-.9,19.88-1.36,6.66-.38,13.33-.66,19.9-.97,6.57-.19,13.03-.47,19.28-.57,9.43-.21,18.38-.3,26.5-.3,2.65,0,5.22,0,7.69.03,6.87.04,12.96.14,17.98.25,1.51-6.76,7.11-11.79,13.8-11.79s12.33,5.06,13.82,11.86c5.53-.14,12.69-.28,20.99-.33,2.47-.02,5.03-.03,7.69-.03,8.12,0,17.08.08,26.5.3,6.25.1,12.71.38,19.28.57,6.56.3,13.23.58,19.9.97,6.66.47,13.33.77,19.88,1.36,6.55.58,13.01,1.01,19.23,1.73,6.23.69,12.27,1.21,17.96,2.03,5.7.79,11.1,1.37,16.06,2.19,4.96.8,9.5,1.53,13.54,2.18,4.03.67,7.51,1.44,10.39,1.98,5.76,1.13,9.05,1.78,9.05,1.78l-1.55,6.82s-3.23-.7-8.88-1.93c-2.83-.59-6.25-1.41-10.21-2.16-3.97-.72-8.45-1.53-13.34-2.42-4.88-.91-10.23-1.59-15.86-2.48-5.62-.92-11.61-1.56-17.78-2.36-6.17-.84-12.58-1.39-19.08-2.09-6.5-.72-13.13-1.15-19.75-1.74-6.62-.51-13.26-.92-19.79-1.35-6.54-.32-12.96-.73-19.19-.94-12.46-.52-24.09-.81-34.07-.94-2.59-.04-2.81-.08-5.16-.09,6.62.75,11.88,1.71,19.87,2.87,4.42.61,8.97,1.38,13.61,2.09,4.62.81,9.32,1.59,14,2.48,4.67.95,9.37,1.76,13.95,2.8,4.58,1.02,9.11,1.93,13.45,3.05,4.34,1.09,8.56,2.04,12.5,3.19,3.95,1.13,7.72,2.06,11.13,3.17,3.42,1.08,6.56,2.06,9.34,2.94,2.78.9,5.15,1.82,7.13,2.51,3.95,1.42,6.2,2.23,6.2,2.23l-1.99,5.02s-2.2-.84-6.04-2.32c-1.93-.72-4.24-1.67-6.96-2.62-2.72-.92-5.8-1.96-9.15-3.09-3.34-1.16-7.05-2.16-10.93-3.36-3.87-1.22-8.03-2.25-12.31-3.42-4.27-1.2-8.75-2.2-13.27-3.31-4.52-1.14-9.17-2.04-13.79-3.08-4.63-.98-9.29-1.85-13.87-2.76-4.59-.8-9.1-1.67-13.49-2.37-8.77-1.46-16.98-2.66-24.03-3.58-6.18-.82-11.47-1.43-15.46-1.86l-4.65,13.44,23.45-.41c.12,0,.23,0,.35,0,8.54,0,16.17,5.43,18.94,13.53l2.3,6.7c9.45.69,18.38,2.34,26.71,4.75h.06c.82.24,1.63.5,2.44.75.42.13.84.25,1.25.39,1.42.46,2.83.94,4.21,1.45.35.13.69.27,1.04.4,1.04.39,2.08.79,3.1,1.21.5.21,1,.42,1.5.63.85.36,1.7.73,2.54,1.11.52.24,1.04.48,1.55.72.82.38,1.62.78,2.42,1.17.49.24.98.49,1.46.74.87.45,1.72.91,2.57,1.38.38.21.77.42,1.15.63,1.2.68,2.38,1.37,3.54,2.09.28.17.54.35.82.52.89.56,1.77,1.12,2.63,1.7.42.28.83.57,1.24.85.71.49,1.41.98,2.1,1.48.43.31.85.63,1.28.94.66.5,1.32,1,1.96,1.51.4.32.8.63,1.19.95.69.56,1.37,1.14,2.04,1.71.32.27.64.54.95.81.96.84,1.89,1.7,2.8,2.57.19.18.36.36.54.54.73.71,1.44,1.42,2.14,2.14.31.32.61.65.92.98.55.59,1.1,1.18,1.63,1.78.32.36.63.72.94,1.08.5.59,1,1.18,1.48,1.77.29.36.59.72.87,1.08.51.65,1,1.3,1.49,1.96.23.31.46.61.68.92.69.96,1.36,1.92,1.99,2.89.09.14.17.28.26.42.54.84,1.07,1.69,1.57,2.54.2.34.39.68.59,1.03.38.66.74,1.32,1.09,1.98.2.38.4.76.59,1.15.33.64.64,1.29.94,1.93.18.38.35.76.52,1.14.31.7.6,1.39.88,2.09.13.32.27.64.39.97.39,1.02.76,2.04,1.09,3.06.02.08.04.15.07.23.31.95.58,1.9.84,2.85.09.34.17.67.25,1.01.17.69.34,1.39.48,2.08.08.38.15.77.22,1.15.12.66.23,1.32.33,1.98.06.38.11.76.16,1.14.09.7.15,1.4.21,2.09.03.33.06.65.08.98.06,1.02.1,2.03.1,3.04,0,.57-.01,1.13-.03,1.68,0,.17-.02.33-.03.5-.02.39-.04.77-.07,1.15-.02.2-.04.39-.06.59-.03.35-.07.69-.11,1.04-.03.2-.06.4-.09.6-.05.33-.09.67-.15,1-.03.19-.07.38-.11.58-.06.33-.12.66-.19.99-.04.19-.09.37-.13.56-.08.33-.15.65-.24.98-.05.18-.1.36-.15.54-.09.32-.18.65-.28.97-.05.17-.11.34-.17.51-.11.32-.21.65-.33.97-.06.16-.12.32-.18.48-.12.32-.24.65-.38.97-.06.15-.13.3-.2.45-.14.33-.28.65-.43.97-.06.14-.13.27-.2.41-.16.33-.32.66-.48.98-.07.13-.14.25-.21.38-.18.33-.35.66-.54.98-.07.12-.14.23-.21.35-.19.33-.39.66-.59.98-.07.11-.14.22-.21.33-.21.33-.43.65-.65.98-.07.1-.14.2-.21.3-.23.33-.47.66-.71.98-.07.09-.14.18-.21.27-.25.33-.51.66-.77.98-.07.08-.14.16-.2.24-.27.33-.55.65-.83.98-.06.07-.13.15-.2.22-.29.33-.59.65-.89.97-.06.06-.12.13-.18.19-.31.33-.63.65-.96.97-.06.06-.11.11-.17.17-.34.33-.68.65-1.03.97-.05.05-.11.1-.16.14-.36.32-.72.65-1.09.96-.05.04-.1.08-.15.13-.38.32-.76.64-1.15.95-.04.03-.09.07-.13.1-.4.32-.81.64-1.22.95-.04.03-.08.06-.12.09-.42.32-.85.63-1.28.93-.03.02-.07.05-.1.07-.44.31-.89.62-1.35.92-.03.02-.06.04-.09.06-.46.31-.93.61-1.41.91-.02.01-.05.03-.07.04-.48.3-.98.6-1.47.9-.02.01-.03.02-.05.03-.51.3-1.02.59-1.54.88-.01,0-.03.02-.04.02-.52.29-1.05.58-1.59.86-.01,0-.02.01-.03.02-.54.28-1.09.56-1.65.84h-.02c-.56.29-1.13.56-1.7.83,0,0,0,0,0,0-.58.27-1.16.53-1.75.79,0,0,0,0,0,0h0c-7.49,3.3-16.06,5.89-25.4,7.79l16.29,37.73,15.45,2.7,5.79-2.63c.54-.24,1.11-.36,1.67-.36,1.53,0,3,.87,3.68,2.36.39.85.44,1.77.23,2.61l8.36,1.46c2.17.38,4.35.57,6.52.57,5.35,0,10.64-1.14,15.58-3.39l21.71-9.87c.48-.22.97-.32,1.46-.32,1.34,0,2.62.77,3.21,2.07.81,1.78.02,3.87-1.75,4.68l-21.7,9.87c-5.86,2.67-12.15,4.02-18.5,4.02-2.58,0-5.17-.22-7.75-.67l-15.82-2.76-15.27,6.94c-5.93,2.7-12.28,4.07-18.71,4.07-2.61,0-5.23-.23-7.83-.68l-178.24-31.12c-2.2-.38-3.67-2.48-3.28-4.67.34-1.96,2.05-3.34,3.97-3.34.23,0,.46.02.7.06l24.63,4.3,9.37-42.16c-22.56-10.9-38.79-25.64-39.75-43.97-.35-6.73,1.66-13.26,5.71-19.42l-141.99-6.83-23.86-65.17c-.03-.08-.05-.17-.08-.25l-40.66,21.32-4.38-9.81,44.8-12.98c-.02-1.17.37-2.3,1.05-3.21.41-1.34,1.33-2.49,2.67-3.1.34-.15.69-.26,1.04-.33l-10.21-47.02,10.63-1.61M430.75,254.39l1.53-9.16-63.53-11.09c-1.92-.34-3.21-2.17-2.87-4.09.3-1.71,1.78-2.93,3.46-2.93.21,0,.42.02.63.06l26.49,4.62-11.9-22.31c-8.56-2.23-16.93-4.87-24.82-7.91l-8.64,38.9,79.67,13.91M433.44,238.26l3.37-20.24c-12.83-.86-26.71-2.78-40.48-5.73l11.35,21.28-.28.15,26.03,4.55M451.66,218.54c-.2,0-.4,0-.6,0l-3.69,22.15,54.94,9.59-14.79-34.24c-11.22,1.69-23.33,2.5-35.86,2.5M497.17,265.42c5.28,0,10.5-1.13,15.38-3.34l4.51-2.05-70.86-12.37-1.53,9.16,46.07,8.04c2.14.37,4.29.56,6.43.56M151.47,1.5c-.1,0-.2,0-.3.02l-10.63,1.61c-.55.08-1.03.39-1.35.84-.31.45-.42,1.02-.31,1.56l9.84,45.33c-1.48.8-2.62,2.15-3.2,3.78-.52.78-.89,1.66-1.09,2.57l-43.51,12.61c-.56.16-1.01.55-1.26,1.08-.24.52-.25,1.13-.01,1.66l4.38,9.81c.22.5.65.89,1.17,1.07.21.07.43.11.66.11.32,0,.64-.08.93-.23l38.62-20.25,23.17,63.27c.28.76.98,1.27,1.78,1.31l138.65,6.67c-3.15,5.75-4.58,11.69-4.27,17.69.89,17.07,14.52,32.6,39.45,44.97l-8.61,38.76-22.75-3.97c-.34-.06-.69-.09-1.04-.09-2.94,0-5.44,2.1-5.94,5-.28,1.59.08,3.19,1.01,4.51.93,1.32,2.31,2.2,3.9,2.48l178.24,31.12c2.7.47,5.45.71,8.18.71,6.76,0,13.34-1.43,19.53-4.24l14.71-6.69,15.21,2.66c2.67.47,5.4.7,8.09.7,6.69,0,13.2-1.41,19.33-4.2l21.7-9.86c1.34-.61,2.37-1.71,2.89-3.09.52-1.38.47-2.89-.14-4.23-.9-1.97-2.87-3.25-5.03-3.25-.8,0-1.57.17-2.3.5l-21.7,9.86c-4.68,2.13-9.64,3.21-14.75,3.21-2.06,0-4.14-.18-6.18-.54l-6.62-1.16c-.07-.61-.24-1.21-.49-1.77-.98-2.15-3.14-3.54-5.5-3.54-.86,0-1.7.18-2.49.54l-5.24,2.38-13.78-2.41-14.9-34.5c8.72-1.91,16.58-4.4,23.41-7.41.6-.27,1.19-.53,1.78-.81,0,0,.02,0,.03-.01.58-.27,1.17-.55,1.74-.84.59-.29,1.15-.58,1.7-.87.58-.31,1.13-.6,1.67-.9,0,0,.05-.03.05-.03.52-.29,1.05-.59,1.57-.9,0,0,.05-.03.05-.03.51-.3,1.02-.61,1.52-.92l.07-.04c.5-.31.98-.62,1.46-.94l.09-.06c.47-.31.93-.63,1.39-.95l.04-.03.06-.04c.45-.32.89-.64,1.33-.97l.05-.04.07-.05c.43-.32.85-.65,1.27-.98l.06-.04.08-.06c.41-.33.81-.66,1.2-.99l.05-.04.1-.09c.39-.33.76-.66,1.13-1l.06-.05.11-.1c.36-.33.71-.67,1.06-1.01l.06-.06.12-.12c.34-.33.67-.67,1-1.01l.07-.08.12-.12c.32-.34.63-.68.93-1.02l.07-.08.14-.15c.3-.34.58-.68.87-1.02l.08-.09.14-.17c.28-.34.54-.68.81-1.03l.07-.1.14-.19c.25-.34.5-.68.74-1.03l.08-.11.14-.2c.23-.34.46-.68.68-1.03l.08-.12.14-.22c.22-.34.42-.69.63-1.04l.07-.12c.05-.08.1-.17.15-.25.2-.34.38-.69.57-1.04l.07-.14c.05-.09.1-.18.14-.26.18-.34.34-.69.51-1.04l.07-.15c.05-.09.09-.19.14-.28.16-.34.3-.68.45-1.03l.07-.16c.05-.1.09-.21.14-.31.14-.33.26-.66.39-1l.08-.2c.04-.11.09-.22.13-.34.11-.31.22-.63.32-.94l.03-.08.06-.18c.04-.12.08-.24.12-.35.09-.3.18-.6.26-.9l.03-.12.06-.19c.04-.13.07-.25.11-.38.08-.3.15-.6.22-.9l.03-.13.05-.2c.03-.13.06-.26.09-.39.06-.29.12-.59.17-.88l.03-.16.04-.2c.03-.14.05-.27.08-.41.05-.29.09-.58.13-.87l.03-.18.03-.21c.02-.14.04-.28.06-.42.04-.3.07-.61.1-.91l.02-.18.02-.22c.01-.13.03-.27.04-.4.03-.37.05-.74.07-1.11v-.1s.02-.18.02-.18c0-.12.02-.23.02-.35.02-.59.04-1.18.04-1.76,0-.98-.04-2.01-.11-3.17-.01-.23-.03-.45-.06-.68l-.03-.34c-.07-.83-.14-1.53-.22-2.18-.05-.39-.11-.79-.16-1.18-.1-.69-.22-1.38-.34-2.05-.07-.4-.15-.79-.23-1.19-.13-.65-.29-1.33-.5-2.15l-.08-.33c-.06-.24-.12-.48-.18-.72-.27-.99-.56-1.98-.87-2.94l-.02-.06c-.02-.06-.03-.11-.05-.17-.33-1-.7-2.04-1.13-3.16-.08-.22-.17-.44-.26-.65l-.14-.34c-.34-.83-.63-1.52-.91-2.16-.17-.37-.34-.74-.51-1.12l-.02-.05c-.32-.68-.64-1.35-.97-1.99-.2-.39-.4-.79-.61-1.18-.33-.62-.68-1.26-1.12-2.04l-.19-.33c-.14-.24-.27-.48-.42-.73-.5-.84-1.04-1.72-1.61-2.61l-.1-.16c-.06-.09-.11-.18-.17-.27-.62-.95-1.29-1.92-2.04-2.97-.15-.21-.3-.41-.45-.61l-.25-.33c-.58-.78-1.07-1.42-1.53-2-.26-.32-.52-.65-.78-.97l-.11-.13c-.5-.61-1-1.21-1.52-1.81-.32-.37-.64-.74-.97-1.11-.54-.61-1.1-1.21-1.66-1.82l-.28-.3c-.22-.24-.44-.47-.66-.7-.65-.68-1.37-1.39-2.19-2.19-.07-.07-.15-.15-.22-.22-.11-.11-.22-.22-.34-.33-.89-.85-1.85-1.73-2.86-2.62-.2-.18-.41-.36-.62-.53l-.35-.3c-.82-.7-1.46-1.24-2.08-1.75-.35-.28-.7-.56-1.05-.84l-.17-.13c-.66-.52-1.32-1.03-2-1.54-.43-.32-.86-.64-1.3-.96-.7-.51-1.41-1.01-2.14-1.51l-.34-.23c-.31-.21-.61-.43-.93-.64-.79-.53-1.64-1.08-2.68-1.73-.11-.07-.22-.14-.33-.21-.17-.11-.33-.22-.5-.32-1.14-.7-2.36-1.42-3.6-2.12-.24-.14-.49-.27-.74-.4l-.44-.24c-1.03-.57-1.84-1-2.62-1.4-.4-.21-.81-.41-1.22-.61l-.27-.14c-.81-.41-1.63-.8-2.46-1.19-.52-.25-1.05-.49-1.58-.73-.77-.35-1.62-.72-2.59-1.13l-.39-.16c-.38-.16-.75-.32-1.14-.48-.92-.38-1.92-.77-3.15-1.23-.14-.05-.28-.11-.42-.16-.21-.08-.42-.16-.64-.24-1.38-.5-2.82-1-4.28-1.47-.26-.08-.52-.16-.78-.24l-.49-.15-.55-.17c-.64-.2-1.28-.4-1.93-.59-.09-.03-.17-.04-.26-.06-8.26-2.37-16.86-3.94-25.6-4.67l-1.87-5.46c-3.05-8.9-11.43-14.88-20.84-14.89-.13,0-.26,0-.39,0l-20.59.36,3.2-9.23c4.49.49,9.13,1.06,13.82,1.68,7.92,1.04,15.98,2.24,23.97,3.57,2.82.45,5.63.96,8.6,1.49,1.61.29,3.24.59,4.88.87,1.21.24,2.46.48,3.72.73,3.3.64,6.72,1.31,10.08,2.02,1.62.36,3.27.72,4.92,1.07,2.91.62,5.92,1.26,8.8,1.99,1.34.33,2.66.65,3.98.96,3.22.77,6.25,1.49,9.24,2.33,1.24.34,2.45.66,3.64.98,3.02.8,5.88,1.56,8.61,2.43,1.41.44,2.78.84,4.13,1.24,2.39.71,4.65,1.37,6.75,2.1l9.17,3.1c1.72.6,3.31,1.22,4.71,1.76.78.3,1.5.58,2.18.84l6.03,2.31c.24.09.48.13.72.13.8,0,1.55-.48,1.86-1.26l1.99-5.02c.2-.5.19-1.07-.04-1.56-.22-.49-.64-.88-1.15-1.06l-6.2-2.23c-.7-.24-1.42-.51-2.2-.79-1.48-.54-3.15-1.15-4.99-1.74l-4-1.26-5.36-1.69c-2.23-.72-4.57-1.36-7.06-2.04-1.35-.37-2.72-.74-4.12-1.14-2.86-.84-5.81-1.56-8.93-2.32-1.2-.29-2.41-.59-3.63-.89-3.1-.8-6.37-1.51-9.53-2.19-1.32-.29-2.64-.57-3.97-.87-2.98-.68-6.06-1.27-9.03-1.84-1.65-.32-3.31-.63-4.96-.97-3.45-.65-6.91-1.25-10.26-1.83-1.27-.22-2.54-.44-3.79-.66-.5-.08-.99-.15-1.48-.23,2.27.08,4.54.17,6.8.27,4.01.14,8.01.36,12.25.58,2.29.12,4.6.25,6.93.36l4.44.29c5.01.33,10.19.66,15.29,1.06,2.33.21,4.68.4,7.03.59,4.17.34,8.48.69,12.65,1.15,2,.22,3.99.42,5.97.62,4.53.46,8.82.89,13.06,1.47,1.87.24,3.71.47,5.54.69,4.26.53,8.29,1.02,12.19,1.66,2.03.32,4.02.61,5.96.9,3.48.51,6.76,1,9.86,1.57l9.43,1.71,3.92.71c2.55.48,4.9,1,6.98,1.46,1.13.25,2.19.48,3.18.69l8.87,1.92c.14.03.29.05.43.05.91,0,1.74-.63,1.95-1.56l1.55-6.82c.12-.53.02-1.08-.27-1.53-.29-.45-.76-.77-1.29-.87l-9.05-1.78c-1.01-.19-2.07-.4-3.21-.63-2.15-.43-4.58-.92-7.24-1.36l-9.34-1.5-4.2-.68c-3.22-.54-6.58-.96-10.15-1.42-1.94-.25-3.93-.5-5.95-.78-4.02-.58-8.13-1-12.48-1.45-1.82-.19-3.67-.38-5.53-.58-4.33-.5-8.68-.86-13.28-1.23-1.99-.16-3.99-.32-5.99-.5-4.25-.38-8.63-.65-12.86-.91-2.35-.14-4.71-.29-7.06-.45-5.19-.3-10.41-.54-15.46-.77l-4.49-.21c-2.36-.07-4.66-.15-6.95-.23-4.28-.15-8.33-.28-12.39-.35-8.71-.2-17.64-.3-26.53-.3-2.66,0-5.23,0-7.7.03-6.58.04-13.12.13-19.46.29-2.21-7.04-8.31-11.82-15.35-11.82s-13.09,4.76-15.32,11.76c-5.39-.12-10.92-.19-16.45-.22-2.47-.02-5.04-.03-7.7-.03-8.89,0-17.82.1-26.55.3-4.04.06-8.09.2-12.37.35-2.29.08-4.6.16-6.92.22l-4.52.21c-5.05.23-10.27.47-15.43.76-2.38.17-4.73.31-7.09.46-4.23.26-8.6.53-12.86.91-2,.18-4,.34-5.99.5-4.6.37-8.95.73-13.3,1.23-1.85.2-3.7.39-5.52.58-4.35.45-8.47.88-12.49,1.45-2.01.28-4,.53-5.94.78-3.57.45-6.93.88-10.16,1.42l-7.7,1.24-5.82.94c-2.67.45-5.11.93-7.26,1.37-1.13.23-2.2.44-3.19.63l-9.07,1.78c-.53.1-1,.42-1.29.87-.29.45-.39,1.01-.27,1.53l1.55,6.82c.21.93,1.03,1.56,1.95,1.56.14,0,.28-.01.43-.05l8.89-1.93c.97-.2,2.03-.44,3.16-.69,2.08-.46,4.44-.98,6.99-1.46l5.54-1,7.79-1.41c3.11-.58,6.39-1.06,9.87-1.58,1.94-.29,3.93-.58,5.95-.9,3.91-.64,7.93-1.13,12.2-1.66,1.82-.22,3.66-.45,5.52-.69,4.25-.58,8.54-1.01,13.07-1.47,1.98-.2,3.96-.4,5.96-.62,4.17-.46,8.48-.81,12.65-1.15,2.35-.19,4.7-.38,7.06-.59,5.08-.39,10.25-.73,15.25-1.05l4.48-.29c2.29-.11,4.6-.23,6.89-.36,4.24-.23,8.24-.44,12.24-.58,2.26-.1,4.53-.18,6.81-.27-.48.07-.96.15-1.44.22-1.3.23-2.56.45-3.83.66-3.35.58-6.82,1.18-10.24,1.82-1.67.34-3.33.66-4.97.97-2.98.57-6.06,1.16-9.05,1.85-1.32.29-2.64.58-3.95.87-3.16.69-6.44,1.4-9.55,2.2-1.2.3-2.41.6-3.61.89-3.13.76-6.08,1.48-8.96,2.32-1.39.4-2.77.77-4.11,1.14-2.49.68-4.83,1.32-7.08,2.04l-9.33,2.93c-1.86.6-3.53,1.21-5.01,1.75-.77.28-1.5.55-2.18.78l-6.22,2.24c-.51.18-.92.57-1.15,1.06s-.24,1.06-.04,1.56l1.99,5.02c.31.78,1.06,1.26,1.86,1.26.24,0,.48-.04.72-.13l6.04-2.32c.66-.25,1.39-.53,2.17-.83,1.4-.55,3-1.16,4.73-1.77l9.13-3.09c2.12-.74,4.38-1.4,6.77-2.11,1.34-.4,2.72-.8,4.11-1.23,2.74-.87,5.6-1.63,8.63-2.43,1.19-.32,2.4-.64,3.62-.97,3-.84,6.04-1.57,9.26-2.34,1.31-.31,2.64-.63,3.96-.96,2.89-.73,5.9-1.37,8.81-1.99,1.65-.35,3.3-.7,4.94-1.07,3.33-.7,6.75-1.37,10.05-2.01,1.26-.25,2.52-.49,3.76-.74,1.59-.28,3.22-.57,4.83-.86,2.97-.54,5.78-1.04,8.59-1.49,8-1.33,16.06-2.53,23.98-3.58,4-.53,7.99-1.02,11.88-1.47l3.21,9.26-46.32.81c-5.94.1-11.46,2.53-15.56,6.83-4.1,4.3-6.26,9.93-6.08,15.87l.27,8.85-138.34,8.52-20.56-32.39,19.46,15.08c.35.27.78.42,1.22.42.13,0,.26-.01.39-.04.57-.11,1.06-.46,1.35-.97l5.35-9.32c.28-.48.34-1.05.18-1.58-.16-.53-.53-.97-1.03-1.21l-37-18.25-3.19-5.03c-1.06-1.66-2.73-2.81-4.66-3.2-.62-.43-1.29-.77-1.99-.99l-.61-46.9c0-.58-.26-1.12-.71-1.5-.36-.31-.82-.48-1.29-.48h0ZM353.49,238.87l7.69-34.6c6.88,2.56,14.27,4.88,22.02,6.93l9.56,17.92-22.45-3.92c-.31-.06-.65-.09-.98-.09-2.68,0-4.96,1.93-5.43,4.59-.52,3.01,1.49,5.88,4.5,6.4l61.58,10.75-.87,5.22-75.63-13.2h0ZM409.11,231.98l-9-16.87c11.44,2.28,23.2,3.91,34.37,4.75l-2.68,16.08-22.69-3.96h0ZM452.75,220.54c11.86-.04,23.13-.82,33.54-2.3l12.71,29.43-49.34-8.62,3.09-18.52h0ZM446.97,255.19l.87-5.22,62.44,10.9c-4.19,1.69-8.59,2.54-13.11,2.54-2.03,0-4.07-.18-6.09-.53l-44.11-7.7h0Z"/><path class="cls-1" d="M166.96,67.36l26.55,42.56,142.06-9.18"/><path class="cls-1" d="M312.29,132.44l-141.81-6.78-23.86-65.17"/><path class="cls-1" d="M335.03,100.74l-.39-10.32c-.34-11.16,8.51-20.44,19.67-20.63l81.24-1.41c8.69-.15,16.48,5.31,19.3,13.53l2.3,6.7c57.59,4.21,95.95,43.58,95.95,78.45,0,35.96-46.66,51.49-101.43,51.49-54.77,0-142.63-23.22-144.89-66.63-.86-16.55,12.59-31.92,35.3-43.43"/><path class="cls-1" d="M522.12,206.63l-16.47-2.81c-7.37-1.26-10.11-10.19-4.94-15.58,4.17-4.34,6.94-9.41,6.94-16.5,0-30.18-15.86-58.72-57.36-71.85-2.99-1.89-1.65-6.52,1.89-6.52h31.72"/><path class="cls-1" d="M428.62,175.37c-19.22-21.16-26.81-53.83-13.16-65.82,13.66-11.99,43.4,1.25,62.62,22.4,15.94,17.55,21.75,39.01,15.48,52.67l-48.93,4.28"/><path class="cls-1" d="M399.75,180.86l-18.74.93c-4.65.23-8.83-3.19-10.18-8.3-4.16-15.74-10.93-48.42.85-59.8l27.35-3.81s-5.55,37.54,5.7,60.67"/><path class="cls-1" d="M154.07,61.66c2.25-1.01,3.21-3.74,2.16-6.09-1.06-2.35-3.74-3.44-5.99-2.43-2.25,1.01-3.21,3.74-2.16,6.09,0,0,.86,2.25,3.68,2.89"/><polyline class="cls-1" points="152.11 52.65 151.47 3.5 140.85 5.11 151.19 52.74"/><polyline class="cls-1" points="147.75 58.34 101.5 71.74 105.88 81.56 148.13 59.41"/><polyline class="cls-1" points="156.35 59.26 194.69 88.96 200.04 79.64 156.69 58.25"/><polyline class="cls-1" points="398.45 52.62 403.68 69.76 411.75 69.76 417.15 52.53"/><path class="cls-1" d="M421.25,51.7l-28.16-.22"/><path class="cls-1" d="M476.08,55.78c6.23.22,12.66.63,19.19.94,6.53.43,13.16.84,19.79,1.35,6.62.59,13.25,1.03,19.75,1.74,6.5.7,12.91,1.25,19.08,2.09,6.17.8,12.15,1.44,17.78,2.36,5.63.89,10.98,1.57,15.86,2.48,4.89.88,9.37,1.7,13.34,2.42,3.96.74,7.38,1.57,10.21,2.16,5.65,1.23,8.88,1.93,8.88,1.93l1.55-6.82s-3.29-.65-9.05-1.78c-2.88-.54-6.37-1.31-10.39-1.98-4.03-.65-8.58-1.38-13.54-2.18-4.96-.83-10.36-1.41-16.06-2.19-5.69-.82-11.73-1.34-17.96-2.03-6.23-.72-12.69-1.15-19.23-1.73-6.55-.59-13.22-.9-19.88-1.36-6.67-.38-13.33-.66-19.9-.97-6.57-.19-13.03-.47-19.28-.57-12.51-.28-24.18-.34-34.19-.27-20,.11-21.21.42-21.21.42"/><path class="cls-1" d="M432.2,57.2c7.05.93,15.27,2.12,24.03,3.58,4.39.7,8.9,1.57,13.49,2.37,4.58.9,9.23,1.78,13.87,2.76,4.62,1.04,9.27,1.94,13.79,3.08,4.52,1.11,9,2.11,13.27,3.31,4.28,1.17,8.44,2.2,12.31,3.42,3.88,1.2,7.59,2.2,10.93,3.36,3.35,1.13,6.42,2.17,9.15,3.09,2.71.94,5.03,1.9,6.96,2.62,3.85,1.47,6.04,2.32,6.04,2.32l1.99-5.02s-2.26-.81-6.2-2.23c-1.98-.69-4.36-1.61-7.13-2.51-2.78-.87-5.92-1.86-9.34-2.94-3.41-1.11-7.18-2.04-11.13-3.17-3.94-1.15-8.16-2.11-12.5-3.19-4.33-1.12-8.87-2.03-13.45-3.05-4.58-1.05-9.28-1.86-13.95-2.8-4.68-.88-9.38-1.67-14-2.48-4.64-.71-9.18-1.48-13.61-2.09-8.84-1.28-32.06-4.67-39.16-5.45"/><path class="cls-1" d="M393.71,51.7c-10-.07-39.96-.34-52.47-.06-6.25.1-12.71.38-19.28.57-6.56.3-13.23.58-19.9.97-6.66.47-13.33.77-19.88,1.36-6.55.58-13.01,1.01-19.24,1.73-6.23.69-12.27,1.21-17.96,2.03-5.7.79-11.1,1.37-16.06,2.19-4.96.8-9.51,1.53-13.54,2.18-4.03.67-7.51,1.44-10.39,1.98-5.76,1.13-9.05,1.78-9.05,1.78l1.55,6.82s3.23-.7,8.89-1.93c2.83-.59,6.25-1.41,10.21-2.16,3.97-.72,8.45-1.53,13.34-2.42,4.88-.91,10.23-1.59,15.86-2.48,5.62-.92,11.61-1.56,17.78-2.36,6.17-.84,12.58-1.39,19.08-2.09,6.5-.72,13.13-1.15,19.75-1.74,6.62-.51,13.26-.92,19.79-1.35,6.54-.32,12.96-.73,19.19-.94,12.45-.52,24.09-.81,34.06-.94"/><path class="cls-1" d="M398.95,51.84c-7.1.78-29.39,4.5-38.22,5.78-4.42.61-8.97,1.38-13.61,2.09-4.62.81-9.32,1.59-14,2.48-4.67.95-9.37,1.76-13.95,2.8-4.58,1.02-9.11,1.93-13.45,3.05-4.34,1.09-8.56,2.04-12.5,3.19-3.95,1.13-7.72,2.06-11.13,3.17-3.42,1.08-6.56,2.06-9.34,2.94-2.77.9-5.15,1.82-7.13,2.51-3.95,1.42-6.2,2.23-6.2,2.23l1.99,5.02s2.2-.84,6.04-2.32c1.93-.72,4.24-1.67,6.96-2.62,2.72-.92,5.8-1.96,9.15-3.09,3.34-1.16,7.05-2.16,10.93-3.36,3.87-1.22,8.03-2.25,12.31-3.42,4.27-1.2,8.75-2.2,13.27-3.31,4.52-1.14,9.17-2.04,13.79-3.08,4.63-.98,9.29-1.85,13.87-2.76,4.59-.8,9.11-1.67,13.49-2.37,8.77-1.46,30.93-4.27,37.98-5.2"/><polyline class="cls-1" points="359.96 201.76 351.08 240.48 430.75 254.39 436.77 218.06"/><path class="cls-1" d="M451.63,218.06l-6.95,38.76,46.07,8.04c7.41,1.29,14.96.33,21.81-2.78l21.7-9.87c2.03-.91,4.42-.03,5.35,2,.92,2.03.03,4.43-2,5.35l-21.71,9.87c-5.93,2.7-12.28,4.07-18.71,4.07-2.61,0-5.23-.23-7.83-.68l-178.24-31.12c-2.2-.38-3.67-2.48-3.28-4.67.38-2.2,2.47-3.67,4.67-3.28l24.63,4.3,9.18-42.05"/></svg>