<?xml version="1.0" encoding="UTF-8"?><svg xmlns="http://www.w3.org/2000/svg" viewBox="0 0 723 277"><defs><style>.cls-1{fill:#fff;}.cls-1,.cls-2{fill-rule:evenodd;}.cls-3,.cls-2{fill:none;stroke:#000;stroke-linecap:round;stroke-linejoin:round;}.cls-4{isolation:isolate;}.cls-5{mix-blend-mode:soft-light;}</style></defs><g class="cls-4"><g id="Gráfica"><path class="cls-1" d="M462.52,274.5c-4.07,0-7.61-3.07-8.23-7.15-1.81-11.84-4.02-29.69-4.27-47.45-.51-35.59-16-69.69-18.21-74.39-1.93.59-3.79,1.35-5.54,2.27l-1.93,1.01c-5.4,2.82-13.08,6.79-18.96,9.68-1.19.59-2.52,1.15-4.04,1.72-.87.32-1.76.62-2.65.89-.85.26-1.71.49-2.55.69-.33.08-.67.16-1,.23,0,3.83-.01,7.66-.02,10.6,0,2.62-.01,4.15-.09,5.04h.02c.07.26.1.53.1.79,0,.65-.21,1.61-1.16,2.61v9.59c6.56.94,11.57,6.62,11.57,13.32v17.28c0,7.43-6.04,13.47-13.47,13.47h-5.45c-3.5,4.05-8.53,6.36-13.89,6.36s-10.47-2.35-13.97-6.46c-6.71-.79-11.9-6.58-11.9-13.37v-17.28c0-7.43,6.04-13.47,13.47-13.47h7.93v-7.8c-2.85-1.45-3.47-3.09-3.47-4.25,0-.08,0-.16,0-.23,0-.06.01-.12,0-.18,0-.05,0-.09,0-.14v-16.08l-.26-.02c-1.54-.09-3.1-.27-4.62-.52-.76-.13-1.52-.27-2.28-.44-1.5-.33-3.01-.75-4.47-1.24-2.2-.73-4.36-1.65-6.42-2.72l-18.98-9.89c-2.14,13.29-5.5,36.92-5.67,55.38-.1,10.16-3.56,20.12-9.75,28.04l-17.68,22.63c-.65.83-1.26,1.74-1.85,2.62-1.33,1.97-2.7,4.01-4.69,5.55-2.48,1.92-5.54,3.11-8.4,3.25-.21.01-.41.02-.62.02-1.29,0-2.52-.21-3.67-.62-5.12-1.82-8.35-6.5-8.24-11.93.57-28.14,4.42-80.07,23.71-114.26l-50.56-4.73c-1.43-.13-2.89-.2-4.33-.2-2.78,0-5.57.25-8.31.75l-16.4,2.98c-.43.08-.87.14-1.3.18-.3.03-.6.04-.9.05,0,0-.29.02-.36.02h-.21c-.33,0-.66-.01-.99-.03-.72-.04-1.3-.11-1.85-.21l-12.85-2.31c-4.52-.81-7.79-4.88-7.62-9.47.12-3.19,1.49-6.26,3.77-8.5v-32.29c-.02-.07-.04-.18-.04-.32,0-.17.03-.3.05-.37,0,0,.01-.06.02-.09h0c.54-2.71,5.68-4.06,9.22-4.67v-.26c-6.39-.66-15.85-2.82-25.57-5.87-1.32-.41-32.39-10.21-30.54-16.11.54-1.71,3.15-1.91,5.08-1.91,6.03,0,17.22,2.33,29.2,6.08,8.47,2.65,16.39,5.73,22.03,8.54.84-5.98,4.2-10.32,8.18-10.32h2.01c4.62,0,8.38,5.92,8.38,13.2v4.17c7.97.78,19.9,3.5,32.2,7.35,5.19,1.62,10.18,3.36,14.83,5.16l24.1-8.49c1.07-.38,1.77-1.27,1.89-2.39.11-1.12-.4-2.17-1.34-2.72-.13-.08-.28-.15-.44-.22l-20.58-8.22c-1.35-.54-2.51-1.47-3.37-2.69l-.08-.1c-.08-.1-.16-.21-.22-.32-.86-1.43-1.22-3.05-1.05-4.71v-.14c.06-.44.15-.89.28-1.34.07-.26.18-.51.28-.76l.07-.17c.03-.09.07-.17.11-.26.16-.33.35-.66.59-1.02.26-.38.51-.69.81-1.01,1.44-1.52,3.36-2.38,5.4-2.44,1.54-.04,3.42-.09,5.58-.14-.02-2.61-.03-8.37-.04-12.7-1.72,1.14-3.51,2.28-5.34,3.39-10.79,6.58-20.63,11-24.49,11-1.05,0-1.78-.32-2.17-.96-.64-1.05-.61-2.9,5.37-8,3.97-3.38,9.57-7.33,15.77-11.11,3.69-2.25,7.42-4.33,10.85-6.06v-1.19c0-.2.06-.39.16-.55.84-2.22,5.23-3.27,8.36-3.74v-5.14c0-6.16,3.09-10.99,7.04-10.99h1.65c3.74,0,6.72,4.33,7.02,10.03,3.02-2.22,6.69-4.5,10.54-6.54,7.35-3.9,14.13-6.32,17.7-6.32,2.37,0,2.97,1.13,3.12,1.8.85,3.89-10.23,11.34-17.88,15.4-2.67,1.42-5.33,2.67-7.81,3.67,1.03.59,1.65,1.26,1.87,2.02.03.09.06.18.06.28.01.06.04.16.04.29,0,.12-.02.21-.03.28v24.54c38.57-.59,91.75-1.22,107.24-1.4h.6c1.66,0,3.33.08,4.99.24,12.03,1.16,61.22,5.9,96.24,9.29v-21.92c-.01-.06-.03-.16-.03-.28,0-.16.03-.28.05-.35,0-.02.01-.07.01-.07.16-.82.8-1.55,1.9-2.18-2.48-1.01-5.14-2.26-7.81-3.67-7.65-4.06-18.73-11.51-17.88-15.4.15-.67.75-1.8,3.12-1.8,3.57,0,10.35,2.42,17.7,6.32,3.85,2.04,7.53,4.33,10.54,6.54.3-5.7,3.28-10.03,7.02-10.03h1.65c3.95,0,7.04,4.83,7.04,10.99v5.14c3.15.47,7.58,1.53,8.38,3.78.09.15.14.32.14.5v1.19c3.43,1.72,7.17,3.81,10.85,6.06,6.2,3.78,11.8,7.72,15.77,11.11,5.98,5.09,6.01,6.95,5.37,8-.39.63-1.12.96-2.17.96h0c-3.86,0-13.7-4.42-24.49-11-1.82-1.11-3.61-2.25-5.34-3.39,0,4.96-.02,10.43-.04,12.83,5.11,1.39,8.05,4.93,7.91,9.6,0,.08-.01.15-.03.23l-.39,1.49s-.02.26-.02.26c0,.07,0,.14,0,.21,0,.06-.01.13-.02.19-.03.24-.05.42-.08.61-.02.15-.05.29-.08.44-.05.25-.11.5-.18.76,0,0-.03.11-.03.11-.11.4-.24.79-.39,1.17,4.39-.51,8.35-.78,11.54-.78,7.48,0,8.71,1.42,8.95,2.66.25,1.28-.46,3.35-9.41,6.62-5.97,2.18-14.05,4.31-22.74,6-5.81,1.13-11.54,1.98-16.62,2.48,0,5.68,0,20.34-.05,27.19l1.63,1.35c2.71,2.24,4.24,5.53,4.19,9.04-.04,3.51-1.65,6.77-4.41,8.94l-9.25,7.27c-.59.46-1.27.88-2.06,1.27-1.59.78-3.36,1.19-5.11,1.19-1.43,0-2.84-.26-4.17-.79l-20.78-8.13-11.06.58c8.22,21,10.93,48.17,11.75,67.45.33,7.81-.87,15.46-3.56,22.76l-12.18,33.07c-1.39,3.81-2.97,8.12-8.2,8.94-.35.05-.69.09-1.04.1h-.26ZM304.03,139.02c-5.93,9.11-10.73,20.36-14.67,34.36-3.46,12.31-6.01,25.87-7.78,41.44-1.33,11.7-2.62,24.12-2.41,36.09.02.96.29.96.4.96.6,0,1.66-.63,2.31-1.38.37-.43.66-.94.96-1.48.29-.52.59-1.06.99-1.58l19.07-24.4c4.58-5.86,7.14-13.24,7.21-20.78.2-21.31,4.37-48.58,6.31-60.18-.26-.08-1.19-.38-1.19-.38-1.88-.6-3.52-1.07-5.04-1.44-2-.49-4.06-.89-6.16-1.22ZM444.21,143.84c4.75,10.78,17.29,42.36,17.78,75.88.14,9.76.91,20.55,2.28,32.13l8.7-23.61c2.14-5.8,3.09-11.9,2.83-18.12-.56-13.19-2.89-45.96-12.47-67.29l-19.12,1.01ZM227.39,101.4l13.63-4.8c-4.79-1.58-9.42-3.26-13.62-4.94,0,2.96,0,6.4-.01,9.75Z"/><path d="M328.47,3.5c1.23,0,1.99.33,2.14,1.01.55,2.52-7.23,8.92-17.37,14.3-3.64,1.93-7.08,3.46-10.03,4.52,2.1.65,3.43,1.49,3.61,2.41h0v.05c0,.06.03.11.03.17s-.02.11-.03.17v25.67c39.63-.61,95.34-1.27,108.25-1.41.2,0,.39,0,.59,0,1.63,0,3.26.08,4.89.24,12.16,1.17,62.25,6,97.34,9.39v-23.13c0-.06-.03-.11-.03-.17s.02-.11.03-.17v-.05h0c.18-.92,1.51-1.76,3.61-2.41-2.95-1.06-6.39-2.59-10.03-4.52-10.15-5.38-17.92-11.78-17.37-14.3.15-.69.91-1.01,2.14-1.01,3.27,0,9.86,2.29,17.23,6.2,4.71,2.5,8.89,5.21,11.99,7.66v-1.04c0-5.5,2.72-9.99,6.04-9.99h1.65c3.32,0,6.04,4.5,6.04,9.99v6.01c4.8.62,8.18,1.9,8.48,3.41h.04s0,.67,0,1.81c3.46,1.72,7.32,3.85,11.33,6.29,12.73,7.76,22.04,15.7,20.8,17.73-.2.32-.65.48-1.32.48-3.55,0-13.26-4.33-23.97-10.86-2.43-1.48-4.73-2.97-6.86-4.42,0,6.44-.02,13.63-.05,15.49,4.57,1,8.07,3.96,7.92,8.79l-.42,1.58c0,.1-.02.2-.02.3,0,.08,0,.16,0,.24,0,.07-.02.15-.03.22-.02.17-.04.34-.07.51-.02.13-.04.26-.07.39-.05.24-.1.47-.16.7,0,.03-.02.07-.03.1-.26.95-.65,1.84-1.15,2.65,5.15-.66,9.71-1,13.26-1,4.76,0,7.73.6,7.97,1.85.55,2.85-13.49,7.97-31.36,11.44-6.36,1.23-12.34,2.09-17.43,2.56,0,4.58,0,21.44-.05,28.57l2,1.65c5.19,4.29,5.09,12.27-.2,16.43l-7.02,5.51h0s-2.24,1.76-2.24,1.76c-.59.46-1.23.84-1.88,1.16-1.46.72-3.06,1.09-4.67,1.09-1.28,0-2.57-.23-3.8-.72l-20.99-8.21-12.66.67c8.82,21.63,11.44,50.67,12.19,68.42.32,7.67-.85,15.2-3.5,22.37-2.45,6.64-4.89,13.28-7.34,19.92-1.56,4.22-3.11,8.45-4.67,12.67-1.46,3.95-2.75,8.02-7.6,8.79-.31.05-.61.08-.91.09-.08,0-.15,0-.23,0-3.58,0-6.69-2.66-7.24-6.3-1.8-11.81-4-29.61-4.26-47.32-.55-38.26-18.39-75-18.57-75.37l1.03-.51c-2.66.65-5.23,1.61-7.67,2.88-.61.32-1.26.66-1.93,1.01-5.68,2.97-13.16,6.83-18.94,9.67-1.29.63-2.61,1.18-3.95,1.68-.86.32-1.72.61-2.59.87-.83.25-1.66.47-2.5.67-.59.14-1.18.28-1.77.39,0,8.18-.03,16.69-.06,16.69.05.18.07.37.07.55,0,.78-.42,1.52-1.16,2.19v10.91c6.44.47,11.57,5.87,11.57,12.42v17.28c0,6.86-5.61,12.47-12.47,12.47h-5.92c-3.18,3.88-8.01,6.36-13.42,6.36s-10.28-2.5-13.46-6.42c-6.36-.55-11.4-5.92-11.4-12.41v-17.28c0-6.86,5.61-12.47,12.47-12.47h8.93v-9.43c-2.16-.97-3.47-2.23-3.47-3.62,0-.19.03-.37,0-.55v-17.02h-.03s-1.18-.07-1.18-.07c-1.52-.09-3.02-.26-4.52-.51-.75-.12-1.49-.27-2.23-.43-1.48-.33-2.93-.73-4.37-1.21-2.15-.72-4.25-1.61-6.27-2.66l-19.91-10.37c-.1-.05-.2-.1-.3-.15-2.1,12.86-5.72,37.66-5.9,56.89-.09,9.94-3.48,19.68-9.54,27.43-5.89,7.54-11.79,15.09-17.68,22.63-2.09,2.68-3.63,5.87-6.36,7.99-2.21,1.71-5.02,2.9-7.84,3.04-.19,0-.38.01-.57.01-1.13,0-2.26-.17-3.34-.56-4.71-1.67-7.68-5.98-7.58-10.97.59-29.17,4.62-81.36,24.35-115.13l-52.11-4.87c-1.47-.14-2.94-.21-4.42-.21-2.84,0-5.68.26-8.49.77l-16.4,2.98c-.4.07-.81.13-1.22.17-.3.03-.59.04-.89.05-.1,0-.19.01-.29.01-.07,0-.14,0-.2,0-.31,0-.62-.01-.93-.03,0,0-.01,0-.02,0-.57-.04-1.15-.09-1.71-.19l-12.85-2.31c-4.05-.73-6.95-4.33-6.79-8.45.12-3.17,1.53-6.06,3.78-8.11,0-.11,0-.22-.01-.32v-32.49c-.01-.07-.04-.14-.04-.21s.03-.14.04-.21v-.06h.01c.34-1.72,3.97-3.21,9.24-4.01v-2.02c-6.1-.51-15.71-2.6-26.27-5.91-17.37-5.44-30.76-12.09-29.89-14.86.26-.82,1.73-1.21,4.12-1.21,5.71,0,16.67,2.2,28.91,6.03,9.47,2.96,17.74,6.29,23.18,9.15.4-6.09,3.55-10.88,7.33-10.88h2.01c4.06,0,7.38,5.49,7.38,12.2v5.08c7.62.63,19.65,3.24,32.9,7.39,5.42,1.69,10.52,3.48,15.12,5.27l24.45-8.61c3.14-1.11,3.42-5.31.73-6.92-.18-.11-.37-.2-.58-.29l-20.58-8.22c-1.22-.49-2.21-1.32-2.92-2.34-.09-.12-.19-.24-.27-.37,0,0,0,0,0,0-.72-1.2-1.06-2.62-.91-4.08v-.14c.06-.4.14-.79.25-1.16.07-.26.18-.5.28-.74.04-.1.07-.2.12-.3.15-.31.32-.61.52-.89,0-.01.01-.03.02-.04.2-.3.43-.58.68-.84,0,0,0,0,0,0h0c1.2-1.26,2.85-2.08,4.7-2.13,1.77-.05,3.99-.1,6.56-.16-.03-1.76-.05-9.04-.05-15.55-2.13,1.45-4.43,2.94-6.86,4.42-10.71,6.53-20.42,10.86-23.97,10.86-.67,0-1.12-.15-1.32-.48-1.24-2.03,8.08-9.97,20.8-17.73,4.01-2.44,7.87-4.58,11.33-6.29,0-1.13,0-1.81,0-1.81h.04c.3-1.51,3.68-2.8,8.48-3.41v-6.01c0-5.5,2.72-9.99,6.04-9.99h1.65c3.32,0,6.04,4.5,6.04,9.99v1.04c3.09-2.45,7.28-5.16,11.99-7.66,7.37-3.91,13.96-6.2,17.23-6.2M226.38,102.81l17.76-6.26c-6.5-2.06-12.53-4.24-17.74-6.39,0,3.66,0,8.29-.01,12.64M279.57,252.87c1,0,2.31-.86,3.07-1.72.83-.95,1.21-2.12,1.98-3.1.85-1.08,1.69-2.16,2.53-3.24,3.83-4.9,7.66-9.8,11.49-14.7,1.68-2.15,3.36-4.31,5.05-6.46,4.71-6.03,7.35-13.63,7.42-21.38.2-21.46,4.38-48.69,6.43-60.87-.67-.23-1.34-.44-2.01-.66-1.69-.54-3.39-1.04-5.11-1.46-2.27-.55-4.56-.99-6.88-1.33-7.07,10.68-11.7,22.9-15.15,35.17-3.82,13.6-6.21,27.58-7.81,41.6-1.36,11.92-2.62,24.21-2.42,36.22.02,1.42.62,1.94,1.4,1.94M463.78,256.06l10.12-27.47c2.18-5.93,3.16-12.16,2.89-18.5-.62-14.62-3.08-47.09-12.84-68.28l-21.25,1.12c4.33,9.59,17.78,42.06,18.29,76.82.19,12.85,1.44,25.8,2.79,36.32M547.74,36.49h0M328.47,1.5h0c-3.72,0-10.68,2.47-18.16,6.44-3.31,1.76-6.5,3.69-9.26,5.61-.82-5.35-3.97-9.22-7.84-9.22h-1.65c-4.51,0-8.04,5.27-8.04,11.99v4.29c-4.74.81-7.52,2.22-8.29,4.21-.15.28-.24.59-.24.93v.57c-3.3,1.68-6.86,3.68-10.37,5.82-6.24,3.81-11.89,7.78-15.9,11.2-5.25,4.47-6.87,7.16-5.58,9.28.4.65,1.25,1.43,3.02,1.43,4.97,0,16.58-6.01,25.01-11.15,1.3-.79,2.57-1.59,3.82-2.4,0,3.74.02,7.51.03,9.87-1.75.04-3.29.08-4.6.12-2.31.07-4.48,1.04-6.1,2.75,0,0-.01.02-.02.02-.32.33-.6.69-.86,1.07-.02.02-.04.05-.05.08-.26.39-.47.76-.64,1.12-.05.1-.1.22-.14.34,0,0-.02.05-.02.05l-.04.09c-.1.24-.22.53-.32.87-.14.49-.24,1-.3,1.5v.14c-.21,1.87.2,3.71,1.17,5.32.09.14.18.28.29.41l.06.08c.97,1.38,2.29,2.43,3.81,3.04l20.58,8.22c.1.04.2.09.3.15.72.43.91,1.19.86,1.77-.03.35-.22,1.19-1.22,1.55l-23.75,8.37c-4.58-1.76-9.47-3.46-14.55-5.05-11.9-3.73-23.48-6.4-31.5-7.29v-3.27c0-7.96-4.12-14.2-9.38-14.2h-2.01c-4.17,0-7.72,4.07-8.93,9.84-5.59-2.68-13.05-5.53-20.98-8.02-12.07-3.78-23.38-6.13-29.5-6.13h-.02c-1.44,0-5.2.01-6.01,2.61-.81,2.6,1.92,5.24,9.12,8.82,5.74,2.85,13.58,5.89,22.08,8.55,7.65,2.4,15.15,4.25,21.14,5.26-3.1,1.01-4.91,2.38-5.41,4.09-.05.15-.09.31-.11.47-.02.12-.05.29-.05.48,0,.16.02.31.04.42v31.77c-2.28,2.38-3.64,5.57-3.77,8.87-.2,5.08,3.43,9.59,8.44,10.49l12.85,2.31c.59.11,1.2.18,1.94.22.02,0,.05,0,.07,0,.31.02.66.03,1.01.03h.24c.08,0,.16,0,.25-.01h.07s.07,0,.07,0c.32-.01.64-.02.95-.06.47-.04.94-.11,1.38-.19l16.4-2.98c2.67-.49,5.41-.73,8.13-.73,1.41,0,2.83.07,4.23.2l49.04,4.59c-8.05,14.76-14.12,34-18.06,57.25-3.65,21.52-4.75,42.4-5.03,56.14-.12,5.87,3.38,10.93,8.91,12.9,1.26.45,2.61.67,4.01.67.22,0,.45,0,.67-.02,3.1-.16,6.29-1.39,8.96-3.46,2.11-1.64,3.53-3.74,4.9-5.78.61-.91,1.19-1.76,1.81-2.56l16.81-21.52.87-1.12c6.32-8.1,9.86-18.27,9.96-28.65.17-17.77,3.3-40.39,5.44-53.86l17.75,9.25c2.1,1.1,4.31,2.03,6.56,2.78,1.49.5,3.03.92,4.57,1.26.77.17,1.55.32,2.33.45,1.34.22,2.69.38,4.05.48v15.14c0,.07,0,.14.01.2v.07c0,.09-.01.18-.01.28,0,1.36.64,3.23,3.47,4.84v6.2h-6.93c-7.98,0-14.47,6.49-14.47,14.47v17.28c0,7.16,5.38,13.29,12.39,14.31,3.68,4.15,8.91,6.52,14.48,6.52s10.67-2.31,14.34-6.36h5c7.98,0,14.47-6.49,14.47-14.47v-17.28c0-6.91-4.95-12.8-11.57-14.16v-8.37c.94-1.13,1.16-2.22,1.16-2.99,0-.24-.02-.49-.06-.73,0-.06,0-.11,0-.17,0-.25,0-.62.01-1.09,0-.93.01-2.25.02-3.83,0-2.74.02-6.25.02-9.81.08-.02.16-.04.24-.06.87-.21,1.75-.44,2.61-.7.91-.27,1.82-.58,2.71-.91,1.56-.58,2.91-1.15,4.14-1.75,5.9-2.89,13.58-6.87,18.98-9.69l1.93-1.01c1.45-.76,2.97-1.41,4.54-1.94,3.16,6.9,17.26,39.5,17.75,73.19.26,17.82,2.47,35.71,4.28,47.59.7,4.56,4.66,8,9.22,8,.1,0,.19,0,.29,0,.39-.01.78-.05,1.16-.11,5.81-.92,7.57-5.72,8.99-9.59l.18-.48,2.33-6.34,2.33-6.33,7.34-19.92c2.74-7.42,3.95-15.21,3.62-23.15-1.41-33.3-6.72-54.26-11.32-66.48l9.47-.5,20.58,8.05c1.45.57,2.97.85,4.53.85,1.91,0,3.83-.45,5.55-1.29.86-.42,1.59-.87,2.24-1.38l2.24-1.76,7.02-5.51c3-2.36,4.75-5.9,4.79-9.71.05-3.82-1.61-7.4-4.56-9.83l-1.26-1.04c.03-6.55.04-19.06.04-25.82,4.89-.51,10.31-1.34,15.82-2.41,8.74-1.7,16.87-3.84,22.89-6.04,7.56-2.76,10.57-5.08,10.05-7.75-.47-2.43-3.44-3.46-9.93-3.47-2.84,0-6.29.21-10.11.62.06-.24.11-.46.16-.69.03-.15.06-.31.08-.47.03-.21.06-.41.08-.61.01-.09.03-.18.03-.26,0-.09.01-.19.01-.28v-.06s0-.02,0-.03l.37-1.4c.04-.15.06-.3.07-.45.15-4.86-2.84-8.72-7.9-10.37.02-2.31.03-6.3.03-10.24,1.25.81,2.52,1.61,3.82,2.4,8.43,5.14,20.04,11.15,25.01,11.15,1.78,0,2.62-.78,3.02-1.44,1.29-2.12-.33-4.8-5.58-9.28-4.01-3.41-9.65-7.39-15.89-11.2-3.51-2.14-7.07-4.14-10.37-5.82v-.47s0-.07,0-.1c0-.37-.1-.71-.27-1.01-.81-1.95-3.58-3.33-8.26-4.13v-4.29c0-6.72-3.53-11.99-8.04-11.99h-1.65c-3.87,0-7.02,3.87-7.84,9.22-2.76-1.92-5.94-3.85-9.26-5.61-7.48-3.97-14.44-6.43-18.16-6.44-3.19,0-3.93,1.81-4.1,2.59-1.29,5.87,16.37,15.42,18.39,16.49,2.14,1.13,4.27,2.16,6.31,3.05-.41.44-.69.93-.85,1.46-.05.14-.08.28-.1.43-.02.13-.05.27-.05.45,0,.14.01.27.03.38v20.72c-34.95-3.38-83.24-8.03-95.15-9.18-1.68-.16-3.39-.24-5.08-.24-.2,0-.41,0-.61,0-15.29.18-67.5.79-106.22,1.38v-23.43c.02-.11.03-.23.03-.38,0-.23-.03-.41-.07-.55,0-.02,0-.04-.01-.06h0c-.13-.63-.43-1.21-.91-1.73,2.04-.89,4.17-1.91,6.31-3.05,2.02-1.07,19.68-10.62,18.39-16.49-.17-.78-.91-2.59-4.1-2.59h0ZM228.39,99.99c0-2.35,0-4.7,0-6.86,3.01,1.18,6.23,2.36,9.55,3.49l-9.55,3.37h0ZM280.17,250.62c-.18-11.83,1.09-24.11,2.41-35.68,1.77-15.52,4.3-29.02,7.75-41.28,3.83-13.62,8.48-24.61,14.19-33.54,1.84.3,3.67.67,5.43,1.1,1.49.36,3.12.83,4.97,1.42l.36.12c-2,12.07-5.98,38.62-6.18,59.49-.07,7.32-2.55,14.48-7,20.17l-3.9,4.99-1.15,1.47-5.74,7.35-5.74,7.35-.89,1.14c-.55.7-1.1,1.4-1.65,2.11-.46.58-.79,1.18-1.08,1.71-.28.51-.53.96-.83,1.31-.29.33-.65.6-.96.79h0ZM445.7,144.77l16.99-.89c9.27,21.18,11.55,53.29,12.1,66.3.26,6.08-.68,12.05-2.77,17.73l-7.24,19.65c-1.07-9.97-1.68-19.3-1.8-27.84-.47-32.42-12.15-63.02-17.29-74.94h0Z"/><path class="cls-3" d="M359.29,233.69c-6.86,0-11.44-5.61-11.44-12.46v-17.28c0-6.86,5.61-12.47,12.47-12.47h31.74c6.86,0,12.47,5.61,12.47,12.47v17.28c0,6.86-5.61,12.47-12.47,12.47"/><path class="cls-3" d="M306.5,51.81c39.65-.61,95.64-1.27,108.58-1.42,1.83-.02,3.66.06,5.48.23,12.32,1.19,62.16,5.91,97.29,9.31"/><path class="cls-3" d="M264.92,89.2l23.54-8.26c3.35-1.18,3.45-5.88.15-7.2l-20.58-8.22c-2.73-1.09-4.4-3.86-4.1-6.79v-.14c.37-3.41,3.17-6,6.57-6.1,1.9-.05,4.3-.11,7.12-.17"/><path class="cls-3" d="M365.3,178.35c0,3.05,6.82,5.61,14.64,5.61s14.62-2.58,14.62-5.63"/><path class="cls-3" d="M278.51,104.75c-22,8.32-54.13,22.63-72.13,30.8,1.57.22,3.16.21,4.72-.08l16.4-2.98c4.26-.77,8.6-.96,12.9-.56l59.33,5.55c9.62.9,18.98,3.66,27.54,8.12l19.91,10.37c5.39,2.81,11.32,4.45,17.38,4.8l18.85,1.11c7.42.44,14.82-1.05,21.5-4.32,6.46-3.17,15.05-7.63,20.87-10.68,4.31-2.26,9.05-3.56,13.91-3.81l47.53-2.5"/><path class="cls-3" d="M434.1,100.55c-17.29-8.59-35.22-16.91-45.76-20.11-26.6-8.1-71.45,10.88-101.52,21.29"/><path class="cls-3" d="M520.81,145.5c-10.41-5.9-26.38-13.96-30.69-15.91-3.03-1.38-19.97-10.56-40.06-20.9"/><path d="M266.21,55.65l60.37,5.07c1.83.41,2.56,1.93,2.62,3.11.07,1.19-.5,2.8-2.32,3.4l-35.11,11.6c.15-.45.23-.93.24-1.42.04-2.04-1.15-3.85-3.05-4.6l-20.58-8.22c-2.3-.92-3.73-3.29-3.47-5.76v-.14c.13-1.11.57-2.16,1.29-3.04M265.8,54.62c-1,1.06-1.69,2.42-1.85,3.97v.14c-.32,2.93,1.35,5.7,4.08,6.79l20.58,8.22c3.3,1.32,3.2,6.02-.15,7.2l-2.25.79,41-13.55c4.25-1.4,3.91-7.53-.47-8.45l-60.93-5.12h0Z"/><path class="cls-3" d="M500.49,72.94l-16.2,1.96c-2.88.38-4.13,3.86-2.15,5.98l7.87,8.02"/><line class="cls-3" x1="554.01" y1="66.6" x2="513.35" y2="71.5"/><path class="cls-3" d="M517.9,59.86v3.63c.03.16,0,.31,0,.47,0,2.62,6.68,4.74,14.92,4.74s14.92-2.12,14.92-4.74c0-.16-.03-.32-.08-.47.08,0,.08-15.52.08-15.52"/><path class="cls-3" d="M538.34,40.51c-1.41.12-3.97.23-5.53.23-8.25,0-15.24-1.81-15.24-4.04"/><path class="cls-3" d="M539.43,33.08c5.36.61,8.31,1.96,8.31,3.63,0,.26-.53.97-.73,1.19"/><path class="cls-3" d="M525.35,35.33c-3.58-.81-8.28-2.81-13.86-5.77-10.15-5.38-17.92-11.78-17.37-14.3.55-2.52,9.22-.19,19.37,5.19,4.94,2.62,8.79,4.68,11.92,7.21"/><path class="cls-3" d="M532.91,38.86c2.23,0,4.36-.43,6.31-1.2v-10.59c0-5.5-2.72-9.99-6.04-9.99h-1.65c-3.32,0-6.04,4.5-6.04,9.99v10.09"/><g class="cls-5"><path class="cls-2" d="M528.13,22.23c0-1.65,1.91-2.98,4.26-2.98s4.26,1.34,4.26,2.98-1.91,2.98-4.26,2.98"/></g><path class="cls-3" d="M539.32,34.61c4.72,1.48,11.61,5.02,19.75,9.98,12.73,7.76,22.04,15.7,20.8,17.73-1.24,2.03-12.56-2.62-25.29-10.38-8.43-5.14-14.82-9.84-18.18-13.37"/><path class="cls-3" d="M306.84,25.74v26.99c-.03.16,0,.31,0,.47,0,2.62-6.68,4.74-14.92,4.74s-14.92-2.12-14.92-4.74c0-.16.03-.32.08-.47-.08,0-.08-15.85-.08-15.85"/><path class="cls-3" d="M286.29,29.78c1.41.12,4.09.21,5.64.21,8.25,0,14.93-1.8,14.93-4.03,0-1.04-1.21-1.85-3.62-2.56"/><path class="cls-3" d="M285.93,22.28c-5.26.62-8.93,2.04-8.93,3.69,0,.6.31.95.79,1.18"/><path class="cls-3" d="M298.74,24.67c3.59-.78,8.82-2.84,14.51-5.85,10.15-5.38,17.92-11.78,17.37-14.3-.55-2.52-9.22-.19-19.37,5.19-4.97,2.63-9.36,5.51-12.5,8.06"/><path d="M293.22,7.33c2.73,0,5.04,4.12,5.04,8.99v9.45c-2.03.89-4.18,1.34-6.43,1.34-1.82,0-3.6-.3-5.31-.9v-9.89c0-4.87,2.31-8.99,5.04-8.99h1.65M293.22,6.33h-1.65c-3.32,0-6.04,4.5-6.04,9.99v10.59c1.95.77,4.07,1.2,6.31,1.2,2.67,0,5.19-.61,7.43-1.7v-10.09c0-5.5-2.72-9.99-6.04-9.99h0Z"/><g class="cls-5"><path class="cls-2" d="M292.53,13.77c1.93,0,3.5-1.1,3.5-2.45s-1.57-2.45-3.5-2.45-3.5,1.1-3.5,2.45"/></g><path class="cls-3" d="M285.99,23.74c-4.73,1.51-12.24,5.18-20.32,10.1-12.73,7.76-22.04,15.7-20.8,17.73,1.24,2.03,12.56-2.62,25.29-10.38,8.41-5.13,15.33-10.33,18.7-13.86"/><path class="cls-3" d="M364.04,237.73c-8.3-4.79-11.14-15.41-6.34-23.7s15.41-11.14,23.7-6.34,11.14,15.41,6.34,23.7"/><path class="cls-3" d="M371.23,217.9c3.51,0,6.36,2.85,6.36,6.36s-2.85,6.36-6.36,6.36-6.36-2.85-6.36-6.36"/><path class="cls-3" d="M489.65,100.22v24.91c.03.19,0,.38,0,.58,0,3.19,8.16,5.78,18.22,5.78s18.22-2.59,18.22-5.78c0-.2-.03-.39-.09-.58.09,0,.09-32.97.09-32.97"/><path class="cls-3" d="M515.8,88.01c6.09.8,10.28,2.48,10.28,4.43,0,2.71-8.16,4.92-18.24,4.92s-18.24-2.2-18.24-4.92c0-1.83,3.7-3.42,9.19-4.27"/><path class="cls-3" d="M515.76,87.62c5.41-2.58,14.08-4.89,25.75-7.16,17.87-3.47,32.81-3.97,33.36-1.12.55,2.85-13.49,7.97-31.36,11.44-6.79,1.32-12.41,2.19-17.72,2.63"/><path class="cls-3" d="M515.67,93.59v-12.93c0-6.71-3.32-12.2-7.38-12.2h-2.01c-4.06,0-7.38,5.49-7.38,12.2v12.33c2.73,1.32,5.81,2.07,9.07,2.07"/><path class="cls-3" d="M499.36,96.8c-7.09,2.97-17.72,5.85-30.8,8.39-22.32,4.33-40.98,4.96-41.67,1.4-.69-3.56,16.85-9.96,39.17-14.29,13.48-2.62,25.07-3.98,32.72-3.79"/><g class="cls-5"><path class="cls-2" d="M507.33,77.09c-2.49,0-4.5-1.41-4.5-3.15s2.01-3.15,4.5-3.15,4.5,1.41,4.5,3.15"/></g><path class="cls-3" d="M404.14,61.89c0,2.87-9.32,5.21-20.82,5.21s-20.82-2.33-20.82-5.21,9.32-5.21,20.82-5.21"/><path class="cls-3" d="M189.96,83.32v32.97c.03.19,0,.38,0,.58,0,3.19,8.16,5.78,18.22,5.78s18.22-2.59,18.22-5.78c0-.2-.03-.39-.09-.58.09,0,.09-25.95.09-25.95"/><path class="cls-3" d="M199.17,77.23c-6.07-.43-15.37-2.45-26.23-5.85-17.37-5.44-30.76-12.09-29.89-14.86.87-2.77,15.65-.61,33.03,4.83,9.74,3.05,17.61,5.98,23.03,8.9"/><path class="cls-3" d="M220.16,87.34c-2.54.54-6.6,1.16-12,1.16-10.07,0-18.24-2.2-18.24-4.92,0-1.89,3.48-3.55,9.3-4.37"/><path class="cls-3" d="M208.29,86.21c2.73,0,5.33-.52,7.7-1.47v-12.93c0-6.71-3.32-12.2-7.38-12.2h-2.01c-4.06,0-7.38,5.49-7.38,12.2v12.33"/><path class="cls-3" d="M216.13,76.84c7.58.54,19.17,3.2,32.76,7.45,21.7,6.79,38.42,15.1,37.33,18.56-1.08,3.46-19.55.76-41.26-6.03-10.19-3.19-22.1-7.68-29.17-11.83"/><g class="cls-5"><path class="cls-2" d="M207.65,68.24c-2.49,0-4.5-1.41-4.5-3.15s2.01-3.15,4.5-3.15,4.5,1.41,4.5,3.15"/></g><line class="cls-3" x1="392.06" y1="233.69" x2="386.14" y2="233.69"/></g></g></svg>